<svg xmlns="http://www.w3.org/2000/svg" width="775" height="515" fill="none"><g clip-path="url(#a)"><g clip-path="url(#b)"><rect width="1501.19" height="606.86" fill="#101828" rx="24.48" transform="matrix(.99863 -.05234 -.13917 .99027 74.39 45.57)"/><path fill="#0B0F19" d="M76.14 47.48 1571.2-30.87l-7.95 56.55L68.2 104.04z"/><path fill="url(#c)" d="M0 0h1497.11v57.11H0z" transform="matrix(.99863 -.05234 -.13917 .99027 76.14 47.48)"/><path fill="#B3BCC9" d="m98.05 84.83 2.61-18.55 2.85-.15 2.2 9.7a52 52 0 0 1 .39 1.92l.41 1.89h.11c.32-.66.62-1.31.9-1.96.3-.67.61-1.33.93-1.99l4.93-10.08 2.88-.15-2.6 18.55-2.23.12 1.43-10.21c.12-.83.29-1.75.5-2.75l.59-2.75h-.12l-2.07 4.3-4.89 9.8-1.57.07-2.18-9.42-.9-4.14h-.1a196.2 196.2 0 0 1-.5 5.48l-1.43 10.2-2.14.12Zm26.06-1.03a5.94 5.94 0 0 1-3.24-.67 4.77 4.77 0 0 1-2.05-2.37 7.18 7.18 0 0 1-.34-3.8c.21-1.5.69-2.81 1.43-3.92a8.96 8.96 0 0 1 2.69-2.6 6.59 6.59 0 0 1 3.11-1.04c1.77-.1 3.05.42 3.83 1.54.81 1.12 1.08 2.66.8 4.62a10.64 10.64 0 0 1-.27 1.33l-9.36.49c-.1 1.45.19 2.58.88 3.4.72.83 1.74 1.2 3.07 1.14a6.18 6.18 0 0 0 1.87-.38c.6-.24 1.17-.53 1.73-.88l.62 1.48c-.65.41-1.37.78-2.17 1.1-.78.32-1.64.5-2.6.56Zm-3.19-8.09 7.41-.39c.2-1.4.04-2.43-.46-3.11-.49-.7-1.27-1.03-2.36-.98a4.5 4.5 0 0 0-2.78 1.27 6.21 6.21 0 0 0-1.81 3.21Zm15.8 7.43c-1.47.07-2.45-.3-2.92-1.11a5.22 5.22 0 0 1-.4-3.27l1.08-7.6-2.06.1.25-1.75 2.19-.25.82-3.86 1.97-.1-.54 3.84 3.74-.2-.27 1.9-3.74.2-1.07 7.63a3.3 3.3 0 0 0 .18 1.95c.26.44.79.64 1.59.6.24-.02.52-.07.81-.16.3-.11.57-.2.8-.3l.22 1.73a11.7 11.7 0 0 1-2.64.65Zm7.86-.41a3.6 3.6 0 0 1-2.76-.87c-.67-.66-.91-1.6-.74-2.82a4.79 4.79 0 0 1 2.51-3.56c1.48-.88 3.72-1.56 6.71-2.04a5.1 5.1 0 0 0-.02-1.65c-.08-.52-.3-.93-.68-1.23-.35-.32-.9-.46-1.66-.42-.8.04-1.57.23-2.32.57-.75.34-1.42.71-2.03 1.12l-.68-1.56c.7-.45 1.55-.89 2.53-1.32 1-.44 2.06-.7 3.16-.75 1.7-.09 2.85.36 3.47 1.36.61.98.8 2.33.56 4.04l-1.19 8.43-1.93.1.03-1.63h-.09a15.4 15.4 0 0 1-2.33 1.5 6 6 0 0 1-2.54.73Zm.95-1.9a4.47 4.47 0 0 0 1.95-.59c.63-.35 1.32-.83 2.07-1.45l.54-3.82c-2.34.4-4.02.91-5.03 1.53-1 .61-1.55 1.36-1.67 2.25-.11.77.05 1.32.47 1.66.43.31.98.45 1.67.41Zm14.96 1.06c-1.73.1-3.03-.46-3.9-1.65-.87-1.2-1.14-2.95-.82-5.23.2-1.49.66-2.79 1.37-3.89.72-1.12 1.58-2 2.57-2.63a6.43 6.43 0 0 1 3.1-1.03c.8-.05 1.47.06 2.01.31.56.25 1.1.6 1.64 1.07l.21-2.35.75-5.28 2.36-.13-2.82 20.14-1.94.1.02-1.6h-.08c-.6.56-1.3 1.05-2.08 1.48-.78.42-1.57.65-2.39.7Zm.79-1.98c1.22-.06 2.48-.75 3.8-2.08l1.01-7.18a4.28 4.28 0 0 0-3.16-1.26c-.74.03-1.45.3-2.12.78a6.03 6.03 0 0 0-1.69 1.91c-.47.8-.78 1.72-.92 2.77-.23 1.64-.08 2.92.45 3.83.54.88 1.41 1.3 2.63 1.23Zm13.49 1.23a3.6 3.6 0 0 1-2.77-.86c-.66-.66-.9-1.6-.73-2.83a4.79 4.79 0 0 1 2.5-3.55c1.49-.89 3.73-1.56 6.72-2.04a5.1 5.1 0 0 0-.02-1.65c-.08-.52-.3-.93-.68-1.23-.35-.32-.9-.46-1.67-.42-.8.04-1.57.23-2.31.57-.75.34-1.43.71-2.03 1.12l-.69-1.57c.7-.44 1.55-.88 2.54-1.3 1-.45 2.06-.7 3.16-.76 1.7-.1 2.85.36 3.46 1.36.62.98.8 2.32.57 4.04l-1.19 8.43-1.94.1.03-1.63h-.08a15.4 15.4 0 0 1-2.33 1.5 6 6 0 0 1-2.54.72Zm.94-1.9a4.47 4.47 0 0 0 1.95-.58c.64-.35 1.33-.84 2.08-1.45l.53-3.82c-2.34.4-4.01.91-5.02 1.52-1 .62-1.55 1.37-1.68 2.25-.1.78.05 1.33.48 1.66.42.32.98.46 1.66.42Zm14.2 1.1c-1.47.09-2.45-.28-2.92-1.1a5.21 5.21 0 0 1-.4-3.26l1.08-7.61-2.06.1.25-1.75 2.19-.25.82-3.86 1.97-.1-.54 3.84 3.73-.2-.26 1.9-3.74.2-1.07 7.63a3.3 3.3 0 0 0 .18 1.96c.26.43.79.63 1.59.59.24-.02.51-.07.81-.16.3-.1.57-.2.8-.3l.22 1.74a11.57 11.57 0 0 1-2.64.64Zm7.86-.4a3.6 3.6 0 0 1-2.77-.87c-.66-.66-.9-1.6-.73-2.82a4.8 4.8 0 0 1 2.51-3.56c1.48-.88 3.72-1.56 6.71-2.03a5.1 5.1 0 0 0-.02-1.66c-.08-.52-.3-.93-.68-1.23-.35-.32-.9-.45-1.67-.41-.8.04-1.57.23-2.31.57-.75.33-1.42.7-2.03 1.11l-.68-1.56c.7-.45 1.55-.89 2.53-1.31 1-.45 2.06-.7 3.16-.76 1.7-.09 2.85.37 3.46 1.36.62.98.8 2.33.57 4.04l-1.19 8.43-1.94.1.04-1.63h-.09c-.72.57-1.5 1.07-2.33 1.5a6 6 0 0 1-2.54.73Zm.95-1.9a4.47 4.47 0 0 0 1.95-.58c.63-.36 1.32-.84 2.07-1.46l.54-3.82c-2.34.4-4.02.91-5.03 1.53-1 .61-1.55 1.36-1.68 2.25-.1.77.06 1.32.48 1.66.43.31.98.45 1.67.42Zm22.8.65a6.84 6.84 0 0 1-3.34-.58 4.11 4.11 0 0 1-2.04-2.4c-.42-1.13-.5-2.69-.22-4.67l1.53-10.88 2.37-.13-1.54 10.95a8.45 8.45 0 0 0 .07 3.5c.28.83.72 1.4 1.32 1.73.61.32 1.33.46 2.15.42a4.81 4.81 0 0 0 4.15-2.55c.52-.89.88-2.08 1.1-3.56l1.53-10.95 2.28-.12-1.53 10.89c-.27 1.98-.79 3.57-1.54 4.77a7.18 7.18 0 0 1-2.75 2.64 8.51 8.51 0 0 1-3.53.94Zm11.8-.95 2.6-18.55 2.37-.13-2.61 18.55-2.37.13Z"/><path fill="#fff" d="m268.08 70 .85-6.05-3.06.16-.2 1.51 1.52-.08-.64 4.54-2.3.12-.2 1.52 6.1-.32.22-1.52-2.3.12ZM268.8 59.44a1.5 1.5 0 0 0-1.16.76c-.1.21-.16.44-.15.66.01.22.1.41.23.56a.9.9 0 0 0 .54.28c.22.03.45 0 .68-.1.22-.1.42-.25.57-.44.15-.2.25-.42.28-.64a.95.95 0 0 0-.22-.79.95.95 0 0 0-.77-.29Z"/><path fill="#fff" d="M266.46 76.1c-2.11.12-4.1-.4-5.69-1.47a8.07 8.07 0 0 1-3.27-4.55c-.53-1.9-.45-4.02.25-6.1s2-4.02 3.7-5.58a13.52 13.52 0 0 1 5.88-3.2 10.3 10.3 0 0 1 6.1.29 8.07 8.07 0 0 1 4.24 3.65 9.25 9.25 0 0 1 .98 5.8c-.4 2.81-1.9 5.57-4.19 7.66a13.05 13.05 0 0 1-8 3.5Zm2.77-19.69c-1.81.1-3.66.72-5.3 1.8a12.02 12.02 0 0 0-3.96 4.26 9.85 9.85 0 0 0-1.26 5.27c.11 1.75.75 3.32 1.86 4.53a7.27 7.27 0 0 0 4.34 2.24c1.73.26 3.6-.02 5.37-.8a12 12 0 0 0 4.58-3.56c1.22-1.55 2-3.33 2.26-5.13a7.6 7.6 0 0 0-1.78-6.29 7.6 7.6 0 0 0-6.11-2.32Z"/><path fill="#0B0F19" d="m67.91 106.06 746.52-39.13-12.5 88.88-746.51 39.12z"/><path fill="#fff" d="m89.64 149.25-.6 4.34c-.13.9.5 1.58 1.4 1.53.91-.04 1.74-.8 1.87-1.7l.61-4.34a1.3 1.3 0 0 0-1.41-1.54c-.9.05-1.74.82-1.87 1.72Zm6.56-.34-.61 4.33c-.13.9.5 1.59 1.4 1.54.91-.05 1.75-.81 1.87-1.71l.61-4.33a1.3 1.3 0 0 0-1.4-1.54c-.92.05-1.75.81-1.87 1.71Zm-8.7 11.74 17.47-.91c.9-.05 1.74-.81 1.87-1.71a1.3 1.3 0 0 0-1.41-1.54l-17.47.91c-.9.05-1.74.81-1.87 1.71-.13.9.5 1.59 1.41 1.54Zm15.25-12.08-.61 4.33c-.13.9.5 1.58 1.4 1.54.91-.05 1.75-.81 1.87-1.71l.61-4.33a1.3 1.3 0 0 0-1.4-1.54c-.91.05-1.75.8-1.87 1.7Zm-4.4-10.53L89.07 143c-.48.25-.83.73-.9 1.23-.1.74.42 1.32 1.18 1.28l18.02-.95a1.72 1.72 0 0 0 1.55-1.42c.07-.5-.15-.95-.57-1.15l-7.99-4.06a2.19 2.19 0 0 0-2.03.11Z"/><path fill="#E5E7EB" d="m123.85 155.75 5.13-.27 2.4-17.08-5.13.27.27-1.92 7.41-.4-2.67 19.01 5.13-.27-.27 1.92-12.54.66.27-1.92Zm26.52-17.17c-.67.04-1.12-.07-1.35-.32a1.25 1.25 0 0 1-.25-1.02l.06-.46c.06-.41.24-.76.55-1.03.3-.3.79-.47 1.45-.5.67-.04 1.11.08 1.34.35.23.25.32.58.26 1l-.07.45a1.8 1.8 0 0 1-.54 1.06c-.3.28-.79.44-1.45.47Zm-8.68 16.23 5.3-.27 1.51-10.75-5.3.28.27-1.92 7.58-.4-1.78 12.67 4.96-.26-.27 1.92-12.54.66.27-1.93Zm22.82 1.05a6.51 6.51 0 0 1-2.77-.39 4.6 4.6 0 0 1-1.87-1.44c-.47-.63-.8-1.4-.97-2.34-.15-.92-.15-1.96.01-3.11s.46-2.2.9-3.17a8.8 8.8 0 0 1 1.65-2.47 7.36 7.36 0 0 1 5.17-2.34 5.19 5.19 0 0 1 3.35.75c.8.57 1.35 1.35 1.62 2.32l-1.96 1.06a2.6 2.6 0 0 0-1.09-1.68 3.44 3.44 0 0 0-2.2-.5 5.1 5.1 0 0 0-3.28 1.4 5.23 5.23 0 0 0-1.53 3.26l-.35 2.48a5.64 5.64 0 0 0 0 1.77 2.88 2.88 0 0 0 1.84 2.23c.5.18 1.1.26 1.78.22a4.85 4.85 0 0 0 2.55-.8 6.2 6.2 0 0 0 1.8-1.95l1.48 1.01a7.62 7.62 0 0 1-2.4 2.54 7.11 7.11 0 0 1-3.73 1.15Zm16.84-.88c-1.06.06-2-.07-2.8-.39a4.77 4.77 0 0 1-1.95-1.4 5.78 5.78 0 0 1-1.03-2.34 10.97 10.97 0 0 1 .89-6.3 9.45 9.45 0 0 1 1.73-2.48 7.7 7.7 0 0 1 5.17-2.35c.99-.05 1.85.08 2.6.4.77.31 1.4.77 1.87 1.38.49.6.82 1.32 1 2.17.18.85.2 1.8.06 2.83l-.15 1.08-10.9.57-.1.68c-.08.64-.06 1.22.07 1.76s.36 1 .69 1.37c.34.37.77.66 1.29.86.54.17 1.15.25 1.84.2a5.48 5.48 0 0 0 2.66-.8 5.82 5.82 0 0 0 1.92-1.96l1.52 1.05a7.28 7.28 0 0 1-2.54 2.54 7.98 7.98 0 0 1-3.84 1.13Zm1.75-13.4c-.63.04-1.23.18-1.8.43-.56.26-1.06.6-1.52 1.01a5.36 5.36 0 0 0-1.67 3.23l-.03.2 8.44-.44.04-.31c.1-.64.07-1.22-.06-1.74a2.98 2.98 0 0 0-1.8-2.15c-.46-.18-1-.26-1.6-.23Zm9.38 12.48 2.05-14.6 2.29-.11-.34 2.38.12-.01a6.95 6.95 0 0 1 1.66-1.97 5.54 5.54 0 0 1 2.9-.97c1.55-.08 2.72.35 3.51 1.28.8.91 1.07 2.26.82 4.03l-1.31 9.36-2.29.12 1.26-8.97c.2-1.34.04-2.3-.46-2.92-.5-.63-1.32-.91-2.46-.85a5.79 5.79 0 0 0-2.6.8c-.38.25-.7.56-.95.93-.26.37-.43.79-.5 1.26l-1.42 10.12-2.28.12Zm22.99-.87a8.69 8.69 0 0 1-3.89-.55 6.77 6.77 0 0 1-2.53-1.95l1.73-1.4c.6.7 1.29 1.22 2.07 1.57.78.35 1.76.5 2.94.43 1.14-.05 2.1-.3 2.88-.73a2.6 2.6 0 0 0 1.38-1.99c.05-.37.02-.68-.1-.92-.1-.25-.25-.45-.48-.59a2.4 2.4 0 0 0-.78-.3c-.29-.07-.6-.13-.94-.17l-2.26-.22c-.5-.05-1.05-.12-1.64-.22a4.8 4.8 0 0 1-1.54-.54 3.12 3.12 0 0 1-1.08-1.12 3.08 3.08 0 0 1-.22-1.9 4.56 4.56 0 0 1 2.14-3.34c.59-.4 1.25-.71 2-.92a10.1 10.1 0 0 1 2.4-.4 7.95 7.95 0 0 1 3.37.44c.93.36 1.7.9 2.3 1.59l-1.68 1.46c-.15-.2-.34-.4-.57-.58a4.5 4.5 0 0 0-2.08-.93 7.37 7.37 0 0 0-1.69-.09c-1.16.07-2.08.31-2.76.74a2.43 2.43 0 0 0-1.16 1.77c-.05.38-.03.7.07.95.12.24.29.43.51.56.23.14.49.25.78.33.31.06.63.1.94.15l2.26.22c.53.04 1.07.12 1.64.22.57.1 1.08.29 1.54.56.45.26.8.63 1.06 1.1.27.47.35 1.1.24 1.9a4.84 4.84 0 0 1-2.18 3.45 8.9 8.9 0 0 1-4.67 1.42Zm17.18-.9c-1.06.06-2-.07-2.8-.38a4.77 4.77 0 0 1-1.96-1.42 5.76 5.76 0 0 1-1.03-2.33 10.92 10.92 0 0 1 .89-6.3 9.45 9.45 0 0 1 1.73-2.48 7.7 7.7 0 0 1 5.17-2.35c1-.05 1.86.08 2.6.4.78.31 1.4.78 1.88 1.39.48.59.81 1.31 1 2.16.18.85.2 1.8.05 2.83l-.15 1.08-10.9.57-.09.68c-.09.64-.07 1.23.07 1.76.13.54.36 1 .68 1.37.34.38.78.66 1.3.86.54.18 1.15.25 1.83.21a5.49 5.49 0 0 0 2.67-.81 5.8 5.8 0 0 0 1.91-1.96l1.53 1.05a7.27 7.27 0 0 1-2.54 2.54 7.99 7.99 0 0 1-3.84 1.13Zm1.74-13.4c-.63.04-1.22.18-1.79.44-.56.25-1.07.59-1.52 1a5.38 5.38 0 0 0-1.67 3.23l-.03.2 8.44-.44.04-.31c.1-.64.07-1.22-.07-1.74a2.96 2.96 0 0 0-.63-1.31 2.5 2.5 0 0 0-1.16-.84c-.46-.18-1-.26-1.6-.22Z"/><g clip-path="url(#d)"><rect width="501.14" height="65.27" fill="#101828" rx="16.32" transform="matrix(.99863 -.05234 -.13917 .99027 295.97 106.14)"/><g clip-path="url(#e)"><g clip-path="url(#f)"><path fill="#99A1AF" d="m317.2 144.15.71-5.07-4.89.25.23-1.64 4.9-.26.7-5.06 1.86-.1-.71 5.06 4.89-.25-.23 1.65-4.9.25-.7 5.07-1.86.1Zm34.45-.32-.76-4.75-5.99.32-2.12 4.9-2.13.1 7.61-17.19 2.72-.14 2.85 16.65-2.18.11Zm-2.25-14.53h-.22l-3.54 8.3 5-.26-1.24-8.04Zm15.83 11.8h-.1a5.13 5.13 0 0 1-4.22 2.53c-1.54.09-2.68-.42-3.4-1.53-.7-1.1-.9-2.68-.61-4.75.29-2.07.95-3.7 1.97-4.9a5.34 5.34 0 0 1 3.88-1.9c1.78-.1 2.97.61 3.56 2.12h.1l1.05-7.47 1.96-.1-2.53 17.93-1.95.1.29-2.03Zm-3.32.77a4.93 4.93 0 0 0 2.37-.77c.32-.24.59-.52.8-.84.22-.33.36-.7.42-1.13l.63-4.5c.06-.42.03-.78-.11-1.08-.12-.31-.3-.57-.57-.76a2.43 2.43 0 0 0-.96-.46 4.2 4.2 0 0 0-1.22-.1 4.15 4.15 0 0 0-2.81 1.18 4.7 4.7 0 0 0-1.31 2.76l-.3 2.14c-.16 1.13.02 2.02.54 2.69.54.64 1.38.93 2.52.87Zm17.97-1.54h-.1a5.14 5.14 0 0 1-4.21 2.54c-1.55.08-2.68-.43-3.4-1.53-.7-1.1-.9-2.7-.62-4.76.3-2.07.95-3.7 1.98-4.9a5.34 5.34 0 0 1 3.88-1.9c1.78-.1 2.96.61 3.56 2.12h.1l1.05-7.47 1.95-.1-2.52 17.93-1.95.1.28-2.03Zm-3.31.77a4.85 4.85 0 0 0 2.37-.77c.32-.24.59-.52.8-.83.22-.34.36-.71.42-1.13l.63-4.51c.06-.42.02-.78-.12-1.08-.11-.31-.3-.57-.57-.76a2.44 2.44 0 0 0-.95-.46 4.2 4.2 0 0 0-1.22-.1 4.15 4.15 0 0 0-2.81 1.18 4.7 4.7 0 0 0-1.31 2.76l-.3 2.14c-.16 1.13.02 2.03.54 2.69.54.64 1.38.94 2.52.88Zm24.88.12 2.38-16.92 2.05-.1-2.13 15.14 8.1-.42-.25 1.77-10.15.53Zm21.99-16.3c-.57.02-.96-.07-1.15-.28-.2-.23-.27-.53-.22-.88l.05-.4c.05-.35.2-.64.47-.88.26-.26.68-.4 1.25-.43.57-.03.95.07 1.14.3.2.22.27.5.22.86l-.05.39c-.05.35-.2.66-.47.9-.26.25-.67.38-1.24.41Zm-7.44 13.9 4.54-.24 1.3-9.2-4.55.23.23-1.65 6.5-.34-1.52 10.86 4.25-.22-.23 1.65-10.75.56.23-1.65Zm19.56.9a5.6 5.6 0 0 1-2.38-.33 3.95 3.95 0 0 1-1.6-1.24c-.4-.54-.68-1.2-.83-2-.13-.8-.13-1.69.01-2.67.14-.99.4-1.9.77-2.71.38-.83.85-1.53 1.42-2.12a6.31 6.31 0 0 1 4.43-2.02 4.45 4.45 0 0 1 2.87.65c.69.5 1.15 1.16 1.4 2l-1.69.9a2.23 2.23 0 0 0-.94-1.44 2.95 2.95 0 0 0-1.88-.43 4.36 4.36 0 0 0-2.81 1.2 4.5 4.5 0 0 0-1.31 2.8l-.3 2.12a4.88 4.88 0 0 0 0 1.52 2.48 2.48 0 0 0 1.57 1.91c.44.16.95.22 1.53.19a4.17 4.17 0 0 0 2.19-.7c.6-.41 1.12-.97 1.54-1.66l1.26.87a6.53 6.53 0 0 1-2.05 2.18c-.86.59-1.93.91-3.2.98Zm14.44-.75a5.74 5.74 0 0 1-2.4-.34 4.09 4.09 0 0 1-1.68-1.2 4.94 4.94 0 0 1-.88-2 9.39 9.39 0 0 1 .76-5.4c.4-.83.9-1.54 1.48-2.13a6.62 6.62 0 0 1 4.44-2.02 5 5 0 0 1 2.23.34c.66.27 1.2.67 1.6 1.2.42.5.7 1.12.86 1.85.15.73.17 1.54.04 2.43l-.13.92-9.33.49-.08.58c-.08.55-.06 1.05.05 1.51.11.46.31.85.59 1.18.3.32.66.56 1.1.73.47.15 1 .21 1.58.18a4.7 4.7 0 0 0 2.28-.7 4.98 4.98 0 0 0 1.65-1.67l1.3.9a6.21 6.21 0 0 1-2.17 2.18c-.94.58-2.04.9-3.3.97Zm1.5-11.49c-.55.03-1.06.15-1.54.37s-.92.5-1.31.87a4.64 4.64 0 0 0-1.43 2.77l-.03.16 7.24-.38.03-.26c.08-.55.06-1.05-.05-1.49a2.55 2.55 0 0 0-1.54-1.85c-.4-.15-.86-.21-1.38-.19Zm8.04 10.7 1.76-12.51 1.95-.1-.29 2.03h.1a5.95 5.95 0 0 1 1.43-1.69 4.73 4.73 0 0 1 2.5-.83c1.31-.07 2.31.3 3 1.1.68.78.91 1.93.7 3.45l-1.13 8.02-1.96.1 1.08-7.68c.17-1.15.03-1.98-.4-2.5-.42-.54-1.12-.79-2.1-.74a4.97 4.97 0 0 0-2.23.7c-.32.2-.6.47-.82.79-.22.31-.36.67-.42 1.08l-1.22 8.67-1.95.1Zm19.7-.75a7.45 7.45 0 0 1-3.33-.47 5.8 5.8 0 0 1-2.17-1.67l1.48-1.2c.51.6 1.1 1.04 1.77 1.34.67.3 1.51.43 2.52.38.98-.06 1.8-.27 2.47-.64a2.23 2.23 0 0 0 1.19-1.7c.04-.32.01-.58-.09-.79a.98.98 0 0 0-.41-.5c-.2-.12-.42-.2-.67-.26a5.55 5.55 0 0 0-.8-.15l-1.94-.18c-.43-.05-.9-.11-1.4-.2a4.11 4.11 0 0 1-1.32-.46c-.4-.23-.7-.55-.94-.96-.22-.4-.28-.94-.18-1.62a3.91 3.91 0 0 1 1.83-2.87c.5-.34 1.07-.6 1.71-.78a8.7 8.7 0 0 1 2.07-.35c1.14-.06 2.1.06 2.88.38.8.3 1.45.76 1.97 1.36l-1.44 1.25a2.65 2.65 0 0 0-.49-.5 3.78 3.78 0 0 0-1.78-.8 6.3 6.3 0 0 0-1.44-.07c-1 .06-1.79.27-2.37.63-.57.37-.9.88-1 1.52-.04.33-.02.6.06.82.1.2.25.36.44.48.2.12.42.21.67.28.27.05.54.1.8.13l1.94.18c.45.04.92.1 1.4.2.5.08.94.24 1.32.48.4.22.7.53.91.94.24.4.3.94.21 1.62a4.15 4.15 0 0 1-1.87 2.96 7.62 7.62 0 0 1-4 1.22Zm14.73-.77a5.75 5.75 0 0 1-2.4-.33 4.08 4.08 0 0 1-1.68-1.21 4.95 4.95 0 0 1-.88-2 9.4 9.4 0 0 1 .76-5.4c.4-.83.9-1.54 1.48-2.13a6.62 6.62 0 0 1 4.43-2.01c.85-.05 1.6.07 2.24.34.65.27 1.19.67 1.6 1.19.41.5.7 1.13.86 1.86.15.73.17 1.53.04 2.42l-.13.93-9.33.48-.09.59c-.07.55-.06 1.05.06 1.5.11.47.3.86.59 1.18.29.32.66.57 1.1.74.47.15 1 .21 1.58.18a4.71 4.71 0 0 0 3.93-2.37l1.3.9a6.24 6.24 0 0 1-2.17 2.17c-.94.58-2.04.9-3.3.97Zm1.49-11.48c-.54.03-1.05.15-1.53.37a4.88 4.88 0 0 0-2.27 2.11c-.24.47-.4.97-.48 1.52l-.02.17 7.23-.38.04-.27c.08-.54.06-1.04-.06-1.48a2.55 2.55 0 0 0-1.53-1.85c-.4-.15-.86-.22-1.38-.2Z"/></g></g></g><rect width="499.11" height="63.23" x=".88" y=".96" stroke="#1E2939" stroke-width="2.04" rx="15.3" transform="matrix(.99863 -.05234 -.13917 .99027 296.1 106.2)"/><path fill="#0B0F19" d="m55.14 196.95 746.51-39.12-12.49 88.87-746.51 39.13z"/><path fill="#fff" d="m90.5 240.2-10.18.54a.84.84 0 0 1-.68-.26.84.84 0 0 1-.2-.7c.04-.26.19-.53.4-.73.22-.2.5-.31.77-.33l10.18-.53c.27-.02.51.07.68.25.16.18.23.44.2.7-.04.27-.18.53-.4.73-.22.2-.5.32-.76.34Z"/><path fill="#fff" d="M86.97 229.36c-1.92.1-3.89.75-5.66 1.85a13.4 13.4 0 0 0-4.35 4.4 11.3 11.3 0 0 0-1.69 5.6 8.36 8.36 0 0 0 1.5 5.06l-2.28 2.09c-.16.14-.28.33-.35.53-.07.2-.07.4-.02.58.05.18.16.33.3.43.16.1.35.15.55.14l9.17-.48c2.7-.14 5.44-1.34 7.61-3.33 2.18-2 3.61-4.62 3.99-7.3a8.44 8.44 0 0 0-1.98-6.99 8.45 8.45 0 0 0-6.79-2.58Zm-3.76 5.21 6.11-.32c.27-.01.51.08.68.26.16.18.23.43.2.7-.04.27-.18.53-.4.73-.22.2-.5.32-.76.33l-6.11.32a.85.85 0 0 1-.68-.25.84.84 0 0 1-.2-.7c.04-.27.18-.53.4-.73.22-.2.49-.32.76-.34Zm4.7 9.78-6.12.32a.84.84 0 0 1-.68-.25.84.84 0 0 1-.2-.7c.04-.27.19-.53.4-.73.22-.2.5-.32.76-.34l6.12-.32c.27-.01.5.08.67.26.17.18.24.43.2.7-.04.27-.18.53-.4.73-.21.2-.49.32-.76.33Zm2.6-4.14-10.19.53a.84.84 0 0 1-.68-.26.84.84 0 0 1-.2-.7c.04-.26.19-.53.4-.73.22-.2.5-.31.77-.33l10.18-.53c.27-.02.51.07.68.25.16.18.23.44.2.7-.04.27-.18.53-.4.73-.22.2-.5.32-.76.34Z" opacity=".5"/><path fill="#fff" d="m87.9 244.35-6.11.32a.84.84 0 0 1-.68-.25.84.84 0 0 1-.2-.7c.04-.27.18-.53.4-.73.22-.2.5-.32.76-.34l6.11-.32c.27-.01.52.08.68.26.17.18.24.43.2.7-.04.27-.18.53-.4.73-.22.2-.49.32-.76.33Zm1.14-8.08-6.11.32a.85.85 0 0 1-.68-.25.84.84 0 0 1-.2-.7c.04-.27.18-.53.4-.73.22-.2.49-.32.76-.34l6.11-.32c.27-.01.51.08.68.26.16.18.23.43.2.7-.04.27-.18.53-.4.73-.22.2-.5.32-.76.33Z"/><path fill="#E5E7EB" d="m111.07 246.64 5.14-.27 2.4-17.08-5.14.27.27-1.92 7.42-.4-2.67 19.01 5.13-.27-.27 1.93-12.55.65.27-1.92Zm28.67.4c-.9.05-1.5-.14-1.82-.57a2.74 2.74 0 0 1-.47-1.66h-.15a5.44 5.44 0 0 1-1.85 2.1c-.77.5-1.75.79-2.95.85-1.54.08-2.7-.25-3.51-1-.8-.74-1.1-1.8-.91-3.17a4.6 4.6 0 0 1 1.92-3.22c1.11-.79 2.78-1.24 5-1.36l3.14-.16.2-1.44c.16-1.08-.04-1.86-.57-2.36-.53-.51-1.36-.74-2.48-.68-.99.05-1.82.29-2.5.72-.69.4-1.26.95-1.74 1.63l-1.38-1.05a6.6 6.6 0 0 1 3.97-2.87 8.2 8.2 0 0 1 2.06-.36c1.73-.1 3.04.27 3.93 1.08.9.82 1.25 2 1.03 3.54l-1.13 8.03 2.05-.1-.28 1.97-1.56.09Zm-6.57-1.2a6.52 6.52 0 0 0 1.62-.27c.52-.18.97-.4 1.37-.64.39-.26.7-.56.94-.89.26-.35.41-.71.47-1.09l.33-2.4-3.13.16a6.8 6.8 0 0 0-3.08.72c-.68.41-1.07.98-1.17 1.7l-.08.59c-.1.75.08 1.31.55 1.68.5.35 1.23.5 2.18.45Zm12.34.9 2.05-14.59 2.28-.12-.33 2.38h.12a6.98 6.98 0 0 1 1.66-1.97 5.6 5.6 0 0 1 2.9-.97c1.55-.08 2.72.34 3.5 1.28.8.9 1.08 2.25.83 4.02l-1.31 9.36-2.29.12 1.26-8.96c.2-1.34.04-2.32-.46-2.93-.5-.63-1.32-.9-2.46-.85-.46.02-.91.1-1.36.24-.46.14-.87.33-1.24.57-.38.25-.7.55-.95.92-.26.37-.43.79-.5 1.26l-1.42 10.12-2.28.12Zm30.07.08a4.4 4.4 0 0 1-2.31 3.35c-1.34.79-3.24 1.24-5.71 1.37-2.38.12-4.05-.1-5-.66-.94-.57-1.33-1.44-1.17-2.61.12-.8.41-1.42.89-1.87.48-.46 1.11-.8 1.9-1.06l.05-.34a1.91 1.91 0 0 1-.86-.74c-.18-.3-.24-.7-.17-1.2.1-.75.43-1.33.98-1.73.57-.4 1.24-.72 2.03-.95l.02-.11a3.62 3.62 0 0 1-1.9-1.64 4.39 4.39 0 0 1-.36-2.68 5.9 5.9 0 0 1 2.05-3.7 6.94 6.94 0 0 1 1.97-1.14 7.8 7.8 0 0 1 2.4-.49c1.1-.06 2.04.09 2.82.44l.04-.25c.07-.57.28-1.05.6-1.44.31-.39.8-.6 1.44-.63l2.71-.15-.28 1.98-3.3.18-.14.99c.47.42.8.94 1 1.54a5.56 5.56 0 0 1-.58 4.13 6.04 6.04 0 0 1-3.34 2.79 7.8 7.8 0 0 1-3.77.45 4.34 4.34 0 0 0-2.06 1.11c-.16.2-.25.42-.29.67-.06.43.12.71.54.84.41.1.98.14 1.68.1l3.25-.16c1.9-.1 3.23.18 3.98.85.76.66 1.06 1.58.89 2.76Zm-2.15.23c.08-.59-.1-1.04-.52-1.38-.43-.31-1.23-.44-2.4-.38l-5.11.27c-1.05.45-1.63 1.13-1.76 2.06-.1.64.09 1.17.54 1.6.44.44 1.27.63 2.46.57l2.23-.12a7.24 7.24 0 0 0 3.2-.78 2.43 2.43 0 0 0 1.36-1.84Zm-4.21-8.12a4.08 4.08 0 0 0 2.62-.92 3.4 3.4 0 0 0 1.12-2.14l.11-.82c.13-.86-.05-1.54-.53-2.02-.46-.5-1.26-.72-2.4-.66a4.08 4.08 0 0 0-2.62.93c-.6.53-.97 1.23-1.1 2.1l-.1.82c-.13.87.04 1.55.5 2.05.46.5 1.26.72 2.4.66Zm20.06 3.16h-.11c-.2.37-.44.73-.72 1.08a5.03 5.03 0 0 1-3.86 1.86c-1.53.08-2.7-.33-3.5-1.25-.8-.93-1.06-2.28-.82-4.05l1.32-9.36 2.28-.12-1.26 8.96c-.19 1.34-.03 2.33.46 2.95.5.62 1.32.89 2.46.83.46-.02.91-.1 1.37-.24.45-.13.86-.32 1.24-.57.37-.24.69-.54.95-.9.25-.36.42-.79.49-1.28l1.42-10.12 2.28-.12-2.05 14.59-2.28.12.33-2.38Zm18.85 1.37c-.9.05-1.5-.14-1.81-.58a2.74 2.74 0 0 1-.48-1.66l-.14.01a5.46 5.46 0 0 1-1.85 2.1c-.77.5-1.76.79-2.95.85-1.54.08-2.71-.25-3.52-1-.8-.74-1.1-1.8-.9-3.18a4.59 4.59 0 0 1 1.92-3.21c1.1-.8 2.78-1.24 5-1.36l3.14-.16.2-1.45c.15-1.07-.04-1.86-.58-2.35-.53-.52-1.35-.75-2.48-.69-.98.06-1.82.3-2.5.72-.68.41-1.26.96-1.73 1.64l-1.38-1.05a6.7 6.7 0 0 1 3.97-2.88c.63-.2 1.32-.32 2.06-.36 1.73-.09 3.03.27 3.92 1.09.9.81 1.25 2 1.03 3.54l-1.13 8.03 2.06-.1-.28 1.97-1.57.08Zm-6.57-1.2a6.47 6.47 0 0 0 1.63-.28c.51-.17.97-.39 1.36-.63.4-.27.71-.56.94-.9.26-.34.42-.7.47-1.08l.34-2.4-3.14.16c-1.37.07-2.4.3-3.07.72-.68.4-1.07.97-1.17 1.69l-.09.6c-.1.75.08 1.3.56 1.68.5.34 1.22.5 2.17.44Zm25.32 1.88a4.4 4.4 0 0 1-2.31 3.35c-1.34.78-3.25 1.23-5.72 1.36-2.37.13-4.04-.1-5-.66-.94-.57-1.32-1.44-1.16-2.6.11-.8.4-1.42.88-1.88a4.8 4.8 0 0 1 1.9-1.05l.06-.34a1.91 1.91 0 0 1-.86-.74c-.18-.31-.24-.71-.17-1.2.1-.76.43-1.34.98-1.74.56-.4 1.24-.72 2.03-.95l.01-.1a3.61 3.61 0 0 1-1.89-1.65 4.39 4.39 0 0 1-.36-2.68 5.89 5.89 0 0 1 2.05-3.7 6.95 6.95 0 0 1 1.97-1.14 7.8 7.8 0 0 1 2.39-.49c1.1-.06 2.04.1 2.83.44l.03-.25c.08-.57.28-1.05.6-1.44.32-.39.8-.6 1.45-.63l2.7-.15-.27 1.98-3.3.18-.15.99c.47.42.8.94 1 1.54.2.61.24 1.3.14 2.07a6.1 6.1 0 0 1-4.05 4.84 7.8 7.8 0 0 1-3.78.46 4.27 4.27 0 0 0-2.05 1.12c-.16.2-.26.41-.29.66-.06.43.12.71.53.84.42.1.98.14 1.69.1l3.25-.16c1.9-.1 3.23.18 3.98.86.76.65 1.05 1.57.89 2.76Zm-2.16.22c.08-.58-.09-1.04-.51-1.38-.43-.31-1.23-.44-2.41-.37l-5.1.26c-1.05.45-1.64 1.14-1.77 2.06-.09.64.1 1.17.54 1.6.45.44 1.27.63 2.47.57l2.22-.11a7.25 7.25 0 0 0 3.2-.79 2.43 2.43 0 0 0 1.36-1.84Zm-4.2-8.12a4.07 4.07 0 0 0 2.61-.92 3.4 3.4 0 0 0 1.12-2.13l.12-.82c.12-.87-.06-1.55-.54-2.03-.46-.5-1.26-.72-2.4-.66a4.08 4.08 0 0 0-2.62.93c-.6.53-.96 1.24-1.09 2.1l-.11.82c-.12.87.05 1.56.5 2.06.46.5 1.26.72 2.4.66Zm16.45 6.05c-1.06.05-2-.07-2.8-.39a4.76 4.76 0 0 1-1.95-1.41 5.77 5.77 0 0 1-1.03-2.33 10.97 10.97 0 0 1 .89-6.3 9.47 9.47 0 0 1 1.73-2.49 7.72 7.72 0 0 1 5.17-2.34c.99-.06 1.86.08 2.6.4.77.3 1.4.77 1.88 1.38.48.6.81 1.32 1 2.17.17.85.2 1.8.05 2.83l-.15 1.07-10.9.57-.1.68c-.08.64-.06 1.23.07 1.77.13.53.36.99.69 1.37.34.37.77.66 1.3.85a5.47 5.47 0 0 0 4.5-.6 5.8 5.8 0 0 0 1.9-1.95l1.53 1.04a7.27 7.27 0 0 1-2.54 2.55 7.99 7.99 0 0 1-3.84 1.13Zm1.75-13.4c-.63.03-1.23.18-1.8.43-.55.26-1.06.6-1.52 1a5.39 5.39 0 0 0-1.67 3.23l-.03.2 8.44-.44.05-.3c.09-.65.06-1.23-.07-1.74a2.97 2.97 0 0 0-.64-1.32 2.51 2.51 0 0 0-1.15-.83c-.47-.19-1-.26-1.61-.23Z"/><g clip-path="url(#g)"><rect width="484.01" height="65.27" fill="#101828" rx="16.32" transform="matrix(.99863 -.05234 -.13917 .99027 300.3 196.13)"/><g clip-path="url(#h)"><g clip-path="url(#i)"><path fill="#99A1AF" d="m321.53 234.14.72-5.07-4.9.26.24-1.65 4.89-.25.71-5.07 1.86-.1-.72 5.07 4.9-.26-.24 1.65-4.89.26-.7 5.06-1.87.1Zm34.46-.31-.77-4.75-5.99.31-2.12 4.9-2.12.11 7.6-17.19 2.72-.14 2.85 16.64-2.17.12Zm-2.25-14.54-.22.01-3.55 8.3 5.01-.27-1.24-8.04Zm15.82 11.8h-.1a5.13 5.13 0 0 1-4.21 2.54c-1.55.08-2.68-.43-3.4-1.53-.7-1.1-.9-2.69-.62-4.76.3-2.06.95-3.7 1.97-4.89a5.34 5.34 0 0 1 3.89-1.9c1.78-.1 2.96.6 3.56 2.11h.1l1.05-7.47 1.95-.1-2.52 17.94-1.96.1.3-2.04Zm-3.31.78a4.86 4.86 0 0 0 2.36-.78c.33-.24.6-.52.8-.83.23-.33.37-.71.43-1.13l.63-4.5c.06-.43.02-.79-.12-1.09-.11-.3-.3-.56-.57-.76a2.43 2.43 0 0 0-.95-.45c-.38-.1-.78-.13-1.22-.1a4.14 4.14 0 0 0-2.82 1.17 4.7 4.7 0 0 0-1.3 2.77l-.3 2.13c-.17 1.13.02 2.03.54 2.69.54.64 1.38.94 2.52.88Zm17.97-1.55-.1.01a5.13 5.13 0 0 1-4.21 2.53c-1.55.08-2.69-.43-3.4-1.53-.7-1.1-.91-2.69-.62-4.76.29-2.06.95-3.7 1.97-4.89a5.35 5.35 0 0 1 3.88-1.9c1.78-.1 2.97.6 3.56 2.12l.1-.01 1.05-7.46 1.96-.1-2.52 17.93-1.96.1.29-2.04Zm-3.32.78a4.86 4.86 0 0 0 2.37-.77c.33-.25.6-.52.8-.84.22-.33.36-.7.42-1.13l.64-4.5c.06-.43.02-.79-.12-1.08-.12-.32-.3-.57-.57-.77a2.43 2.43 0 0 0-.96-.45c-.37-.1-.78-.13-1.22-.1a4.14 4.14 0 0 0-2.81 1.17 4.7 4.7 0 0 0-1.31 2.77l-.3 2.13c-.16 1.13.02 2.03.54 2.7.54.64 1.38.93 2.52.87Zm24.89.12 2.38-16.92 2.05-.11-2.13 15.15 8.09-.43-.25 1.77-10.14.54Zm23.82-1.25c-.77.04-1.29-.13-1.56-.5s-.4-.84-.4-1.42h-.13c-.38.75-.9 1.34-1.58 1.8a5 5 0 0 1-2.53.73c-1.32.07-2.32-.21-3.01-.85s-.95-1.55-.78-2.73a3.94 3.94 0 0 1 1.65-2.75c.95-.68 2.38-1.07 4.29-1.17l2.68-.14.18-1.23c.13-.93-.04-1.6-.5-2.02-.45-.44-1.16-.64-2.12-.59a4.4 4.4 0 0 0-2.15.62c-.58.35-1.08.82-1.48 1.4l-1.19-.9a5.73 5.73 0 0 1 3.4-2.47 6.98 6.98 0 0 1 1.77-.3c1.49-.08 2.6.23 3.37.93.77.7 1.07 1.7.88 3.03l-.97 6.88 1.76-.09-.24 1.7-1.34.07Zm-5.63-1.03a5.54 5.54 0 0 0 2.56-.78c.34-.23.61-.49.81-.77.22-.3.35-.61.4-.93l.29-2.06-2.69.14a5.8 5.8 0 0 0-2.63.62c-.59.35-.92.83-1 1.44l-.08.51c-.1.65.07 1.13.48 1.44.42.3 1.05.43 1.86.39Zm10.58.77 1.76-12.5 1.95-.11-.28 2.03h.1a6.04 6.04 0 0 1 1.42-1.69 4.77 4.77 0 0 1 2.5-.83c1.32-.07 2.32.3 3 1.1.68.78.91 1.93.7 3.45l-1.13 8.02-1.95.1 1.08-7.68c.16-1.15.03-1.98-.4-2.5-.43-.54-1.13-.79-2.1-.73a4.96 4.96 0 0 0-2.24.69c-.32.2-.6.47-.82.79-.22.31-.36.67-.41 1.08l-1.22 8.67-1.96.1Zm25.77.07a3.77 3.77 0 0 1-1.98 2.87c-1.14.67-2.78 1.06-4.9 1.17-2.03.1-3.46-.08-4.28-.57-.8-.49-1.14-1.23-1-2.24.1-.67.35-1.2.76-1.6.41-.39.96-.69 1.63-.9l.05-.3a1.64 1.64 0 0 1-.74-.63c-.16-.26-.2-.6-.15-1.03.1-.64.37-1.14.84-1.48a5.74 5.74 0 0 1 1.74-.81l.02-.1a3.1 3.1 0 0 1-1.63-1.4 3.76 3.76 0 0 1-.3-2.3 5.05 5.05 0 0 1 1.75-3.17c.5-.41 1.06-.74 1.7-.98a6.72 6.72 0 0 1 2.04-.42 5.2 5.2 0 0 1 2.42.38l.03-.22c.07-.49.24-.9.52-1.23.27-.34.68-.52 1.24-.55l2.32-.12-.24 1.7-2.84.15-.12.84c.4.37.7.8.86 1.33.17.52.21 1.11.12 1.77a5.2 5.2 0 0 1-3.47 4.15 6.72 6.72 0 0 1-3.24.4 3.66 3.66 0 0 0-1.76.95c-.13.17-.22.36-.25.57-.05.37.1.6.46.72.36.1.84.12 1.44.1l2.79-.16c1.63-.08 2.77.17 3.41.74.65.56.9 1.35.76 2.37Zm-1.84.19c.07-.5-.08-.9-.44-1.18-.37-.27-1.06-.38-2.07-.32l-4.38.22c-.89.39-1.4.98-1.5 1.77-.08.55.07 1 .46 1.37.38.38 1.09.54 2.11.49l1.9-.1a6.22 6.22 0 0 0 2.75-.67c.68-.38 1.07-.9 1.17-1.58Zm-3.61-6.96a3.5 3.5 0 0 0 2.25-.79c.53-.48.85-1.09.96-1.83l.1-.7c.1-.75-.05-1.32-.47-1.73-.39-.43-1.07-.62-2.05-.57a3.5 3.5 0 0 0-2.25.8 2.86 2.86 0 0 0-.93 1.8l-.1.7c-.1.74.04 1.33.43 1.76.4.43 1.08.61 2.06.56Zm17.2 2.71h-.1c-.17.32-.38.63-.61.93a4.35 4.35 0 0 1-3.3 1.6c-1.33.06-2.33-.3-3.01-1.08-.68-.8-.92-1.96-.7-3.47l1.12-8.03 1.96-.1-1.08 7.68c-.16 1.15-.03 2 .4 2.53.43.53 1.13.76 2.1.71a4.96 4.96 0 0 0 2.24-.7c.32-.2.59-.46.8-.76.23-.31.37-.68.43-1.1l1.22-8.68 1.96-.1-1.76 12.5-1.96.1.29-2.03Zm16.15 1.18c-.76.03-1.28-.13-1.55-.5s-.41-.85-.41-1.42h-.12c-.38.75-.91 1.34-1.59 1.8a5 5 0 0 1-2.53.73c-1.32.07-2.32-.22-3-.85-.7-.64-.95-1.55-.79-2.73a3.94 3.94 0 0 1 1.65-2.76c.95-.67 2.38-1.06 4.29-1.16l2.69-.14.17-1.24c.13-.92-.03-1.6-.5-2.02-.45-.44-1.16-.63-2.12-.58a4.43 4.43 0 0 0-3.63 2.02l-1.18-.9a5.68 5.68 0 0 1 3.4-2.47 6.98 6.98 0 0 1 1.77-.3c1.48-.09 2.6.22 3.36.92.78.7 1.07 1.71.88 3.04l-.96 6.88 1.76-.1-.24 1.7-1.35.08Zm-5.63-1.03a5.56 5.56 0 0 0 2.56-.79c.34-.22.61-.48.81-.76.22-.3.36-.61.4-.94l.3-2.06-2.7.14a5.83 5.83 0 0 0-2.63.62c-.58.35-.92.84-1 1.45l-.08.51c-.09.65.07 1.13.48 1.44.43.3 1.05.43 1.86.39Zm21.7 1.6a3.77 3.77 0 0 1-1.98 2.87c-1.14.67-2.78 1.06-4.9 1.17-2.03.11-3.46-.08-4.28-.57-.8-.48-1.14-1.23-1-2.23.1-.68.35-1.21.76-1.6.41-.4.96-.7 1.63-.9l.04-.3a1.65 1.65 0 0 1-.73-.63c-.16-.27-.2-.6-.15-1.03.1-.65.37-1.14.84-1.49a5.67 5.67 0 0 1 1.74-.8l.01-.1a3.1 3.1 0 0 1-1.62-1.41 3.77 3.77 0 0 1-.3-2.3 5.04 5.04 0 0 1 1.75-3.17c.5-.4 1.06-.73 1.69-.98a6.66 6.66 0 0 1 2.05-.42 5.2 5.2 0 0 1 2.42.38l.03-.22c.07-.48.24-.9.51-1.23.28-.33.69-.51 1.24-.54l2.33-.13-.24 1.7-2.84.15-.12.85c.4.36.69.8.86 1.33a4.76 4.76 0 0 1-.5 3.54 5.2 5.2 0 0 1-2.86 2.38 6.7 6.7 0 0 1-3.23.39 3.73 3.73 0 0 0-1.76.96c-.14.16-.22.35-.25.56-.05.37.1.61.46.72.36.1.84.13 1.44.1l2.79-.15c1.63-.09 2.76.16 3.41.74.65.56.9 1.34.76 2.36Zm-1.85.2c.07-.5-.07-.9-.44-1.18-.36-.27-1.05-.38-2.06-.33l-4.38.23c-.9.38-1.4.97-1.5 1.76-.08.55.07 1.01.46 1.37.38.38 1.08.55 2.11.5l1.9-.1a6.21 6.21 0 0 0 2.75-.68c.68-.37 1.07-.9 1.16-1.58Zm-3.6-6.96a3.5 3.5 0 0 0 2.24-.8 2.9 2.9 0 0 0 .96-1.82l.1-.7c.1-.75-.05-1.33-.46-1.74-.4-.43-1.08-.62-2.05-.56a3.5 3.5 0 0 0-2.25.79 2.87 2.87 0 0 0-.93 1.8l-.1.7c-.1.75.04 1.33.43 1.76.4.43 1.08.62 2.06.57Zm14.1 5.18a5.76 5.76 0 0 1-2.4-.33 4.1 4.1 0 0 1-1.67-1.22 4.94 4.94 0 0 1-.88-2 9.39 9.39 0 0 1 .76-5.4c.4-.82.9-1.53 1.48-2.12a6.58 6.58 0 0 1 4.43-2.01 5 5 0 0 1 2.24.34c.66.27 1.19.66 1.6 1.19.41.5.7 1.12.86 1.85.15.73.17 1.54.04 2.43l-.13.92-9.33.5-.08.57c-.08.55-.06 1.06.05 1.51.11.47.3.85.59 1.18.3.32.66.56 1.1.73a4.69 4.69 0 0 0 3.86-.51 4.98 4.98 0 0 0 1.65-1.68l1.3.9a6.21 6.21 0 0 1-2.17 2.18c-.94.58-2.04.9-3.3.97Zm1.5-11.48c-.54.02-1.05.15-1.53.37-.49.21-.92.5-1.31.86a4.65 4.65 0 0 0-1.43 2.77l-.03.17 7.24-.38.03-.27c.08-.55.06-1.05-.05-1.49-.1-.44-.28-.82-.55-1.12a2.16 2.16 0 0 0-.99-.72c-.4-.16-.86-.22-1.38-.2Zm13.09 10.71a7.46 7.46 0 0 1-3.33-.47c-.88-.4-1.6-.96-2.17-1.67l1.48-1.2a5.1 5.1 0 0 0 1.78 1.34c.67.3 1.5.43 2.52.38.97-.05 1.8-.27 2.46-.64a2.23 2.23 0 0 0 1.19-1.7c.04-.32.02-.58-.08-.78a.97.97 0 0 0-.42-.51c-.2-.12-.41-.2-.67-.26a5.39 5.39 0 0 0-.8-.15l-1.94-.18c-.43-.04-.9-.1-1.4-.2a4.13 4.13 0 0 1-1.32-.46c-.39-.23-.7-.55-.93-.96-.22-.4-.28-.94-.19-1.62a3.93 3.93 0 0 1 1.84-2.87c.5-.34 1.07-.6 1.7-.78a8.65 8.65 0 0 1 4.95.03c.8.3 1.46.76 1.97 1.36l-1.44 1.25a2.69 2.69 0 0 0-.48-.5 3.87 3.87 0 0 0-1.78-.8 6.3 6.3 0 0 0-1.45-.06c-1 .05-1.78.26-2.37.63-.57.36-.9.87-.99 1.51-.04.33-.03.6.06.82.1.2.24.36.44.48s.41.21.66.28c.27.05.54.1.8.13l1.95.18c.44.04.91.1 1.4.2.5.08.93.24 1.32.48.39.22.7.53.9.94.24.4.31.94.22 1.62a4.15 4.15 0 0 1-1.88 2.96 7.63 7.63 0 0 1-4 1.22Z"/></g></g></g><rect width="481.97" height="63.23" x=".88" y=".96" stroke="#1E2939" stroke-width="2.04" rx="15.3" transform="matrix(.99863 -.05234 -.13917 .99027 300.44 196.19)"/><path fill="#0B0F19" d="m42.36 287.84 746.52-39.12-12.5 88.87-746.5 39.13z"/><path fill="#fff" d="m81.84 325.1-9.06 5.25-7.7-4.36c.2-.3.49-.57.8-.76l7.2-4.15a2.1 2.1 0 0 1 2.03-.11l6.12 3.46c.27.16.48.4.6.68Z" opacity=".25"/><path fill="#fff" d="m72.78 330.36-1.35 9.59c-.32.01-.62-.04-.9-.16l-6.16-3.5c-.29-.16-.51-.4-.65-.7a1.8 1.8 0 0 1-.13-1l1.07-7.57c.05-.36.2-.71.42-1.03l7.7 4.37Z" opacity=".5"/><path fill="#fff" d="m81.97 326.11-1.06 7.58c-.05.35-.2.7-.42 1.02a2.7 2.7 0 0 1-.85.78l-7.28 4.21c-.3.15-.62.23-.93.25l1.35-9.6 9.06-5.24c.13.3.18.65.13 1Z"/><path fill="#E5E7EB" d="m101.4 318.5 2.28-.11-1.23 8.7h.12a5.99 5.99 0 0 1 4.91-2.95c1.81-.1 3.12.5 3.94 1.79.84 1.28 1.1 3.13.75 5.54-.34 2.41-1.11 4.32-2.33 5.7a6.14 6.14 0 0 1-4.5 2.24c-2.07.1-3.46-.72-4.15-2.48h-.12l-.33 2.38-2.28.12 2.94-20.92Zm3.34 18.95a4.78 4.78 0 0 0 3.24-1.35 5.52 5.52 0 0 0 1.56-3.26l.35-2.48c.19-1.32-.03-2.36-.66-3.11-.61-.78-1.58-1.13-2.91-1.06-.51.03-1 .12-1.48.28a4.46 4.46 0 0 0-2.24 1.63c-.24.37-.4.8-.47 1.29l-.74 5.26c-.06.49-.03.92.1 1.28.17.35.4.65.7.9.31.22.68.39 1.12.5.44.1.91.14 1.43.12Zm22.22.49c-.9.05-1.5-.15-1.81-.58a2.74 2.74 0 0 1-.48-1.66h-.14a5.45 5.45 0 0 1-1.85 2.1c-.77.5-1.75.8-2.95.85-1.54.09-2.71-.25-3.51-1-.8-.73-1.1-1.8-.92-3.17a4.6 4.6 0 0 1 1.93-3.22c1.1-.78 2.78-1.24 5-1.35l3.14-.17.2-1.44c.15-1.07-.04-1.86-.57-2.36-.54-.51-1.36-.74-2.48-.68-1 .05-1.83.3-2.51.72-.68.41-1.26.95-1.73 1.63l-1.38-1.05a6.6 6.6 0 0 1 3.97-2.87c.63-.2 1.32-.32 2.06-.36 1.73-.1 3.04.27 3.92 1.09.9.8 1.25 1.99 1.03 3.53l-1.13 8.03 2.06-.1-.28 1.98-1.57.08Zm-6.57-1.2a6.47 6.47 0 0 0 1.63-.28c.51-.18.97-.4 1.36-.64.4-.26.71-.56.95-.89.25-.35.4-.71.46-1.09l.34-2.4-3.14.16c-1.37.07-2.4.31-3.07.72-.68.42-1.07.98-1.17 1.7l-.09.59c-.1.75.08 1.31.56 1.68.5.35 1.22.5 2.17.45Zm18.23.92a8.69 8.69 0 0 1-3.88-.55 6.78 6.78 0 0 1-2.53-1.94l1.73-1.42c.6.7 1.29 1.23 2.07 1.58.78.35 1.76.5 2.94.44 1.14-.06 2.1-.31 2.87-.74a2.6 2.6 0 0 0 1.39-1.98c.05-.38.02-.69-.1-.93-.1-.25-.26-.45-.48-.59a2.43 2.43 0 0 0-.78-.3c-.3-.07-.6-.13-.94-.17l-2.26-.22c-.5-.05-1.05-.12-1.64-.22a4.8 4.8 0 0 1-1.54-.54 3.12 3.12 0 0 1-1.09-1.12 3.08 3.08 0 0 1-.21-1.9 4.56 4.56 0 0 1 2.14-3.34c.58-.4 1.25-.7 2-.92.74-.22 1.55-.36 2.4-.4a7.95 7.95 0 0 1 3.36.44c.94.36 1.7.9 2.3 1.59l-1.68 1.46c-.14-.2-.33-.4-.57-.58a4.5 4.5 0 0 0-2.08-.93 7.36 7.36 0 0 0-1.68-.08c-1.16.06-2.08.3-2.76.73a2.43 2.43 0 0 0-1.16 1.77c-.05.38-.03.7.07.95.11.24.28.43.51.57.23.13.48.24.78.32.3.06.62.1.94.15l2.26.22c.52.04 1.07.12 1.64.22.57.1 1.08.29 1.53.56.46.26.81.63 1.07 1.1.27.47.35 1.1.24 1.9a4.84 4.84 0 0 1-2.19 3.45 8.89 8.89 0 0 1-4.67 1.42Zm17.19-.9c-1.07.06-2-.07-2.8-.38a4.77 4.77 0 0 1-1.96-1.42 5.77 5.77 0 0 1-1.03-2.33 10.93 10.93 0 0 1 .89-6.3 9.45 9.45 0 0 1 1.73-2.48 7.72 7.72 0 0 1 5.17-2.35c.99-.05 1.86.08 2.6.4.77.31 1.4.78 1.88 1.39.48.59.81 1.31 1 2.16.18.85.2 1.8.05 2.84l-.15 1.07-10.9.57-.09.68c-.09.64-.07 1.23.06 1.76.14.54.36 1 .69 1.37.34.38.77.66 1.3.86.53.18 1.15.25 1.83.21a5.49 5.49 0 0 0 2.66-.81 5.8 5.8 0 0 0 1.92-1.95l1.52 1.04a7.27 7.27 0 0 1-2.53 2.55 7.98 7.98 0 0 1-3.84 1.12Zm1.74-13.4c-.63.04-1.23.18-1.79.44-.56.25-1.07.59-1.53 1a5.39 5.39 0 0 0-1.67 3.23l-.03.2 8.44-.44.05-.31c.09-.64.07-1.22-.07-1.74a2.96 2.96 0 0 0-.64-1.31 2.5 2.5 0 0 0-1.15-.84c-.47-.18-1-.25-1.61-.22Zm7.63 17.32.3-2.1 13.68-.71-.3 2.1-13.68.7Zm17.6-5.67 2.05-14.59 2.11-.1-.24 1.69h.12c.3-.59.7-1.08 1.17-1.5a3.08 3.08 0 0 1 1.94-.7c.85-.04 1.46.15 1.81.56.36.4.54.92.54 1.6h.09c.36-.68.82-1.25 1.37-1.7a3.55 3.55 0 0 1 2.15-.76c1.2-.07 1.93.3 2.22 1.11.3.81.34 1.99.12 3.53l-1.42 10.13-2.11.1 1.37-9.75c.18-1.24.16-2.1-.04-2.55-.18-.48-.6-.7-1.3-.66-.6.03-1.12.25-1.56.67-.43.4-.7 1-.81 1.78l-1.51 10.72-2.11.11 1.37-9.75c.18-1.25.16-2.1-.04-2.56-.17-.47-.6-.7-1.26-.66-.61.03-1.14.25-1.6.67-.43.4-.7 1-.81 1.79l-1.51 10.71-2.11.11Zm24.07-.92a6.37 6.37 0 0 1-2.72-.4 4.6 4.6 0 0 1-1.9-1.4 5.73 5.73 0 0 1-.97-2.34 11.41 11.41 0 0 1 .89-6.3c.43-.97.98-1.8 1.64-2.48a7.72 7.72 0 0 1 2.33-1.67c.89-.4 1.84-.63 2.87-.68a6.18 6.18 0 0 1 2.7.4c.78.3 1.4.79 1.88 1.44.5.63.84 1.4 1 2.33a11.51 11.51 0 0 1-.89 6.3 8.9 8.9 0 0 1-1.67 2.48 7.65 7.65 0 0 1-5.17 2.32Zm.27-1.95a5.09 5.09 0 0 0 3.24-1.3 5.67 5.67 0 0 0 1.66-3.56l.3-2.1c.22-1.58 0-2.73-.68-3.44-.67-.71-1.65-1.04-2.92-.97a5.1 5.1 0 0 0-3.24 1.3 5.67 5.67 0 0 0-1.66 3.56l-.3 2.1c-.22 1.58 0 2.72.68 3.44.67.71 1.65 1.03 2.92.97Zm20.77-1.85h-.11a6 6 0 0 1-4.92 2.96c-1.8.1-3.13-.5-3.97-1.79-.81-1.28-1.05-3.13-.72-5.54.34-2.42 1.11-4.32 2.3-5.71a6.23 6.23 0 0 1 4.54-2.23c2.07-.1 3.45.72 4.15 2.48l.11-.01 1.23-8.7 2.28-.13-2.94 20.93-2.28.12.33-2.38Zm-3.86.9a5.69 5.69 0 0 0 2.76-.9c.38-.28.69-.6.93-.97.26-.39.42-.83.5-1.32l.73-5.26c.07-.49.03-.9-.13-1.25a1.92 1.92 0 0 0-.67-.9c-.3-.24-.68-.42-1.12-.53-.43-.1-.9-.15-1.42-.12a4.83 4.83 0 0 0-3.28 1.38 5.47 5.47 0 0 0-1.53 3.22l-.35 2.5c-.18 1.31.03 2.36.64 3.13.63.75 1.6 1.1 2.94 1.02Zm17.27 1.1a6.7 6.7 0 0 1-2.8-.4 4.77 4.77 0 0 1-1.96-1.4 5.78 5.78 0 0 1-1.03-2.34 10.94 10.94 0 0 1 .89-6.3 9.42 9.42 0 0 1 1.73-2.48 7.7 7.7 0 0 1 5.17-2.35c1-.05 1.86.08 2.6.4.78.31 1.4.78 1.88 1.39.48.59.81 1.31 1 2.16.18.85.2 1.8.05 2.83l-.15 1.08-10.9.57-.09.68c-.09.64-.07 1.23.07 1.76.13.54.36 1 .68 1.37.34.38.78.66 1.3.86.54.18 1.15.25 1.83.21a5.49 5.49 0 0 0 2.67-.81 5.82 5.82 0 0 0 1.91-1.95l1.53 1.04a7.25 7.25 0 0 1-2.54 2.54 7.99 7.99 0 0 1-3.84 1.13Zm1.74-13.4c-.63.03-1.22.17-1.79.43-.56.25-1.07.59-1.53 1a5.39 5.39 0 0 0-1.67 3.23l-.02.2 8.44-.44.04-.31c.1-.64.07-1.22-.07-1.74a2.97 2.97 0 0 0-.63-1.31 2.52 2.52 0 0 0-1.16-.84c-.46-.18-1-.25-1.6-.22Zm9.15 10.58 5.13-.27 2.4-17.08-5.13.27.27-1.93 7.41-.38-2.67 19 5.13-.27-.27 1.92-12.54.66.27-1.92Z"/><g clip-path="url(#j)"><rect width="449.75" height="65.27" fill="#101828" rx="16.32" transform="matrix(.99863 -.05234 -.13917 .99027 321.75 285.23)"/><g clip-path="url(#k)"><g clip-path="url(#l)"><path fill="#99A1AF" d="m342.98 323.24.71-5.07-4.89.26.24-1.65 4.88-.26.72-5.06 1.85-.1-.7 5.07 4.88-.26-.23 1.65-4.89.25-.71 5.07-1.86.1Zm34.45-.32-.76-4.74-5.99.31-2.12 4.9-2.13.11 7.61-17.2 2.72-.13 2.85 16.64-2.18.11Zm-2.25-14.53-.22.01-3.54 8.3 5.01-.27-1.25-8.04Zm15.83 11.8h-.1a5.13 5.13 0 0 1-4.21 2.54c-1.55.08-2.69-.43-3.4-1.53-.7-1.1-.91-2.69-.62-4.76.29-2.07.95-3.7 1.97-4.89a5.35 5.35 0 0 1 3.89-1.91c1.77-.1 2.96.61 3.56 2.12h.1l1.04-7.47 1.96-.1-2.52 17.94-1.96.1.29-2.04Zm-3.31.78a4.85 4.85 0 0 0 2.36-.78c.33-.24.6-.52.8-.83.22-.34.36-.71.42-1.13l.64-4.51c.06-.42.02-.78-.12-1.08-.12-.31-.3-.57-.57-.76a2.42 2.42 0 0 0-.96-.46c-.37-.09-.78-.12-1.22-.1a4.14 4.14 0 0 0-2.8 1.18 4.7 4.7 0 0 0-1.32 2.76l-.3 2.14c-.16 1.13.02 2.03.55 2.69.53.64 1.38.94 2.52.88Zm17.96-1.55h-.1a5.13 5.13 0 0 1-4.2 2.54c-1.56.08-2.69-.43-3.4-1.53s-.92-2.69-.63-4.76c.3-2.06.95-3.7 1.98-4.89a5.34 5.34 0 0 1 3.88-1.91c1.78-.1 2.96.62 3.56 2.12h.1l1.05-7.47 1.95-.1-2.52 17.94-1.95.1.28-2.04Zm-3.3.78a4.85 4.85 0 0 0 2.36-.77c.32-.25.59-.53.8-.84.22-.33.36-.71.42-1.13l.63-4.5c.06-.43.02-.79-.11-1.08-.12-.32-.31-.57-.57-.77a2.41 2.41 0 0 0-.96-.45c-.38-.1-.78-.13-1.22-.1a4.15 4.15 0 0 0-2.81 1.17 4.7 4.7 0 0 0-1.31 2.77l-.3 2.13c-.16 1.13.02 2.03.54 2.69.54.64 1.38.94 2.52.88Zm26.47-16.76 5.8-.3c1.46-.08 2.55.25 3.27 1 .72.75.99 1.79.8 3.11a4.25 4.25 0 0 1-1.1 2.44 5.1 5.1 0 0 1-2.07 1.33l-.01.08c.93.17 1.66.56 2.19 1.16.53.58.71 1.46.55 2.64a6.09 6.09 0 0 1-3.42 4.65c-.59.28-1.21.43-1.86.46l-6.53.35 2.38-16.92Zm3.79 14.83c.94-.04 1.71-.3 2.3-.74.6-.45.96-1.11 1.09-1.98l.14-1c.12-.85-.06-1.48-.54-1.87-.48-.4-1.19-.59-2.13-.54l-3.87.2-.86 6.14 3.87-.2Zm.75-7.78a3.83 3.83 0 0 0 2.1-.67c.55-.4.88-1 .99-1.78l.13-.94c.1-.78-.05-1.35-.49-1.71-.43-.36-1.08-.52-1.95-.48l-3.52.19-.78 5.57 3.52-.18Zm17.69 8.57c-.77.05-1.29-.12-1.56-.5-.27-.36-.4-.84-.4-1.41h-.13c-.38.75-.9 1.34-1.59 1.8a5 5 0 0 1-2.52.73c-1.32.07-2.33-.22-3.01-.85-.7-.64-.95-1.55-.79-2.73a3.94 3.94 0 0 1 1.65-2.76c.96-.67 2.38-1.06 4.3-1.16l2.68-.14.17-1.24c.13-.92-.03-1.6-.49-2.02-.45-.44-1.16-.63-2.13-.58-.84.04-1.56.25-2.14.62-.59.35-1.08.81-1.49 1.4l-1.18-.9a5.68 5.68 0 0 1 3.4-2.47 6.98 6.98 0 0 1 1.77-.3c1.48-.09 2.6.22 3.36.92.78.7 1.07 1.71.89 3.04l-.97 6.88 1.76-.1-.24 1.7-1.34.07Zm-5.63-1.02c.5-.03.96-.11 1.39-.24.44-.16.83-.34 1.17-.55.33-.22.6-.48.8-.76.23-.3.36-.61.4-.94l.3-2.06-2.7.14a5.81 5.81 0 0 0-2.63.62c-.58.36-.92.84-1 1.45l-.07.51c-.1.65.06 1.13.47 1.44.43.3 1.05.43 1.87.39Zm15.62.79a7.45 7.45 0 0 1-3.33-.47c-.88-.4-1.6-.96-2.17-1.67l1.48-1.21c.52.6 1.1 1.05 1.78 1.35.67.3 1.5.43 2.52.37.98-.05 1.8-.26 2.47-.63a2.23 2.23 0 0 0 1.18-1.7c.04-.32.02-.59-.08-.79a.98.98 0 0 0-.42-.5c-.2-.13-.41-.2-.67-.26a5.52 5.52 0 0 0-.8-.15l-1.94-.19c-.43-.04-.9-.1-1.4-.19a4.1 4.1 0 0 1-1.32-.46c-.39-.23-.7-.56-.93-.96-.22-.4-.28-.95-.19-1.63a3.93 3.93 0 0 1 1.84-2.86c.5-.35 1.07-.6 1.7-.79a8.7 8.7 0 0 1 2.07-.35c1.14-.06 2.1.07 2.88.38.8.31 1.46.77 1.97 1.37l-1.44 1.25a2.69 2.69 0 0 0-.48-.5 3.8 3.8 0 0 0-1.78-.8 6.3 6.3 0 0 0-1.45-.07c-1 .05-1.78.26-2.37.63-.57.37-.9.88-.99 1.52-.04.32-.03.6.06.82.1.2.24.36.44.48s.41.2.66.28l.81.12 1.94.19c.45.04.91.1 1.4.19.5.09.93.25 1.32.48.39.23.7.54.91.94.23.4.3.95.2 1.63a4.15 4.15 0 0 1-1.86 2.96 7.63 7.63 0 0 1-4 1.22Zm14.73-.77a5.75 5.75 0 0 1-2.4-.33 4.08 4.08 0 0 1-1.68-1.22 4.94 4.94 0 0 1-.88-2 9.37 9.37 0 0 1 .76-5.4c.4-.82.9-1.53 1.49-2.12a6.62 6.62 0 0 1 4.43-2.01c.85-.05 1.59.06 2.23.34.66.27 1.2.66 1.6 1.19.42.5.7 1.12.86 1.85.16.73.17 1.54.05 2.43l-.13.92-9.34.5-.08.57c-.08.55-.06 1.06.05 1.52.12.45.31.85.59 1.17.3.32.66.56 1.11.73a4.71 4.71 0 0 0 5.5-2.19l1.3.9a6.24 6.24 0 0 1-2.17 2.18c-.94.58-2.03.9-3.29.97Zm1.5-11.48c-.54.02-1.06.15-1.54.37-.48.21-.92.5-1.3.86a4.6 4.6 0 0 0-1.43 2.77l-.04.17 7.24-.38.04-.27c.07-.55.06-1.05-.06-1.49-.1-.44-.28-.82-.55-1.12a2.16 2.16 0 0 0-.99-.72 3.3 3.3 0 0 0-1.38-.2Zm32.61.98.76-5.36-.2.01-4.81 8.9-2.38-8.52-.2.01-.74 5.36-1.2 8.48-1.88.1 2.38-16.92 2.64-.14 1.96 7.31h.14l4.06-7.63 2.54-.13-2.38 16.92-1.88.1 1.2-8.49Zm9.64 8.2a5.45 5.45 0 0 1-2.33-.33 3.94 3.94 0 0 1-1.63-1.21 4.9 4.9 0 0 1-.83-2 9.82 9.82 0 0 1 .76-5.4c.37-.83.84-1.54 1.41-2.13a6.62 6.62 0 0 1 4.46-2.01 5.3 5.3 0 0 1 2.3.33c.68.27 1.22.69 1.63 1.24.42.54.7 1.2.85 2a9.9 9.9 0 0 1-.76 5.4c-.37.81-.85 1.52-1.43 2.13a6.41 6.41 0 0 1-4.43 1.99Zm.23-1.67a4.37 4.37 0 0 0 2.78-1.1 4.86 4.86 0 0 0 1.42-3.06l.26-1.8c.19-1.35 0-2.34-.58-2.95-.58-.61-1.42-.89-2.5-.83-1.1.06-2.02.43-2.78 1.1a4.86 4.86 0 0 0-1.43 3.06l-.25 1.8c-.2 1.36 0 2.34.58 2.95.58.61 1.41.89 2.5.83Zm17.8-1.58h-.1a5.13 5.13 0 0 1-4.2 2.54c-1.55.08-2.69-.43-3.4-1.53-.7-1.1-.91-2.7-.62-4.76.29-2.07.95-3.7 1.97-4.9a5.34 5.34 0 0 1 3.88-1.9c1.78-.1 2.97.61 3.56 2.12h.1l1.05-7.47 1.96-.1-2.52 17.93-1.96.1.29-2.03Zm-3.3.78a4.85 4.85 0 0 0 2.36-.78c.33-.24.59-.52.8-.83.22-.34.36-.71.42-1.13l.64-4.51c.05-.42.02-.78-.12-1.08-.12-.31-.3-.57-.57-.76a2.42 2.42 0 0 0-.96-.46c-.37-.09-.78-.12-1.22-.1a4.14 4.14 0 0 0-2.81 1.18 4.7 4.7 0 0 0-1.31 2.76l-.3 2.14c-.16 1.13.02 2.02.54 2.69.54.64 1.38.94 2.52.88Zm14.8.93a5.78 5.78 0 0 1-2.4-.33 4.1 4.1 0 0 1-1.68-1.21 4.95 4.95 0 0 1-.88-2 9.39 9.39 0 0 1 .76-5.4c.4-.83.9-1.54 1.49-2.13a6.62 6.62 0 0 1 4.43-2.01 5 5 0 0 1 2.23.34c.66.27 1.2.66 1.6 1.19.42.5.7 1.12.86 1.85.15.73.17 1.54.05 2.43l-.13.92-9.34.5-.08.57c-.08.55-.06 1.06.05 1.51.12.46.31.86.59 1.18.3.32.66.56 1.1.73a4.69 4.69 0 0 0 3.86-.51 4.98 4.98 0 0 0 1.65-1.68l1.3.9a6.23 6.23 0 0 1-2.17 2.18c-.94.58-2.04.9-3.29.97Zm1.5-11.49c-.55.03-1.06.16-1.54.37-.48.22-.92.51-1.31.87a4.6 4.6 0 0 0-1.43 2.77l-.03.17 7.24-.38.04-.27a3.8 3.8 0 0 0-.06-1.49c-.1-.44-.28-.82-.55-1.12a2.15 2.15 0 0 0-.99-.72c-.4-.16-.86-.22-1.38-.2Zm7.83 9.07 4.4-.23 2.06-14.64-4.4.23.23-1.64 6.36-.34-2.3 16.3 4.4-.24-.23 1.65-10.75.56.23-1.65Z"/></g></g></g><rect width="447.71" height="63.23" x=".88" y=".96" stroke="#1E2939" stroke-width="2.04" rx="15.3" transform="matrix(.99863 -.05234 -.13917 .99027 321.88 285.28)"/><path fill="#0B0F19" d="m29.59 378.73 746.52-39.12-12.5 88.88L17.1 467.6z"/><path fill="#fff" d="M62.39 427.87a5.92 5.92 0 0 1-3.65-.95 5.17 5.17 0 0 1-2.1-2.92 6.6 6.6 0 0 1 .17-3.9 8.66 8.66 0 0 1 2.36-3.58c1.1-1 2.4-1.71 3.77-2.04a6.6 6.6 0 0 1 3.9.18 5.17 5.17 0 0 1 2.73 2.34c.6 1.07.81 2.37.62 3.71a8.38 8.38 0 0 1-2.68 4.91 8.37 8.37 0 0 1-5.12 2.25Z" opacity=".5"/><path fill="#fff" d="M55.72 428.22a5.93 5.93 0 0 1-3.65-.95 5.17 5.17 0 0 1-2.1-2.92 6.6 6.6 0 0 1 .17-3.9 8.66 8.66 0 0 1 2.36-3.58c1.1-1 2.4-1.71 3.77-2.04a6.6 6.6 0 0 1 3.9.18 5.18 5.18 0 0 1 2.73 2.34c.6 1.08.82 2.37.63 3.71a8.38 8.38 0 0 1-2.69 4.91 8.38 8.38 0 0 1-5.12 2.25Z"/><path fill="#E5E7EB" d="m87.73 415.73 2.28-.12-.33 2.38h.11a6 6 0 0 1 4.92-2.96c1.8-.1 3.12.5 3.94 1.79.84 1.28 1.09 3.13.75 5.54-.34 2.42-1.12 4.32-2.33 5.71a6.14 6.14 0 0 1-4.5 2.23c-2.08.1-3.46-.72-4.16-2.48h-.11l-1.13 8.04-2.28.12 2.84-20.25Zm4.23 12.6a4.77 4.77 0 0 0 3.25-1.34 5.52 5.52 0 0 0 1.56-3.25l.35-2.5c.19-1.31-.04-2.35-.67-3.1-.6-.77-1.57-1.13-2.9-1.06-.52.03-1.01.12-1.49.28a4.47 4.47 0 0 0-2.24 1.63c-.24.37-.4.8-.46 1.29l-.74 5.26c-.07.49-.04.92.1 1.28.16.35.4.65.7.9.3.22.68.39 1.12.5.43.1.9.14 1.42.12Zm20.08-17.07c-.66.03-1.1-.07-1.34-.32a1.25 1.25 0 0 1-.25-1.03l.06-.45c.06-.42.24-.76.55-1.04.3-.3.79-.46 1.45-.5.67-.03 1.11.08 1.34.35.23.25.31.59.26 1l-.07.45a1.8 1.8 0 0 1-.54 1.07c-.3.28-.8.43-1.46.47Zm-8.68 16.23 5.3-.28 1.52-10.75-5.3.28.27-1.92 7.58-.4-1.78 12.67 4.96-.26-.27 1.92-12.55.66.27-1.92Zm18.57-13.55 2.28-.12-.33 2.38.11-.01a5.99 5.99 0 0 1 4.92-2.95c1.8-.1 3.12.5 3.94 1.78.83 1.29 1.08 3.14.75 5.55-.34 2.41-1.12 4.32-2.34 5.7a6.14 6.14 0 0 1-4.5 2.24c-2.07.1-3.45-.72-4.15-2.48h-.11l-1.13 8.04-2.29.12 2.85-20.25Zm4.23 12.6a4.77 4.77 0 0 0 3.25-1.34 5.52 5.52 0 0 0 1.56-3.26l.35-2.49c.18-1.31-.04-2.35-.67-3.1-.6-.78-1.58-1.13-2.9-1.06-.52.03-1.02.12-1.5.28a4.46 4.46 0 0 0-2.23 1.63c-.24.37-.4.8-.46 1.29l-.74 5.26c-.07.49-.04.92.1 1.28.16.35.39.65.7.9.3.22.68.39 1.11.5.44.1.92.14 1.43.12Zm16.87 1.11c-1.06.06-2-.07-2.8-.38a4.77 4.77 0 0 1-1.95-1.41 5.77 5.77 0 0 1-1.03-2.34 10.97 10.97 0 0 1 .89-6.3 9.45 9.45 0 0 1 1.73-2.48 7.7 7.7 0 0 1 5.17-2.35c.99-.05 1.85.08 2.6.4.77.31 1.4.78 1.87 1.39.49.6.82 1.31 1 2.16.18.86.2 1.8.06 2.84l-.16 1.07-10.89.57-.1.68c-.08.64-.06 1.23.07 1.76.13.54.36 1 .68 1.37.35.38.78.66 1.3.86.54.18 1.15.25 1.84.21a5.49 5.49 0 0 0 2.66-.8 5.82 5.82 0 0 0 1.91-1.96l1.53 1.04a7.26 7.26 0 0 1-2.54 2.55 7.99 7.99 0 0 1-3.84 1.13Zm1.74-13.4c-.62.04-1.22.19-1.78.44-.57.25-1.08.59-1.53 1a5.39 5.39 0 0 0-1.67 3.23l-.03.2 8.44-.44.04-.3c.1-.65.07-1.23-.06-1.75a2.97 2.97 0 0 0-1.8-2.15c-.46-.18-1-.25-1.6-.22Zm9.15 10.59 5.13-.27 2.4-17.08-5.13.27.27-1.92 7.41-.4-2.67 19.01 5.14-.27-.27 1.92-12.55.66.27-1.92Zm26.52-17.17c-.67.04-1.12-.07-1.34-.32a1.25 1.25 0 0 1-.26-1.02l.07-.46c.06-.41.24-.76.54-1.04.3-.3.8-.46 1.46-.5.66-.03 1.1.09 1.33.36.23.25.32.58.26 1l-.06.45a1.8 1.8 0 0 1-.55 1.06c-.3.28-.79.44-1.45.47Zm-8.68 16.23 5.3-.27 1.51-10.75-5.3.28.27-1.92 7.59-.4-1.78 12.67 4.96-.26-.27 1.92-12.55.66.27-1.93Zm16.6 1.04 2.05-14.59 2.28-.12-.33 2.38h.11a6.95 6.95 0 0 1 1.66-1.98 5.6 5.6 0 0 1 2.91-.96c1.55-.08 2.71.34 3.5 1.27.8.92 1.08 2.26.83 4.03l-1.32 9.36-2.28.12 1.26-8.96c.19-1.34.03-2.32-.47-2.93-.5-.63-1.31-.91-2.45-.85a5.79 5.79 0 0 0-2.6.8c-.38.25-.7.56-.96.93s-.42.79-.49 1.26l-1.42 10.12-2.28.12Zm23.07-.87c-1.07.06-2-.07-2.8-.39a4.77 4.77 0 0 1-1.96-1.4 5.77 5.77 0 0 1-1.03-2.34 11 11 0 0 1 .89-6.3 9.47 9.47 0 0 1 1.73-2.48 7.72 7.72 0 0 1 5.17-2.35c.99-.05 1.86.08 2.6.4.77.31 1.4.77 1.88 1.39.48.59.81 1.3 1 2.16.18.85.2 1.8.05 2.83l-.15 1.08-10.9.57-.09.68c-.09.64-.07 1.22.06 1.76s.36 1 .69 1.37c.34.37.77.66 1.3.86.53.17 1.15.24 1.83.2a5.47 5.47 0 0 0 2.66-.8 5.82 5.82 0 0 0 1.92-1.96l1.52 1.05a7.28 7.28 0 0 1-2.53 2.54 8 8 0 0 1-3.84 1.13Zm1.74-13.4c-.63.04-1.22.18-1.79.44-.56.25-1.07.58-1.53 1a5.36 5.36 0 0 0-1.67 3.23l-.03.2 8.44-.44.05-.31c.09-.64.07-1.22-.07-1.74a2.97 2.97 0 0 0-.63-1.31 2.51 2.51 0 0 0-1.16-.84c-.47-.18-1-.26-1.61-.22ZM220.8 428l.3-2.1 13.68-.71-.3 2.09-13.68.72Zm25.33-6.07c-1.12.05-1.9-.21-2.35-.8-.43-.6-.57-1.4-.43-2.37l1.3-9.33-4.9.25.27-1.92 3.65-.19c.5-.03.85-.14 1.07-.34.24-.22.4-.57.46-1.06l.54-3.82 2.2-.11-.73 5.14 6.7-.35-.27 1.93-6.7.35-1.51 10.74 6.7-.35-.27 1.93-5.73.3Zm21.94-1.16c-.89.05-1.5-.14-1.81-.57a2.74 2.74 0 0 1-.47-1.66h-.15a5.45 5.45 0 0 1-1.85 2.1c-.77.5-1.75.79-2.95.85-1.54.08-2.71-.25-3.51-1-.8-.74-1.1-1.8-.91-3.17a4.6 4.6 0 0 1 1.92-3.22c1.11-.79 2.78-1.24 5-1.36l3.14-.16.2-1.44c.15-1.08-.04-1.86-.57-2.36-.53-.51-1.36-.74-2.48-.68-.99.05-1.82.29-2.5.72-.69.4-1.26.95-1.74 1.63l-1.38-1.05a6.6 6.6 0 0 1 3.97-2.87 8.2 8.2 0 0 1 2.06-.36c1.73-.1 3.04.27 3.92 1.08.91.81 1.25 2 1.04 3.54l-1.13 8.03 2.05-.1-.28 1.97-1.56.08Zm-6.56-1.2a6.47 6.47 0 0 0 1.62-.28c.52-.17.97-.38 1.36-.63.4-.26.71-.56.95-.9.26-.34.41-.7.46-1.08l.34-2.4-3.13.16c-1.37.07-2.4.31-3.08.72-.68.41-1.07.98-1.17 1.7l-.08.58c-.1.76.08 1.32.55 1.69.5.35 1.23.5 2.18.44Zm25.31 1.88a4.4 4.4 0 0 1-2.31 3.35c-1.34.78-3.24 1.23-5.71 1.36-2.38.13-4.05-.1-5-.66-.94-.57-1.33-1.44-1.17-2.6.12-.8.41-1.42.89-1.88.48-.45 1.11-.8 1.9-1.05l.05-.34a1.91 1.91 0 0 1-.86-.74 1.8 1.8 0 0 1-.17-1.2c.1-.75.43-1.33.98-1.74.57-.4 1.24-.71 2.03-.94l.02-.12a3.61 3.61 0 0 1-1.9-1.64 4.38 4.38 0 0 1-.36-2.67 5.86 5.86 0 0 1 2.05-3.7 6.94 6.94 0 0 1 1.98-1.15 7.8 7.8 0 0 1 2.38-.49c1.1-.05 2.05.1 2.83.45l.04-.26c.08-.56.27-1.04.6-1.43.31-.4.8-.6 1.44-.64l2.71-.14-.28 1.98-3.3.17-.14.99c.47.42.8.94 1 1.55.2.6.24 1.3.13 2.07a6.09 6.09 0 0 1-4.05 4.84 7.8 7.8 0 0 1-3.77.45 4.4 4.4 0 0 0-1.47.61 2.4 2.4 0 0 0-.59.5c-.15.2-.25.43-.29.67-.06.43.12.71.54.84.42.11.98.15 1.68.11l3.25-.17c1.9-.1 3.23.19 3.99.86.75.65 1.05 1.57.88 2.76Zm-2.15.22c.08-.58-.1-1.04-.52-1.37-.43-.32-1.23-.44-2.4-.38l-5.11.27c-1.05.44-1.63 1.13-1.76 2.05-.1.64.09 1.18.54 1.6.44.45 1.27.64 2.46.57l2.23-.11a7.27 7.27 0 0 0 3.2-.79 2.43 2.43 0 0 0 1.36-1.84Zm-4.21-8.11a4.08 4.08 0 0 0 2.62-.93 3.4 3.4 0 0 0 1.12-2.13l.11-.82c.13-.87-.05-1.54-.53-2.02-.46-.5-1.26-.72-2.4-.66a4.08 4.08 0 0 0-2.62.92c-.6.54-.97 1.24-1.09 2.1l-.12.83c-.12.86.05 1.55.5 2.05.47.5 1.27.72 2.4.66Z"/><rect width="413.44" height="63.23" x=".88" y=".96" fill="#101828" rx="15.3" transform="matrix(.99863 -.05234 -.13917 .99027 343.33 374.38)"/><rect width="413.44" height="63.23" x=".88" y=".96" stroke="#1E2939" stroke-width="2.04" rx="15.3" transform="matrix(.99863 -.05234 -.13917 .99027 343.33 374.38)"/><path stroke="#99A1AF" stroke-linecap="round" stroke-linejoin="round" stroke-width="2.75" d="m710.08 383.57 6.3 6.89 8.36-7.66"/><g clip-path="url(#m)"><path fill="#99A1AF" d="m367.53 413.67-.76-4.75-6 .31-2.11 4.9-2.13.11 7.61-17.2 2.71-.13 2.86 16.64-2.18.12Zm-2.25-14.54-.22.01-3.54 8.3 5-.27-1.24-8.04Zm15.75 11.8-.1.01a6.8 6.8 0 0 1-.61.92 4.32 4.32 0 0 1-3.3 1.6c-1.33.07-2.33-.3-3.01-1.07-.68-.8-.91-1.96-.7-3.48l1.13-8.02 1.95-.1-1.08 7.68c-.16 1.15-.03 1.99.4 2.53.43.52 1.13.76 2.1.7a4.96 4.96 0 0 0 2.24-.69c.32-.2.6-.46.81-.76.22-.32.37-.69.42-1.1l1.22-8.68 1.96-.1-1.76 12.5-1.95.1.28-2.03Zm12 1.4c-.96.05-1.63-.18-2.01-.69-.37-.51-.5-1.19-.37-2.03l1.12-8-4.2.23.23-1.65 3.13-.17c.42-.02.72-.11.91-.28.2-.2.34-.5.4-.92l.45-3.27 1.89-.1-.62 4.42 5.74-.3-.23 1.64-5.74.3-1.3 9.21 5.75-.3-.24 1.65-4.9.26Zm14-.45a5.45 5.45 0 0 1-2.33-.33 3.94 3.94 0 0 1-1.62-1.22 4.91 4.91 0 0 1-.84-2 9.77 9.77 0 0 1 .76-5.4c.38-.82.85-1.53 1.42-2.12a6.62 6.62 0 0 1 4.45-2.01 5.3 5.3 0 0 1 2.31.33c.67.27 1.21.68 1.62 1.24.43.54.71 1.2.86 2a9.89 9.89 0 0 1-.76 5.4c-.37.81-.85 1.52-1.44 2.12a6.56 6.56 0 0 1-4.43 1.99Zm.24-1.67a4.37 4.37 0 0 0 2.78-1.1 4.86 4.86 0 0 0 1.42-3.06l.25-1.8c.2-1.36 0-2.34-.58-2.95-.57-.61-1.4-.89-2.5-.83-1.1.05-2.02.42-2.78 1.1a4.86 4.86 0 0 0-1.42 3.06l-.25 1.8c-.2 1.35 0 2.34.58 2.95.57.61 1.4.89 2.5.83Zm11.81-5.55.29-2.04 7.08-.37-.28 2.04-7.09.37Zm20.65 3.2h-.1a5.13 5.13 0 0 1-4.21 2.54c-1.55.08-2.68-.43-3.4-1.53-.7-1.1-.91-2.7-.62-4.76.3-2.07.95-3.7 1.97-4.9a5.34 5.34 0 0 1 3.89-1.9c1.77-.1 2.96.61 3.56 2.12h.1l1.04-7.47 1.96-.1-2.52 17.93-1.96.1.29-2.03Zm-3.31.77a4.86 4.86 0 0 0 2.36-.77c.33-.24.6-.52.8-.83.22-.34.37-.71.43-1.13l.63-4.51c.06-.42.02-.78-.12-1.08-.12-.31-.3-.57-.57-.76a2.42 2.42 0 0 0-.95-.46c-.38-.09-.79-.13-1.23-.1a4.15 4.15 0 0 0-2.8 1.18 4.7 4.7 0 0 0-1.32 2.76l-.3 2.14c-.16 1.13.02 2.02.55 2.69.54.64 1.38.94 2.52.88Zm14.8.94a5.75 5.75 0 0 1-2.4-.33 4.08 4.08 0 0 1-1.68-1.22 4.94 4.94 0 0 1-.88-2 9.38 9.38 0 0 1 .76-5.4c.4-.82.9-1.53 1.49-2.12a6.62 6.62 0 0 1 4.43-2.01 5 5 0 0 1 2.23.34c.66.27 1.2.66 1.6 1.19.42.5.7 1.12.86 1.85.16.73.17 1.54.05 2.43l-.13.92-9.34.49-.08.58c-.08.55-.06 1.06.05 1.51.12.46.31.85.6 1.18.29.32.66.56 1.1.73a4.7 4.7 0 0 0 5.5-2.19l1.3.9a6.23 6.23 0 0 1-2.17 2.18c-.94.58-2.03.9-3.29.97Zm1.5-11.49c-.54.03-1.05.16-1.54.37a4.9 4.9 0 0 0-2.26 2.12c-.24.46-.4.97-.48 1.52l-.02.17 7.23-.38.04-.27c.08-.55.06-1.05-.06-1.49a2.55 2.55 0 0 0-1.53-1.84c-.4-.16-.86-.22-1.39-.2Zm13.59 10.4c-.96.06-1.63-.17-2.01-.68-.37-.51-.5-1.19-.37-2.03l1.12-8-4.2.23.23-1.65 3.13-.17c.42-.02.72-.12.91-.29.2-.18.34-.49.4-.9l.46-3.28 1.88-.1-.62 4.41 5.74-.3-.23 1.65-5.75.3-1.29 9.21 5.75-.3-.24 1.65-4.91.26Zm14.22-.45a5.75 5.75 0 0 1-2.4-.33 4.09 4.09 0 0 1-1.67-1.21 4.95 4.95 0 0 1-.89-2 9.4 9.4 0 0 1 .76-5.4c.4-.83.9-1.54 1.49-2.13a6.6 6.6 0 0 1 4.43-2.01c.85-.05 1.6.07 2.23.34.66.27 1.2.67 1.6 1.19.42.5.7 1.13.86 1.86.16.73.18 1.54.05 2.42l-.13.93-9.34.48-.08.59c-.07.55-.06 1.05.06 1.5.11.47.3.86.58 1.18.3.32.67.57 1.11.74.47.15 1 .21 1.58.18a4.71 4.71 0 0 0 3.92-2.37l1.3.9a6.24 6.24 0 0 1-2.17 2.18c-.94.57-2.03.9-3.29.96Zm1.5-11.48c-.54.03-1.05.15-1.53.37-.49.22-.93.5-1.32.86a4.6 4.6 0 0 0-1.43 2.77l-.02.17 7.23-.38.04-.27a3.8 3.8 0 0 0-.06-1.48 2.56 2.56 0 0 0-1.53-1.85c-.4-.15-.86-.22-1.38-.2Zm13.38 10.7a5.6 5.6 0 0 1-2.38-.33 3.95 3.95 0 0 1-1.6-1.24c-.4-.54-.68-1.2-.83-2a8.9 8.9 0 0 1 .01-2.67c.14-.99.4-1.9.77-2.71.37-.82.85-1.53 1.41-2.12a6.32 6.32 0 0 1 4.44-2.01 4.44 4.44 0 0 1 2.86.64c.7.5 1.16 1.16 1.4 2l-1.68.9a2.22 2.22 0 0 0-.94-1.44 2.95 2.95 0 0 0-1.88-.43 4.4 4.4 0 0 0-2.81 1.2c-.36.36-.66.77-.88 1.25-.22.48-.36 1-.44 1.54l-.3 2.13a4.86 4.86 0 0 0 0 1.52c.1.46.28.85.55 1.17.26.33.6.57 1.03.74.43.16.94.22 1.53.19a4.16 4.16 0 0 0 2.18-.7c.61-.41 1.13-.97 1.55-1.66l1.26.87a6.53 6.53 0 0 1-2.06 2.18c-.85.59-1.92.92-3.19.98Zm14.87-1.07c-.96.05-1.63-.18-2.02-.69-.36-.5-.49-1.18-.37-2.02l1.13-8-4.2.22.23-1.65 3.12-.16c.43-.02.73-.12.92-.29.2-.19.33-.49.4-.91l.45-3.27 1.88-.1-.62 4.41 5.75-.3-.23 1.65-5.75.3-1.3 9.2 5.75-.3-.23 1.66-4.91.25Zm14.22-.45a5.76 5.76 0 0 1-2.4-.33 4.09 4.09 0 0 1-1.68-1.22 4.95 4.95 0 0 1-.88-2 9.37 9.37 0 0 1 .76-5.4c.4-.82.9-1.53 1.49-2.12a6.6 6.6 0 0 1 4.43-2.02c.85-.04 1.6.07 2.23.35.66.26 1.2.66 1.6 1.19.42.5.7 1.12.86 1.85.16.73.17 1.54.05 2.43l-.13.92-9.34.49-.08.58c-.08.55-.06 1.06.05 1.51.12.46.31.85.6 1.18.29.32.66.56 1.1.73a4.7 4.7 0 0 0 5.5-2.19l1.3.9a6.24 6.24 0 0 1-2.17 2.18c-.94.58-2.03.9-3.29.97Zm1.5-11.49c-.54.03-1.05.16-1.54.37-.48.22-.92.5-1.3.87a4.6 4.6 0 0 0-1.43 2.77l-.03.17 7.23-.38.04-.27a3.8 3.8 0 0 0-.06-1.49 2.55 2.55 0 0 0-1.54-1.84c-.4-.16-.85-.22-1.38-.2Zm16.32 8.24h-.1a5.13 5.13 0 0 1-4.21 2.54c-1.55.08-2.68-.43-3.4-1.53-.7-1.1-.91-2.69-.62-4.76.3-2.06.95-3.7 1.97-4.89a5.34 5.34 0 0 1 3.89-1.9c1.77-.1 2.96.6 3.56 2.11h.1l1.04-7.47 1.96-.1-2.52 17.94-1.96.1.29-2.04Zm-3.31.78a4.94 4.94 0 0 0 2.36-.77c.33-.25.6-.53.8-.84.23-.33.37-.71.43-1.13l.63-4.5c.06-.43.02-.79-.12-1.08-.11-.32-.3-.57-.57-.77a2.44 2.44 0 0 0-.95-.45 4.2 4.2 0 0 0-1.23-.1 4.15 4.15 0 0 0-2.8 1.17 4.7 4.7 0 0 0-1.32 2.77l-.3 2.13c-.16 1.13.03 2.03.55 2.69.54.65 1.38.94 2.52.88Z"/></g><path fill="#0B0F19" d="m778.14 339.5 746.51-39.12-12.49 88.88-746.51 39.12zM16.82 469.62l746.51-39.12-12.49 88.88L4.32 558.5z"/><path fill="#E5E7EB" d="M42.8 522.8c-1.12.05-1.9-.22-2.34-.81-.43-.6-.57-1.38-.44-2.36l1.31-9.33-4.9.25.27-1.92 3.65-.2c.5-.02.85-.13 1.07-.33.23-.22.39-.57.46-1.06l.53-3.82 2.2-.11-.72 5.14 6.7-.35-.27 1.92-6.7.36-1.51 10.74 6.7-.35-.27 1.92-5.74.3Zm21.95-1.16c-.9.05-1.5-.14-1.81-.58a2.74 2.74 0 0 1-.48-1.65h-.14a5.45 5.45 0 0 1-1.85 2.1c-.77.5-1.75.79-2.95.85-1.54.08-2.71-.25-3.51-1-.8-.74-1.1-1.8-.92-3.18a4.6 4.6 0 0 1 1.93-3.21c1.1-.8 2.78-1.24 5-1.36l3.14-.16.2-1.45c.15-1.07-.04-1.86-.57-2.35-.54-.52-1.36-.75-2.48-.69-1 .06-1.83.3-2.51.73-.68.4-1.26.95-1.73 1.63l-1.38-1.05a6.67 6.67 0 0 1 3.97-2.88c.63-.2 1.32-.32 2.06-.36 1.73-.09 3.04.28 3.92 1.09.9.81 1.25 2 1.03 3.54l-1.13 8.03 2.06-.1-.28 1.97-1.57.08Zm-6.57-1.2a6.47 6.47 0 0 0 1.63-.28 6.6 6.6 0 0 0 1.36-.63c.4-.26.71-.56.95-.9.25-.34.4-.7.46-1.08l.34-2.4-3.14.16c-1.37.07-2.4.3-3.07.72-.68.4-1.07.97-1.17 1.69l-.09.6c-.1.75.08 1.3.56 1.67.5.35 1.22.5 2.17.45Zm25.32 1.88a4.4 4.4 0 0 1-2.31 3.34c-1.34.79-3.24 1.24-5.71 1.37-2.38.13-4.05-.1-5-.66-.95-.57-1.33-1.44-1.17-2.6.11-.8.4-1.42.89-1.88a4.8 4.8 0 0 1 1.9-1.05l.05-.34a1.91 1.91 0 0 1-.86-.74c-.18-.31-.24-.71-.17-1.2.1-.76.43-1.33.98-1.74.56-.4 1.24-.72 2.03-.95l.01-.1a3.61 3.61 0 0 1-1.89-1.65 4.39 4.39 0 0 1-.36-2.68 5.88 5.88 0 0 1 2.05-3.7 6.94 6.94 0 0 1 1.97-1.14 7.8 7.8 0 0 1 2.4-.49c1.1-.06 2.04.1 2.82.44l.03-.25c.08-.57.28-1.05.6-1.44.32-.39.8-.6 1.45-.63l2.7-.15-.27 1.98-3.3.18-.15.99c.47.42.8.94 1 1.54.2.61.24 1.3.14 2.08-.1.73-.34 1.42-.72 2.05a6.07 6.07 0 0 1-3.33 2.79 7.8 7.8 0 0 1-3.77.45 4.27 4.27 0 0 0-2.06 1.12c-.16.2-.25.41-.29.66-.06.43.12.71.53.84.42.1.98.14 1.69.1l3.25-.16c1.9-.1 3.23.18 3.98.86.76.65 1.05 1.57.89 2.76Zm-2.16.22c.08-.58-.09-1.04-.51-1.38-.43-.31-1.23-.44-2.41-.37l-5.1.26c-1.05.45-1.64 1.14-1.77 2.06-.09.64.1 1.17.54 1.6.45.44 1.27.63 2.47.57l2.22-.11a7.25 7.25 0 0 0 3.2-.79 2.43 2.43 0 0 0 1.36-1.84Zm-4.2-8.12a4.07 4.07 0 0 0 2.61-.92 3.4 3.4 0 0 0 1.13-2.13l.11-.82c.12-.87-.06-1.55-.54-2.03-.45-.5-1.25-.71-2.4-.65a4.08 4.08 0 0 0-2.62.92c-.6.53-.96 1.24-1.08 2.1l-.12.82c-.12.87.05 1.56.5 2.06.46.5 1.26.72 2.4.65Zm16.37 6.05a8.69 8.69 0 0 1-3.88-.55 6.76 6.76 0 0 1-2.53-1.95l1.72-1.4c.6.7 1.3 1.22 2.08 1.57.78.35 1.76.5 2.93.44 1.14-.07 2.1-.31 2.88-.75a2.6 2.6 0 0 0 1.38-1.98c.06-.37.03-.68-.1-.92-.09-.25-.25-.45-.48-.59a2.38 2.38 0 0 0-.77-.3c-.3-.07-.6-.13-.94-.17l-2.26-.22c-.5-.05-1.05-.12-1.64-.22a4.8 4.8 0 0 1-1.54-.54 3.1 3.1 0 0 1-1.09-1.12 3.08 3.08 0 0 1-.21-1.9 4.58 4.58 0 0 1 2.14-3.34c.58-.4 1.25-.71 2-.92.74-.22 1.54-.36 2.4-.4a7.97 7.97 0 0 1 3.36.44c.93.36 1.7.89 2.3 1.59l-1.68 1.46a3.1 3.1 0 0 0-.57-.59 4.5 4.5 0 0 0-2.08-.93 7.43 7.43 0 0 0-1.68-.08c-1.16.06-2.08.31-2.77.74a2.43 2.43 0 0 0-1.15 1.77c-.05.38-.03.7.06.95.12.24.3.43.52.56.23.14.48.25.77.33l.95.15 2.26.21c.52.05 1.07.13 1.64.23.57.1 1.08.29 1.53.56.46.26.81.63 1.06 1.1.28.47.36 1.1.25 1.9a4.84 4.84 0 0 1-2.19 3.45 8.9 8.9 0 0 1-4.67 1.42Z"/><g clip-path="url(#n)"><rect width="589.26" height="65.27" fill="#101828" rx="16.32" transform="matrix(.99863 -.05234 -.13917 .99027 156.88 474.31)"/><g clip-path="url(#o)"><g clip-path="url(#p)"><path fill="#99A1AF" d="m178.11 512.32.71-5.06-4.89.25.23-1.65 4.9-.25.7-5.07 1.86-.1-.7 5.07 4.88-.25-.23 1.64-4.89.26-.71 5.06-1.86.1Zm34.45-.31-.76-4.75-5.99.31-2.12 4.9-2.13.12 7.61-17.2 2.72-.14 2.85 16.64-2.18.12Zm-2.25-14.54-.22.02-3.54 8.29 5-.26-1.24-8.05Zm15.83 11.8-.1.01a5.14 5.14 0 0 1-4.21 2.53c-1.55.08-2.69-.43-3.4-1.53-.7-1.1-.91-2.69-.62-4.75.29-2.07.95-3.7 1.97-4.9a5.34 5.34 0 0 1 3.88-1.9c1.78-.1 2.97.6 3.56 2.12h.1l1.05-7.47 1.96-.1-2.52 17.93-1.96.1.29-2.03Zm-3.31.78a4.85 4.85 0 0 0 2.36-.77c.33-.24.6-.52.8-.84.22-.33.36-.7.42-1.13l.64-4.5c.06-.43.02-.79-.12-1.08-.12-.32-.3-.57-.57-.77a2.41 2.41 0 0 0-.96-.45c-.37-.1-.78-.13-1.22-.1a4.15 4.15 0 0 0-2.8 1.18 4.7 4.7 0 0 0-1.32 2.76l-.3 2.13c-.16 1.13.02 2.03.54 2.7.54.64 1.38.93 2.53.87Zm17.96-1.54h-.1a5.13 5.13 0 0 1-4.2 2.53c-1.56.08-2.69-.43-3.4-1.53s-.92-2.68-.63-4.75c.3-2.07.95-3.7 1.98-4.9a5.34 5.34 0 0 1 3.88-1.9c1.78-.1 2.96.61 3.56 2.12h.1l1.05-7.47 1.95-.1-2.52 17.93-1.95.1.28-2.03Zm-3.3.77a4.9 4.9 0 0 0 2.36-.77c.32-.24.59-.52.8-.84.22-.33.36-.7.42-1.13l.63-4.5a1.9 1.9 0 0 0-.11-1.08c-.12-.31-.31-.57-.58-.76a2.42 2.42 0 0 0-.95-.46c-.38-.1-.78-.13-1.22-.1a4.15 4.15 0 0 0-2.81 1.18 4.7 4.7 0 0 0-1.31 2.76l-.3 2.13c-.16 1.14.02 2.03.54 2.7.54.64 1.38.93 2.52.87Zm32.43-15.31-2.13 15.14-2.05.11 2.13-15.15-5.7.3.25-1.77 13.44-.7-.25 1.77-5.7.3Zm16.26 14.18c-.76.04-1.28-.13-1.55-.5s-.4-.84-.4-1.42h-.13c-.38.75-.9 1.35-1.59 1.8a5 5 0 0 1-2.52.73c-1.32.07-2.33-.21-3.01-.85-.7-.64-.95-1.55-.79-2.73a3.94 3.94 0 0 1 1.65-2.75c.96-.68 2.38-1.06 4.3-1.17l2.68-.14.17-1.23c.13-.92-.03-1.6-.49-2.02-.45-.44-1.16-.64-2.13-.59-.84.05-1.56.25-2.14.62-.59.35-1.08.82-1.49 1.4l-1.18-.9a5.64 5.64 0 0 1 3.4-2.46 6.98 6.98 0 0 1 1.77-.31c1.48-.08 2.6.23 3.36.93.78.7 1.07 1.7.89 3.03l-.97 6.89 1.76-.1-.24 1.7-1.34.07Zm-5.62-1.03a5.54 5.54 0 0 0 2.56-.78c.33-.23.6-.48.8-.77.23-.3.36-.6.4-.93l.3-2.06-2.7.14a5.83 5.83 0 0 0-2.63.62c-.58.35-.92.83-1 1.45l-.07.5c-.1.65.06 1.13.47 1.45.43.3 1.05.42 1.87.38Zm21.7 1.6a3.77 3.77 0 0 1-1.99 2.88c-1.14.67-2.77 1.06-4.9 1.17-2.03.1-3.46-.08-4.28-.57-.8-.49-1.14-1.23-1-2.23.1-.68.35-1.22.76-1.6.41-.4.96-.7 1.63-.91l.04-.3a1.64 1.64 0 0 1-.73-.63c-.16-.26-.2-.6-.15-1.02.1-.65.37-1.15.84-1.5a5.7 5.7 0 0 1 1.74-.8l.02-.1a3.1 3.1 0 0 1-1.63-1.4 3.76 3.76 0 0 1-.3-2.3 5.04 5.04 0 0 1 1.75-3.17c.5-.41 1.06-.74 1.7-.98a6.66 6.66 0 0 1 2.04-.42c.94-.05 1.75.07 2.42.38l.03-.22c.07-.49.24-.9.51-1.23.28-.34.7-.52 1.25-.55l2.32-.12-.24 1.7-2.83.15-.12.84c.4.37.68.81.85 1.33.17.52.21 1.11.12 1.77a5.21 5.21 0 0 1-3.47 4.15 6.69 6.69 0 0 1-3.24.4 3.73 3.73 0 0 0-1.76.95c-.13.17-.22.36-.25.57-.05.37.1.6.46.72.36.1.84.12 1.44.1l2.79-.15c1.63-.09 2.77.16 3.41.73.65.56.9 1.35.76 2.37Zm-1.85.2c.07-.5-.08-.9-.44-1.18-.37-.27-1.06-.38-2.07-.32l-4.37.22c-.9.39-1.4.98-1.51 1.77-.08.55.07 1 .46 1.37.38.38 1.09.54 2.11.49l1.91-.1a6.22 6.22 0 0 0 2.74-.67c.68-.38 1.07-.9 1.17-1.58Zm-3.61-6.96a3.49 3.49 0 0 0 2.25-.79 2.9 2.9 0 0 0 .96-1.83l.1-.7c.1-.75-.05-1.32-.47-1.73-.39-.43-1.07-.62-2.05-.57a3.5 3.5 0 0 0-2.25.8 2.86 2.86 0 0 0-.93 1.8l-.1.7c-.1.74.04 1.33.43 1.76.4.43 1.08.62 2.06.56Zm14.04 5.19a7.46 7.46 0 0 1-3.33-.48 5.8 5.8 0 0 1-2.17-1.67l1.48-1.2c.51.6 1.1 1.05 1.78 1.35.66.3 1.5.42 2.51.37.98-.05 1.8-.26 2.47-.63a2.23 2.23 0 0 0 1.19-1.7c.04-.33.01-.59-.09-.8a.98.98 0 0 0-.41-.5 5.44 5.44 0 0 0-1.47-.4l-1.94-.2c-.43-.03-.9-.1-1.4-.18a4.13 4.13 0 0 1-1.32-.46c-.4-.24-.7-.56-.94-.96-.21-.4-.28-.95-.18-1.63a3.91 3.91 0 0 1 1.83-2.86 5.6 5.6 0 0 1 1.71-.79 8.6 8.6 0 0 1 4.95.03c.8.31 1.45.76 1.97 1.36l-1.44 1.26a2.66 2.66 0 0 0-.49-.5 3.86 3.86 0 0 0-1.78-.8 6.3 6.3 0 0 0-1.44-.07c-1 .05-1.79.26-2.37.63-.57.37-.9.87-1 1.52-.04.32-.02.6.06.81.1.2.25.37.44.49.2.11.42.2.67.27.27.05.54.1.8.13l1.94.19c.45.04.92.1 1.4.19.5.08.94.25 1.32.48.4.22.7.53.92.94.23.4.3.95.2 1.63a4.15 4.15 0 0 1-1.87 2.96 7.63 7.63 0 0 1-4 1.22Z"/></g></g></g><rect width="587.22" height="63.23" x=".88" y=".96" stroke="#1E2939" stroke-width="2.04" rx="15.3" transform="matrix(.99863 -.05234 -.13917 .99027 157.01 474.37)"/><path fill="#0B0F19" d="m765.36 430.4 746.52-39.13-12.5 88.88-746.5 39.12z"/></g><rect width="1499.15" height="604.82" x=".88" y=".96" stroke="#141C2E" stroke-width="2.04" rx="23.46" transform="matrix(.99863 -.05234 -.13917 .99027 74.52 45.63)"/></g><defs><clipPath id="a"><path fill="#fff" d="M0 0h775v515H0z"/></clipPath><clipPath id="b"><rect width="1501.19" height="606.86" fill="#fff" rx="24.48" transform="matrix(.99863 -.05234 -.13917 .99027 74.39 45.57)"/></clipPath><clipPath id="d"><rect width="501.14" height="65.27" fill="#fff" rx="16.32" transform="matrix(.99863 -.05234 -.13917 .99027 295.97 106.14)"/></clipPath><clipPath id="e"><path fill="#fff" d="m299.47 109.96 492.32-25.8-7.95 56.55-492.32 25.8z"/></clipPath><clipPath id="f"><path fill="#fff" d="m314.06 121.23 476.02-24.95-4.54 32.31-476.02 24.95z"/></clipPath><clipPath id="g"><rect width="484.01" height="65.27" fill="#fff" rx="16.32" transform="matrix(.99863 -.05234 -.13917 .99027 300.3 196.13)"/></clipPath><clipPath id="h"><path fill="#fff" d="m303.8 199.96 475.2-24.9-7.94 56.55-475.2 24.9z"/></clipPath><clipPath id="i"><path fill="#fff" d="m318.4 211.22 458.9-24.05-4.53 32.31-458.91 24.05z"/></clipPath><clipPath id="j"><rect width="449.75" height="65.27" fill="#fff" rx="16.32" transform="matrix(.99863 -.05234 -.13917 .99027 321.75 285.23)"/></clipPath><clipPath id="k"><path fill="#fff" d="m325.25 289.05 440.99-23.1-7.95 56.55-440.99 23.1z"/></clipPath><clipPath id="l"><path fill="#fff" d="m339.85 300.32 424.68-22.26-4.54 32.31-424.69 22.26z"/></clipPath><clipPath id="m"><path fill="#fff" d="M359.25 389.52 737.5 369.7l-4.55 32.31-378.24 19.83z"/></clipPath><clipPath id="n"><rect width="589.26" height="65.27" fill="#fff" rx="16.32" transform="matrix(.99863 -.05234 -.13917 .99027 156.88 474.31)"/></clipPath><clipPath id="o"><path fill="#fff" d="m160.38 478.14 580.3-30.41-7.94 56.55-580.3 30.41z"/></clipPath><clipPath id="p"><path fill="#fff" d="m174.97 489.4 564.01-29.55-4.54 32.3-564 29.57z"/></clipPath><linearGradient id="c" x1="0" x2="1497.11" y1="28.56" y2="28.56" gradientUnits="userSpaceOnUse"><stop stop-color="#101828"/><stop offset="1" stop-opacity="0"/></linearGradient></defs></svg>