<svg xmlns="http://www.w3.org/2000/svg" width="775" height="515" fill="none"><g clip-path="url(#a)"><g clip-path="url(#b)"><rect width="1501.19" height="576.06" fill="#E5E7EB" fill-opacity=".7" rx="24.48" transform="matrix(.99863 -.05234 -.13917 .99027 74.39 45.57)"/><path fill="#fff" d="M76.14 47.48 1571.2-30.87l-7.95 56.55L68.19 104.03z"/><path fill="url(#c)" d="M0 0h1497.11v57.11H0z" transform="matrix(.99863 -.05234 -.13917 .99027 76.14 47.48)"/><path fill="#4A5565" d="m98.05 84.82 2.6-18.55 2.86-.15 2.2 9.71c.14.63.27 1.27.38 1.92l.42 1.89.11-.01c.32-.65.62-1.3.9-1.96.3-.67.61-1.33.93-1.98l4.92-10.08 2.88-.15-2.6 18.55-2.23.11 1.44-10.2c.11-.84.28-1.75.5-2.75l.58-2.76h-.11l-2.08 4.3-4.88 9.8-1.57.08-2.19-9.43-.89-4.13h-.11a196.32 196.32 0 0 1-.49 5.47l-1.43 10.21-2.14.11Zm26.06-1.03a5.94 5.94 0 0 1-3.25-.67 4.76 4.76 0 0 1-2.04-2.36 7.17 7.17 0 0 1-.34-3.8c.2-1.5.68-2.81 1.42-3.92a8.93 8.93 0 0 1 2.7-2.61 6.59 6.59 0 0 1 3.1-1.03c1.78-.1 3.05.42 3.84 1.53.8 1.12 1.07 2.66.8 4.62a10.08 10.08 0 0 1-.28 1.34l-9.35.49c-.1 1.44.18 2.58.88 3.4.71.83 1.74 1.2 3.07 1.13a6.19 6.19 0 0 0 1.86-.38c.6-.23 1.18-.53 1.74-.87l.61 1.48c-.64.4-1.36.77-2.16 1.1-.78.32-1.65.5-2.6.55Zm-3.2-8.08 7.42-.39c.2-1.4.04-2.43-.47-3.12-.48-.7-1.27-1.03-2.35-.97a4.5 4.5 0 0 0-2.78 1.27 6.21 6.21 0 0 0-1.81 3.2Zm15.81 7.42c-1.48.08-2.46-.29-2.93-1.1a5.21 5.21 0 0 1-.39-3.27l1.07-7.6-2.05.1.25-1.75 2.18-.26.83-3.86 1.97-.1-.54 3.84 3.73-.2-.27 1.9-3.73.2-1.07 7.63a3.3 3.3 0 0 0 .17 1.96c.26.44.8.63 1.6.59.24-.01.51-.06.8-.15l.81-.3.21 1.73a11.63 11.63 0 0 1-2.64.64Zm7.86-.4a3.6 3.6 0 0 1-2.77-.87c-.66-.66-.9-1.6-.73-2.83a4.8 4.8 0 0 1 2.5-3.55c1.49-.89 3.73-1.57 6.72-2.04a5.1 5.1 0 0 0-.03-1.66c-.07-.52-.3-.92-.67-1.22-.35-.32-.9-.46-1.67-.42-.8.04-1.57.23-2.32.57-.74.34-1.42.71-2.02 1.12l-.69-1.57c.7-.45 1.55-.88 2.54-1.3 1-.46 2.06-.7 3.16-.76 1.7-.1 2.85.36 3.46 1.36.62.98.8 2.32.56 4.04l-1.18 8.43-1.94.1.03-1.63h-.08a15.4 15.4 0 0 1-2.34 1.5 6 6 0 0 1-2.53.72Zm.94-1.91a4.48 4.48 0 0 0 1.95-.58 13.8 13.8 0 0 0 2.08-1.46l.53-3.81c-2.34.4-4.01.9-5.02 1.52-1 .62-1.55 1.37-1.68 2.25-.1.78.05 1.33.48 1.66.42.32.98.46 1.66.42Zm14.97 1.07c-1.73.09-3.03-.46-3.9-1.65-.87-1.2-1.15-2.95-.83-5.23a9.65 9.65 0 0 1 1.37-3.9c.73-1.12 1.59-2 2.58-2.63a6.42 6.42 0 0 1 3.09-1.03c.8-.04 1.47.06 2.02.32.55.25 1.1.6 1.63 1.06l.22-2.34.74-5.29 2.37-.12-2.83 20.13-1.94.1.03-1.6h-.09c-.6.56-1.3 1.06-2.07 1.5-.78.4-1.58.63-2.4.68Zm.78-1.98c1.22-.06 2.49-.76 3.8-2.08l1.02-7.18a4.28 4.28 0 0 0-3.17-1.27c-.74.04-1.44.3-2.12.79a6.03 6.03 0 0 0-1.68 1.9c-.47.8-.78 1.72-.93 2.78-.23 1.64-.08 2.91.46 3.82.53.9 1.4 1.3 2.62 1.24Zm13.5 1.23a3.6 3.6 0 0 1-2.77-.87c-.66-.65-.9-1.6-.74-2.82a4.8 4.8 0 0 1 2.51-3.56c1.49-.88 3.72-1.56 6.72-2.03a5.1 5.1 0 0 0-.03-1.66c-.08-.52-.3-.93-.67-1.23-.36-.31-.91-.45-1.67-.41-.8.04-1.57.23-2.32.57-.74.34-1.42.7-2.02 1.11l-.69-1.56c.7-.45 1.55-.89 2.53-1.31 1.01-.45 2.06-.7 3.17-.76 1.69-.09 2.84.37 3.46 1.37.62.97.8 2.32.56 4.04l-1.18 8.42-1.94.1.03-1.63h-.09a15.4 15.4 0 0 1-2.33 1.5 6 6 0 0 1-2.54.73Zm.94-1.9a4.48 4.48 0 0 0 1.95-.58c.63-.35 1.33-.84 2.07-1.46l.54-3.82c-2.34.4-4.02.92-5.03 1.53-.99.61-1.55 1.36-1.67 2.25-.11.77.05 1.33.47 1.66.43.31.99.45 1.67.42Zm14.2 1.1c-1.48.08-2.46-.29-2.93-1.1a5.21 5.21 0 0 1-.39-3.27l1.07-7.6-2.05.1.24-1.75 2.2-.25.82-3.87 1.97-.1-.55 3.85 3.74-.2-.27 1.9-3.73.2-1.07 7.63a3.3 3.3 0 0 0 .17 1.95c.26.44.8.63 1.6.6.24-.02.51-.07.8-.16l.81-.3.21 1.73a11.7 11.7 0 0 1-2.64.65Zm7.86-.4a3.6 3.6 0 0 1-2.77-.87c-.66-.66-.9-1.6-.73-2.83a4.79 4.79 0 0 1 2.5-3.55c1.49-.88 3.72-1.56 6.72-2.04a5.1 5.1 0 0 0-.03-1.65c-.07-.52-.3-.93-.67-1.23-.35-.32-.9-.46-1.67-.42-.8.04-1.57.23-2.32.57-.74.34-1.42.71-2.02 1.12l-.69-1.57c.7-.44 1.55-.88 2.54-1.3 1-.45 2.06-.7 3.16-.76 1.7-.1 2.84.36 3.46 1.36.62.98.8 2.33.56 4.04l-1.18 8.43-1.94.1.03-1.63h-.08c-.72.57-1.5 1.06-2.34 1.5a6 6 0 0 1-2.53.72Zm.94-1.9a4.47 4.47 0 0 0 1.95-.59c.64-.35 1.33-.83 2.08-1.45l.53-3.82c-2.34.4-4.01.91-5.02 1.53-1 .6-1.56 1.36-1.68 2.24-.1.78.05 1.33.47 1.66.43.32.99.46 1.67.42Zm22.81.65a6.84 6.84 0 0 1-3.34-.58 4.11 4.11 0 0 1-2.04-2.4c-.43-1.13-.5-2.7-.22-4.67l1.53-10.89 2.37-.12-1.54 10.94a8.45 8.45 0 0 0 .07 3.5c.28.83.72 1.41 1.31 1.73.62.33 1.34.47 2.15.42a4.82 4.82 0 0 0 4.15-2.55c.53-.88.9-2.07 1.1-3.56l1.54-10.94 2.28-.12-1.53 10.89c-.28 1.97-.8 3.56-1.55 4.76a7.2 7.2 0 0 1-2.75 2.65 8.52 8.52 0 0 1-3.53.94Zm11.79-.96 2.6-18.55 2.37-.12-2.6 18.55-2.37.12Z"/><path fill="#000" d="m268.07 70 .86-6.06-3.06.16-.21 1.52 1.52-.08-.63 4.54-2.3.12-.2 1.52 6.1-.32.22-1.52-2.3.12ZM268.8 59.44c-.23 0-.46.09-.66.22-.2.14-.38.32-.5.53-.11.22-.17.45-.15.66 0 .22.09.42.23.57a.9.9 0 0 0 .54.28c.22.03.45 0 .67-.1.22-.1.42-.25.57-.45.16-.19.25-.41.29-.64a.95.95 0 0 0-.23-.78.95.95 0 0 0-.76-.3Z"/><path fill="#000" d="M266.46 76.1c-2.12.11-4.1-.4-5.7-1.48a8.07 8.07 0 0 1-3.26-4.55 10.3 10.3 0 0 1 .25-6.1c.7-2.07 1.99-4.01 3.7-5.58a13.52 13.52 0 0 1 5.87-3.18 10.3 10.3 0 0 1 6.1.28 8.07 8.07 0 0 1 4.25 3.65 9.25 9.25 0 0 1 .97 5.8c-.4 2.8-1.9 5.56-4.18 7.66a13.06 13.06 0 0 1-8 3.5Zm2.77-19.7c-1.82.1-3.66.73-5.31 1.8a12.02 12.02 0 0 0-3.95 4.26 9.86 9.86 0 0 0-1.26 5.28c.1 1.75.75 3.32 1.85 4.52a7.27 7.27 0 0 0 4.35 2.24c1.73.26 3.6-.01 5.37-.79a12.01 12.01 0 0 0 4.58-3.56c1.22-1.55 2-3.34 2.25-5.13a7.6 7.6 0 0 0-1.78-6.29 7.6 7.6 0 0 0-6.1-2.32Z"/><path fill="#fff" d="m67.9 106.05 746.52-39.12-12.49 88.88-746.51 39.12z"/><path fill="#000" d="m89.64 149.25-.6 4.33c-.14.9.5 1.59 1.4 1.54.9-.05 1.74-.81 1.87-1.71l.6-4.33a1.3 1.3 0 0 0-1.4-1.54c-.91.05-1.74.81-1.87 1.71Zm6.55-.34-.6 4.33c-.13.9.5 1.58 1.4 1.54.9-.05 1.74-.81 1.87-1.71l.6-4.33a1.3 1.3 0 0 0-1.4-1.54c-.91.05-1.74.8-1.87 1.7Zm-8.7 11.74 17.48-.92c.9-.04 1.73-.8 1.86-1.7a1.3 1.3 0 0 0-1.4-1.55l-17.48.92c-.9.05-1.74.81-1.86 1.71-.13.9.5 1.58 1.4 1.54Zm15.25-12.09-.6 4.34c-.13.9.5 1.58 1.4 1.53.9-.04 1.74-.8 1.87-1.7l.6-4.34a1.3 1.3 0 0 0-1.4-1.53c-.9.04-1.74.8-1.87 1.7Zm-4.4-10.52-9.26 4.95a1.7 1.7 0 0 0-.9 1.23c-.1.75.42 1.32 1.17 1.28l18.03-.94a1.72 1.72 0 0 0 1.54-1.42c.07-.5-.14-.95-.56-1.16l-8-4.05a2.2 2.2 0 0 0-2.02.1ZM123.84 155.75l5.13-.27 2.4-17.08-5.13.27.27-1.93 7.42-.39-2.67 19 5.13-.26-.27 1.92-12.55.66.27-1.92Zm26.52-17.17c-.67.03-1.11-.07-1.34-.32a1.25 1.25 0 0 1-.25-1.03l.06-.45c.06-.41.24-.76.54-1.04.3-.3.8-.46 1.46-.5.66-.03 1.11.09 1.34.35.23.25.31.59.25 1l-.06.45a1.8 1.8 0 0 1-.55 1.07c-.3.28-.78.44-1.45.47Zm-8.68 16.23 5.3-.28 1.52-10.74-5.3.28.26-1.93 7.59-.4-1.78 12.67 4.96-.26-.27 1.92-12.55.66.27-1.92Zm22.83 1.05a6.52 6.52 0 0 1-2.78-.39 4.62 4.62 0 0 1-1.86-1.44c-.48-.63-.8-1.41-.97-2.34a11.41 11.41 0 0 1 .91-6.28c.43-.96.98-1.78 1.65-2.47a7.39 7.39 0 0 1 5.17-2.35 5.2 5.2 0 0 1 3.34.75c.81.58 1.35 1.35 1.63 2.33l-1.96 1.06a2.6 2.6 0 0 0-1.1-1.69 3.44 3.44 0 0 0-2.19-.5 5.1 5.1 0 0 0-3.28 1.4c-.42.42-.76.91-1.03 1.47a6.64 6.64 0 0 0-.5 1.8l-.35 2.48a5.68 5.68 0 0 0 0 1.77 2.89 2.89 0 0 0 1.84 2.23c.5.18 1.1.25 1.78.22a4.87 4.87 0 0 0 2.55-.81 6.24 6.24 0 0 0 1.8-1.95l1.47 1.02a7.62 7.62 0 0 1-2.4 2.54 7.1 7.1 0 0 1-3.72 1.15Zm16.84-.88a6.7 6.7 0 0 1-2.8-.39 4.76 4.76 0 0 1-1.96-1.41 5.77 5.77 0 0 1-1.03-2.34 10.94 10.94 0 0 1 .89-6.3 9.45 9.45 0 0 1 1.73-2.48 7.7 7.7 0 0 1 5.17-2.35c1-.05 1.86.08 2.6.4.78.32 1.4.78 1.88 1.4.48.58.81 1.3 1 2.16.18.85.2 1.8.05 2.83l-.15 1.07-10.9.57-.09.68c-.09.64-.07 1.23.07 1.77.13.53.36.99.68 1.37.34.37.78.66 1.3.85a5.48 5.48 0 0 0 4.5-.6 5.8 5.8 0 0 0 1.91-1.95l1.53 1.04a7.25 7.25 0 0 1-2.54 2.55 7.99 7.99 0 0 1-3.84 1.13Zm1.74-13.4c-.63.03-1.22.18-1.79.43-.56.25-1.07.6-1.52 1a5.39 5.39 0 0 0-1.67 3.23l-.03.2 8.44-.44.04-.3c.1-.65.07-1.23-.07-1.74a2.96 2.96 0 0 0-.63-1.32 2.51 2.51 0 0 0-1.16-.83c-.46-.19-1-.26-1.6-.23Zm9.39 12.48 2.05-14.6 2.28-.11-.33 2.37h.11a6.95 6.95 0 0 1 1.66-1.97 5.6 5.6 0 0 1 2.91-.97c1.55-.08 2.71.35 3.5 1.28.8.91 1.08 2.25.83 4.02l-1.32 9.36-2.28.12 1.26-8.96c.19-1.34.03-2.31-.47-2.92-.5-.63-1.31-.92-2.45-.86a5.79 5.79 0 0 0-2.6.81c-.38.25-.7.55-.96.92s-.42.8-.49 1.26l-1.42 10.13-2.28.12Zm22.98-.87a8.69 8.69 0 0 1-3.88-.56 6.75 6.75 0 0 1-2.53-1.94l1.72-1.4c.6.69 1.3 1.21 2.08 1.57.78.35 1.76.5 2.94.43 1.14-.06 2.1-.3 2.87-.74a2.6 2.6 0 0 0 1.38-1.98c.06-.38.03-.68-.1-.92-.09-.26-.25-.46-.47-.6a2.38 2.38 0 0 0-.78-.29 6.4 6.4 0 0 0-.94-.17l-2.26-.22c-.5-.05-1.05-.13-1.64-.23a4.8 4.8 0 0 1-1.54-.53 3.11 3.11 0 0 1-1.09-1.13 3.08 3.08 0 0 1-.21-1.9 4.58 4.58 0 0 1 2.14-3.33c.58-.4 1.25-.71 2-.92.74-.23 1.54-.36 2.4-.4a7.97 7.97 0 0 1 3.36.43c.93.37 1.7.9 2.3 1.6l-1.68 1.46c-.14-.2-.33-.4-.57-.59-.21-.21-.5-.4-.86-.54-.33-.17-.74-.3-1.21-.39a7.37 7.37 0 0 0-1.7-.08c-1.15.06-2.07.3-2.75.74a2.43 2.43 0 0 0-1.16 1.77c-.05.38-.03.7.06.95.12.24.3.42.52.56.23.14.48.25.77.33.32.06.63.1.95.14l2.26.22c.52.05 1.07.12 1.64.22.57.1 1.08.3 1.53.57.46.26.81.62 1.06 1.1.28.47.36 1.1.25 1.9a4.84 4.84 0 0 1-2.19 3.44 8.9 8.9 0 0 1-4.67 1.43Zm17.19-.9c-1.07.05-2-.07-2.8-.39a4.77 4.77 0 0 1-1.96-1.41 5.78 5.78 0 0 1-1.03-2.33 10.94 10.94 0 0 1 .89-6.3 9.44 9.44 0 0 1 1.73-2.49 7.71 7.71 0 0 1 5.17-2.34c.99-.06 1.86.08 2.6.4.77.3 1.4.77 1.88 1.38.48.6.81 1.32 1 2.17.18.85.2 1.8.05 2.83l-.15 1.07-10.9.58-.1.67c-.08.65-.06 1.23.07 1.77.13.53.36 1 .69 1.37.34.37.77.66 1.3.85a5.47 5.47 0 0 0 4.5-.6 5.81 5.81 0 0 0 1.9-1.95l1.53 1.04a7.27 7.27 0 0 1-2.54 2.55 8 8 0 0 1-3.83 1.13Zm1.74-13.4c-.63.04-1.23.18-1.79.43-.56.26-1.07.6-1.53 1a5.39 5.39 0 0 0-1.67 3.23l-.03.2 8.44-.43.05-.31c.09-.65.06-1.22-.07-1.74a2.97 2.97 0 0 0-.64-1.31 2.5 2.5 0 0 0-1.15-.84c-.47-.19-1-.26-1.61-.23Z"/><g clip-path="url(#d)"><rect width="501.14" height="65.27" fill="#F3F4F6" rx="16.32" transform="matrix(.99863 -.05234 -.13917 .99027 295.96 106.13)"/><g clip-path="url(#e)"><g clip-path="url(#f)"><path fill="#99A1AF" d="m317.2 144.14.7-5.06-4.88.25.23-1.65 4.89-.25.71-5.07 1.86-.1-.71 5.07 4.88-.26-.23 1.65-4.89.26-.7 5.06-1.87.1Zm34.45-.31-.77-4.75-5.99.31-2.12 4.9-2.12.11 7.6-17.19 2.72-.14 2.85 16.64-2.17.12Zm-2.25-14.54-.22.02-3.55 8.29 5.01-.26-1.24-8.05Zm15.82 11.8-.1.01a5.13 5.13 0 0 1-4.21 2.53c-1.55.08-2.68-.43-3.4-1.53-.7-1.1-.9-2.69-.62-4.75.3-2.07.95-3.7 1.98-4.9a5.34 5.34 0 0 1 3.88-1.9c1.78-.1 2.96.6 3.56 2.11h.1l1.05-7.47 1.95-.1-2.52 17.94-1.95.1.28-2.03Zm-3.31.78a4.9 4.9 0 0 0 2.36-.77c.33-.25.6-.52.8-.84.23-.33.37-.7.43-1.13l.63-4.5c.06-.43.02-.79-.12-1.08-.11-.32-.3-.57-.57-.77a2.41 2.41 0 0 0-.95-.45c-.38-.1-.79-.13-1.23-.1a4.15 4.15 0 0 0-2.8 1.18 4.7 4.7 0 0 0-1.32 2.76l-.3 2.13c-.15 1.13.03 2.03.55 2.7.54.64 1.38.93 2.52.87Zm17.97-1.54h-.1a5.13 5.13 0 0 1-4.21 2.53c-1.55.08-2.69-.43-3.4-1.53-.7-1.1-.91-2.69-.62-4.75.29-2.07.95-3.7 1.97-4.9a5.34 5.34 0 0 1 3.88-1.9c1.78-.1 2.97.6 3.56 2.12h.1l1.05-7.47 1.96-.1-2.52 17.93-1.96.1.29-2.03Zm-3.31.77a4.9 4.9 0 0 0 2.36-.77c.33-.24.6-.52.8-.84.22-.33.36-.7.42-1.13l.64-4.5a1.9 1.9 0 0 0-.12-1.08c-.12-.32-.3-.57-.57-.77a2.42 2.42 0 0 0-.96-.45c-.37-.1-.78-.13-1.22-.1a4.15 4.15 0 0 0-2.81 1.18 4.7 4.7 0 0 0-1.31 2.76l-.3 2.13c-.16 1.13.02 2.03.54 2.7.54.64 1.38.93 2.52.87Zm24.88.12 2.38-16.92 2.05-.1-2.13 15.14 8.09-.42-.25 1.77-10.14.53Zm21.98-16.31c-.57.03-.95-.06-1.15-.28-.2-.23-.26-.52-.21-.88l.05-.39c.05-.35.2-.65.46-.89.27-.25.68-.4 1.25-.42.57-.03.96.07 1.15.3.2.21.27.5.22.85l-.06.4c-.04.35-.2.65-.46.9-.26.24-.68.38-1.25.4ZM416 138.8l4.55-.23 1.3-9.21-4.55.24.23-1.65 6.5-.34-1.52 10.86 4.25-.22-.23 1.64-10.76.57.23-1.65Zm19.57.9c-.91.06-1.7-.06-2.38-.32a3.94 3.94 0 0 1-1.6-1.24 4.66 4.66 0 0 1-.83-2 8.9 8.9 0 0 1 0-2.68c.15-.98.4-1.88.78-2.7.37-.83.84-1.53 1.41-2.13a6.34 6.34 0 0 1 4.43-2 4.45 4.45 0 0 1 2.87.64c.7.49 1.16 1.15 1.4 2l-1.68.9a2.23 2.23 0 0 0-.94-1.45 2.95 2.95 0 0 0-1.88-.43 4.37 4.37 0 0 0-2.82 1.21 4.48 4.48 0 0 0-1.31 2.79l-.3 2.13a4.83 4.83 0 0 0 0 1.52 2.48 2.48 0 0 0 1.57 1.91c.44.15.95.21 1.54.18a4.17 4.17 0 0 0 2.18-.69c.61-.41 1.13-.97 1.55-1.67l1.26.88a6.54 6.54 0 0 1-2.06 2.17 6.1 6.1 0 0 1-3.2.99Zm14.43-.75a5.77 5.77 0 0 1-2.4-.33 4.1 4.1 0 0 1-1.67-1.21 4.95 4.95 0 0 1-.89-2 9.42 9.42 0 0 1 .76-5.4c.4-.83.9-1.54 1.49-2.13a6.6 6.6 0 0 1 4.43-2.01 5 5 0 0 1 2.23.34c.66.27 1.2.67 1.6 1.2.42.5.7 1.12.86 1.85.16.73.18 1.54.05 2.42l-.13.93-9.34.48-.08.59c-.07.55-.06 1.05.06 1.5.11.47.3.86.58 1.18.3.32.67.57 1.11.74.47.15 1 .21 1.58.18a4.7 4.7 0 0 0 2.28-.7 4.98 4.98 0 0 0 1.64-1.67l1.3.9a6.23 6.23 0 0 1-2.17 2.18c-.93.57-2.03.9-3.29.96Zm1.5-11.48c-.54.03-1.05.15-1.54.37-.48.22-.92.5-1.3.86s-.7.78-.96 1.25c-.24.47-.4.97-.48 1.52l-.02.17 7.23-.38.04-.27c.08-.54.06-1.04-.06-1.48-.1-.45-.28-.82-.54-1.13a2.15 2.15 0 0 0-1-.72 3.3 3.3 0 0 0-1.37-.2Zm8.04 10.7 1.76-12.51 1.96-.1-.29 2.03h.1a5.98 5.98 0 0 1 1.42-1.7 4.8 4.8 0 0 1 2.5-.82c1.32-.07 2.32.3 3 1.1.68.78.92 1.93.7 3.44l-1.13 8.03-1.95.1 1.08-7.68c.16-1.15.03-1.98-.4-2.5-.43-.55-1.13-.8-2.1-.74a4.96 4.96 0 0 0-2.24.7 3 3 0 0 0-.81.78c-.23.32-.37.68-.42 1.08l-1.22 8.68-1.96.1Zm19.7-.75a7.44 7.44 0 0 1-3.33-.48 5.8 5.8 0 0 1-2.16-1.66l1.47-1.21c.52.6 1.11 1.05 1.78 1.35.67.3 1.5.43 2.52.37.98-.05 1.8-.26 2.47-.63a2.23 2.23 0 0 0 1.18-1.7c.05-.32.02-.59-.08-.79a.97.97 0 0 0-.42-.5c-.19-.13-.41-.21-.66-.26a5.53 5.53 0 0 0-.8-.15l-1.95-.19c-.43-.04-.9-.1-1.4-.19a4.12 4.12 0 0 1-1.32-.46c-.39-.24-.7-.56-.93-.96-.22-.4-.28-.95-.19-1.63a3.91 3.91 0 0 1 1.84-2.86c.5-.35 1.07-.61 1.71-.79a8.66 8.66 0 0 1 4.95.03c.8.31 1.45.77 1.96 1.37l-1.44 1.25a2.65 2.65 0 0 0-.48-.5 3.86 3.86 0 0 0-1.78-.8 6.3 6.3 0 0 0-1.45-.07c-1 .05-1.78.26-2.37.63-.57.37-.9.87-.99 1.52-.04.32-.03.6.06.81.1.2.25.37.44.49.2.12.41.2.66.28l.81.12 1.94.19c.45.04.92.1 1.4.19.5.09.93.25 1.32.48.39.22.7.54.91.94.24.4.3.95.2 1.63a4.15 4.15 0 0 1-1.86 2.96 7.62 7.62 0 0 1-4 1.22Zm14.73-.77a5.76 5.76 0 0 1-2.4-.33 4.09 4.09 0 0 1-1.68-1.22 4.96 4.96 0 0 1-.88-2 9.39 9.39 0 0 1 .76-5.4c.4-.82.9-1.53 1.49-2.12a6.63 6.63 0 0 1 4.43-2.01 5 5 0 0 1 2.23.34c.66.27 1.2.66 1.6 1.19.42.5.7 1.12.86 1.85.16.73.17 1.54.05 2.43l-.13.92-9.34.49-.08.58c-.08.55-.06 1.06.05 1.52.12.45.31.84.6 1.17.29.32.66.56 1.1.73a4.7 4.7 0 0 0 3.86-.51 4.97 4.97 0 0 0 1.64-1.68l1.3.9a6.23 6.23 0 0 1-2.17 2.18c-.94.58-2.03.9-3.29.97Zm1.5-11.48c-.54.02-1.05.15-1.54.36-.48.22-.92.51-1.3.87a4.6 4.6 0 0 0-1.43 2.77l-.03.17 7.23-.38.04-.27a3.8 3.8 0 0 0-.06-1.49c-.1-.44-.28-.82-.55-1.12a2.15 2.15 0 0 0-.99-.72c-.4-.16-.85-.22-1.38-.2Z"/></g></g></g><rect width="499.11" height="63.23" x=".88" y=".96" stroke="#F3F4F6" stroke-width="2.04" rx="15.3" transform="matrix(.99863 -.05234 -.13917 .99027 296.1 106.19)"/><path fill="#fff" d="m55.13 196.94 746.52-39.12-12.5 88.88-746.5 39.12z"/><path fill="#000" d="m90.5 240.2-10.18.54a.85.85 0 0 1-.68-.26.85.85 0 0 1-.2-.7c.04-.27.18-.53.4-.73.22-.2.5-.32.76-.33l10.19-.54c.27-.01.5.08.67.26.17.18.24.43.2.7-.04.27-.18.53-.4.73-.21.2-.49.32-.76.33Z"/><path fill="#000" d="M86.97 229.36c-1.93.1-3.9.74-5.66 1.85a13.4 13.4 0 0 0-4.35 4.4 11.3 11.3 0 0 0-1.7 5.6 8.36 8.36 0 0 0 1.5 5.06l-2.27 2.08a1.3 1.3 0 0 0-.35.53c-.07.2-.08.4-.03.59.05.18.16.33.31.43.16.1.34.15.55.14l9.16-.48c2.7-.14 5.44-1.34 7.62-3.34 2.18-1.99 3.6-4.62 3.99-7.3a8.44 8.44 0 0 0-1.98-6.98 8.44 8.44 0 0 0-6.79-2.58Zm-3.76 5.21 6.1-.32c.28-.01.52.08.68.26.17.18.24.43.2.7-.03.26-.18.53-.4.73-.21.2-.49.32-.76.33l-6.1.32a.84.84 0 0 1-.69-.26.84.84 0 0 1-.2-.7c.04-.26.19-.53.4-.73.22-.2.5-.31.77-.33Zm4.69 9.78-6.11.32a.84.84 0 0 1-.68-.26.84.84 0 0 1-.2-.7c.04-.27.18-.53.4-.73.22-.2.49-.32.76-.33l6.11-.32c.27-.02.51.08.68.26.16.18.23.43.2.7-.04.26-.18.53-.4.73-.22.2-.5.31-.76.33Zm2.6-4.15-10.18.54a.85.85 0 0 1-.68-.26.85.85 0 0 1-.2-.7c.04-.27.18-.53.4-.73.22-.2.5-.32.76-.33l10.19-.54c.27-.01.5.08.67.26.17.18.24.43.2.7-.04.27-.18.53-.4.73-.21.2-.49.32-.76.33Z" opacity=".5"/><path fill="#000" d="m87.9 244.35-6.11.32a.85.85 0 0 1-.68-.26.85.85 0 0 1-.2-.7c.04-.27.18-.53.4-.73.22-.2.49-.32.76-.33l6.11-.32c.27-.02.51.08.68.26.16.18.23.43.2.7-.04.26-.18.53-.4.73-.22.2-.5.31-.76.33Zm1.13-8.08-6.1.32a.84.84 0 0 1-.69-.26.84.84 0 0 1-.2-.7c.04-.26.19-.53.4-.73.22-.2.5-.31.77-.33l6.1-.32c.28-.01.52.08.68.26.17.18.24.43.2.7-.04.26-.18.53-.4.73-.21.2-.49.32-.76.33ZM111.07 246.64l5.13-.27 2.4-17.08-5.13.27.27-1.93 7.41-.38-2.67 19 5.14-.27-.27 1.92-12.55.66.27-1.92Zm28.66.4c-.9.05-1.5-.14-1.81-.57a2.73 2.73 0 0 1-.48-1.66h-.14a5.44 5.44 0 0 1-1.85 2.1c-.77.5-1.75.79-2.95.85-1.54.08-2.71-.25-3.51-1-.8-.74-1.1-1.8-.92-3.18a4.6 4.6 0 0 1 1.93-3.21c1.1-.79 2.78-1.24 5-1.36l3.14-.16.2-1.45c.15-1.07-.04-1.86-.58-2.35-.53-.52-1.35-.74-2.47-.69-1 .06-1.83.3-2.51.72-.68.41-1.26.96-1.73 1.64l-1.38-1.05a6.6 6.6 0 0 1 3.97-2.88c.63-.2 1.32-.32 2.06-.36 1.73-.09 3.04.28 3.92 1.09.9.81 1.25 2 1.03 3.54l-1.13 8.03 2.06-.1-.28 1.97-1.57.08Zm-6.57-1.2a6.48 6.48 0 0 0 1.63-.28c.51-.18.97-.39 1.36-.63.4-.27.71-.56.95-.9.25-.34.4-.7.46-1.08l.34-2.4-3.14.16c-1.37.07-2.4.31-3.07.72-.68.41-1.07.97-1.17 1.69l-.09.6c-.1.75.08 1.3.56 1.68.5.34 1.22.5 2.17.44Zm12.35.9 2.05-14.6 2.28-.11-.33 2.38.11-.01a6.95 6.95 0 0 1 1.66-1.97 5.51 5.51 0 0 1 2.91-.97c1.54-.08 2.71.35 3.5 1.28.8.91 1.07 2.26.83 4.03l-1.32 9.36-2.28.12 1.26-8.97c.19-1.34.03-2.3-.47-2.92-.5-.63-1.31-.91-2.45-.85-.46.02-.91.1-1.37.24-.45.13-.86.32-1.24.57-.37.24-.69.55-.95.92s-.42.79-.49 1.26l-1.42 10.12-2.28.12Zm30.07.08a4.4 4.4 0 0 1-2.32 3.35c-1.33.78-3.23 1.24-5.7 1.37-2.38.12-4.05-.1-5-.67-.95-.57-1.34-1.44-1.17-2.6.11-.8.4-1.42.89-1.88.47-.45 1.1-.8 1.9-1.05l.05-.34a1.93 1.93 0 0 1-.86-.74c-.19-.3-.24-.7-.17-1.2.1-.75.43-1.33.98-1.73.56-.4 1.24-.72 2.03-.95l.01-.11a3.61 3.61 0 0 1-1.89-1.65 4.38 4.38 0 0 1-.36-2.67 5.88 5.88 0 0 1 2.05-3.7 6.95 6.95 0 0 1 1.97-1.14 7.8 7.8 0 0 1 2.39-.5c1.1-.05 2.05.1 2.83.45l.03-.26c.08-.56.28-1.04.6-1.43.32-.4.8-.6 1.45-.64l2.7-.14-.27 1.98-3.3.17-.15 1c.47.42.8.93 1 1.54.2.6.24 1.3.13 2.07a6.07 6.07 0 0 1-4.05 4.84 7.8 7.8 0 0 1-3.77.45 4.28 4.28 0 0 0-1.47.61c-.23.15-.42.32-.58.51-.16.2-.26.42-.29.66-.06.44.12.72.53.84.42.11.98.15 1.69.11l3.25-.17c1.9-.1 3.22.19 3.98.86.76.65 1.05 1.57.89 2.76Zm-2.16.23c.08-.59-.09-1.05-.51-1.38-.43-.31-1.23-.44-2.41-.38l-5.1.27c-1.05.45-1.64 1.13-1.77 2.06-.09.64.1 1.17.54 1.6.45.44 1.27.63 2.47.57l2.22-.12a7.27 7.27 0 0 0 3.2-.78 2.43 2.43 0 0 0 1.36-1.84Zm-4.2-8.12a4.08 4.08 0 0 0 2.61-.92 3.4 3.4 0 0 0 1.12-2.14l.12-.82c.12-.87-.06-1.54-.54-2.02-.46-.5-1.25-.72-2.4-.66a4.07 4.07 0 0 0-2.62.92c-.6.54-.96 1.24-1.08 2.1l-.12.83c-.12.87.05 1.55.5 2.05.46.5 1.26.72 2.4.66Zm20.06 3.16h-.12c-.2.37-.44.73-.71 1.08a5.04 5.04 0 0 1-3.86 1.86c-1.54.08-2.7-.34-3.5-1.25-.8-.93-1.07-2.28-.82-4.05l1.31-9.36 2.29-.12-1.26 8.96c-.2 1.34-.04 2.32.46 2.95.5.61 1.32.89 2.46.83.46-.03.91-.1 1.36-.24.46-.14.87-.33 1.24-.57.38-.25.7-.55.95-.9.26-.36.42-.8.5-1.28l1.42-10.13 2.28-.12-2.05 14.6-2.28.11.33-2.37Zm18.84 1.37c-.89.05-1.5-.15-1.81-.58a2.73 2.73 0 0 1-.47-1.66h-.15a5.44 5.44 0 0 1-1.85 2.1c-.77.5-1.75.8-2.95.86-1.54.07-2.7-.26-3.51-1-.8-.74-1.1-1.8-.91-3.18a4.6 4.6 0 0 1 1.92-3.22c1.11-.78 2.78-1.24 5-1.35l3.14-.17.2-1.44c.16-1.07-.04-1.86-.57-2.36-.53-.51-1.36-.74-2.48-.68-.99.05-1.82.3-2.5.72-.69.41-1.26.96-1.74 1.63l-1.38-1.04a6.6 6.6 0 0 1 3.97-2.88c.63-.2 1.32-.32 2.06-.36 1.73-.1 3.04.27 3.93 1.09.9.8 1.24 1.99 1.03 3.53l-1.13 8.03 2.05-.1-.28 1.98-1.56.08Zm-6.56-1.2a6.52 6.52 0 0 0 1.62-.28c.52-.18.97-.39 1.36-.63.4-.27.72-.57.95-.9.26-.35.41-.71.47-1.09l.33-2.4-3.13.16a6.8 6.8 0 0 0-3.08.72c-.68.41-1.07.98-1.17 1.7l-.08.59c-.1.75.08 1.31.55 1.68.5.35 1.23.5 2.18.45Zm25.31 1.87a4.4 4.4 0 0 1-2.3 3.35c-1.34.78-3.25 1.24-5.72 1.37-2.38.12-4.04-.1-5-.67-.94-.56-1.33-1.43-1.16-2.6.1-.8.4-1.42.88-1.87.48-.46 1.11-.81 1.9-1.06l.05-.34a1.92 1.92 0 0 1-.86-.74c-.18-.3-.24-.7-.17-1.2.1-.75.44-1.33.98-1.73.57-.4 1.25-.72 2.03-.95l.02-.11a3.62 3.62 0 0 1-1.9-1.64 4.4 4.4 0 0 1-.36-2.68 5.88 5.88 0 0 1 2.05-3.7 6.94 6.94 0 0 1 1.98-1.14 7.8 7.8 0 0 1 2.39-.5c1.1-.05 2.04.1 2.82.45l.04-.25c.08-.57.28-1.05.6-1.44.31-.4.8-.6 1.44-.64l2.71-.14-.28 1.98-3.3.17-.14 1c.47.42.8.93 1 1.54.2.6.24 1.3.13 2.07a6.05 6.05 0 0 1-4.05 4.84 7.8 7.8 0 0 1-3.77.46 4.36 4.36 0 0 0-2.05 1.11c-.16.2-.26.42-.3.66-.06.44.12.72.54.85.42.1.98.14 1.68.1l3.25-.17c1.9-.1 3.23.19 3.99.86.75.66 1.05 1.57.88 2.76Zm-2.15.23c.08-.59-.1-1.05-.52-1.38-.42-.31-1.23-.44-2.4-.38l-5.11.27c-1.04.45-1.63 1.13-1.76 2.06-.1.64.09 1.17.54 1.6.44.44 1.27.63 2.46.57l2.23-.12a7.24 7.24 0 0 0 3.2-.78 2.43 2.43 0 0 0 1.36-1.84Zm-4.21-8.12a4.08 4.08 0 0 0 2.62-.92c.62-.56 1-1.27 1.12-2.14l.12-.82c.12-.87-.06-1.54-.54-2.02-.46-.5-1.26-.72-2.4-.66a4.08 4.08 0 0 0-2.62.92c-.6.54-.97 1.24-1.09 2.11l-.12.82c-.12.87.05 1.55.5 2.05.47.5 1.27.72 2.4.66Zm16.46 6.04c-1.06.06-2-.07-2.8-.38a4.78 4.78 0 0 1-1.96-1.42 5.78 5.78 0 0 1-1.03-2.33 10.94 10.94 0 0 1 .89-6.3 9.42 9.42 0 0 1 1.73-2.48 7.7 7.7 0 0 1 5.17-2.35c1-.05 1.86.08 2.6.4.78.31 1.4.78 1.88 1.39.48.59.82 1.31 1 2.16.18.85.2 1.8.05 2.84l-.15 1.07-10.9.57-.09.68c-.09.64-.07 1.23.07 1.76.13.54.36 1 .68 1.37.35.38.78.66 1.3.86.54.18 1.15.25 1.84.21a5.49 5.49 0 0 0 2.66-.81 5.82 5.82 0 0 0 1.91-1.95l1.53 1.04a7.26 7.26 0 0 1-2.54 2.55 7.99 7.99 0 0 1-3.84 1.12Zm1.74-13.4c-.63.04-1.22.18-1.78.44-.57.25-1.08.59-1.53 1a5.39 5.39 0 0 0-1.67 3.23l-.03.2 8.44-.44.04-.3c.1-.65.07-1.23-.07-1.75a2.97 2.97 0 0 0-.63-1.31 2.52 2.52 0 0 0-1.16-.84c-.46-.18-1-.25-1.6-.22Z"/><g clip-path="url(#g)"><rect width="484.01" height="65.27" fill="#F3F4F6" rx="16.32" transform="matrix(.99863 -.05234 -.13917 .99027 300.3 196.13)"/><g clip-path="url(#h)"><g clip-path="url(#i)"><path fill="#99A1AF" d="m321.53 234.14.71-5.07-4.89.26.23-1.65 4.9-.26.7-5.06 1.86-.1-.7 5.06 4.88-.25-.23 1.65-4.9.25-.7 5.07-1.86.1Zm34.45-.32-.76-4.75-5.99.32-2.12 4.9-2.13.1 7.61-17.18 2.72-.15 2.85 16.65-2.18.11Zm-2.25-14.53h-.22l-3.54 8.3 5-.26-1.24-8.04Zm15.83 11.8h-.1a5.13 5.13 0 0 1-4.21 2.53c-1.55.09-2.69-.42-3.4-1.53-.7-1.1-.91-2.68-.62-4.75.29-2.07.95-3.7 1.97-4.9a5.34 5.34 0 0 1 3.88-1.9c1.78-.1 2.97.61 3.56 2.12h.1l1.05-7.47 1.96-.1-2.52 17.93-1.96.1.29-2.03Zm-3.31.78a4.9 4.9 0 0 0 2.36-.78c.32-.24.6-.52.8-.84.22-.33.36-.7.42-1.12l.64-4.51a1.9 1.9 0 0 0-.12-1.08c-.12-.31-.3-.57-.57-.76a2.42 2.42 0 0 0-.96-.46 4.2 4.2 0 0 0-1.22-.1 4.15 4.15 0 0 0-2.81 1.18 4.7 4.7 0 0 0-1.31 2.76l-.3 2.14c-.16 1.13.02 2.02.54 2.69.54.64 1.38.93 2.52.88Zm17.96-1.55h-.1a5.14 5.14 0 0 1-4.2 2.54c-1.56.08-2.69-.43-3.4-1.53s-.92-2.69-.63-4.76c.3-2.07.95-3.7 1.98-4.89a5.34 5.34 0 0 1 3.88-1.91c1.78-.1 2.96.61 3.56 2.12h.1l1.05-7.47 1.95-.1-2.52 17.94-1.95.1.28-2.04Zm-3.3.78a4.93 4.93 0 0 0 2.36-.78c.32-.24.59-.52.8-.83.22-.34.36-.71.42-1.13l.63-4.51c.06-.42.02-.78-.11-1.08-.12-.31-.31-.57-.58-.76a2.43 2.43 0 0 0-.95-.46 4.2 4.2 0 0 0-1.22-.1 4.15 4.15 0 0 0-2.81 1.18 4.7 4.7 0 0 0-1.31 2.77l-.3 2.13c-.16 1.13.02 2.03.54 2.69.54.64 1.38.94 2.52.88Zm24.87.11 2.38-16.92 2.05-.1-2.13 15.15 8.1-.43-.25 1.77-10.15.53Zm23.83-1.25c-.77.04-1.29-.12-1.56-.5-.27-.36-.4-.84-.4-1.42l-.13.01c-.38.74-.9 1.34-1.59 1.8a5 5 0 0 1-2.53.73c-1.31.07-2.32-.22-3-.86-.7-.63-.95-1.54-.79-2.72a3.93 3.93 0 0 1 1.65-2.76c.95-.67 2.38-1.06 4.29-1.16l2.69-.14.17-1.24c.13-.92-.03-1.6-.49-2.02-.46-.44-1.16-.63-2.13-.58a4.4 4.4 0 0 0-2.15.61c-.58.35-1.07.82-1.48 1.4l-1.18-.9a5.65 5.65 0 0 1 3.4-2.46 7.03 7.03 0 0 1 1.77-.3c1.48-.09 2.6.22 3.36.92.78.7 1.07 1.71.88 3.03l-.96 6.89 1.76-.1-.24 1.7-1.34.07Zm-5.63-1.03a5.56 5.56 0 0 0 2.56-.78c.33-.22.6-.48.8-.76.23-.3.36-.61.4-.94l.3-2.06-2.7.14a5.82 5.82 0 0 0-2.63.62c-.58.35-.92.84-1 1.45l-.07.5c-.1.66.06 1.14.47 1.45.43.3 1.05.43 1.87.38Zm10.58.77 1.75-12.5 1.96-.1-.29 2.03h.1a5.85 5.85 0 0 1 1.43-1.7 4.8 4.8 0 0 1 2.5-.82c1.31-.07 2.31.3 3 1.1.68.78.91 1.93.7 3.45l-1.13 8.02-1.96.1 1.08-7.68c.16-1.15.03-1.98-.4-2.5-.42-.55-1.12-.79-2.1-.74a4.9 4.9 0 0 0-2.24.7c-.31.2-.59.47-.8.78-.23.32-.37.68-.43 1.08l-1.22 8.68-1.95.1Zm25.77.07a3.77 3.77 0 0 1-1.98 2.87c-1.15.67-2.78 1.06-4.9 1.17-2.03.11-3.46-.08-4.28-.56-.8-.5-1.14-1.24-1-2.24.1-.68.35-1.21.76-1.6.4-.4.95-.7 1.63-.9l.04-.3a1.65 1.65 0 0 1-.74-.63c-.15-.27-.2-.6-.14-1.03.09-.65.37-1.14.84-1.49a5.71 5.71 0 0 1 1.74-.8l.01-.1a3.1 3.1 0 0 1-1.62-1.41 3.77 3.77 0 0 1-.3-2.3 5.03 5.03 0 0 1 1.75-3.17c.5-.4 1.06-.74 1.69-.98a6.66 6.66 0 0 1 2.05-.42c.94-.05 1.75.08 2.42.38l.03-.22c.07-.48.24-.9.51-1.23.27-.33.69-.51 1.24-.54l2.32-.12-.23 1.7-2.84.14-.12.85c.4.36.69.8.86 1.33a4.76 4.76 0 0 1-.5 3.54 5.2 5.2 0 0 1-2.86 2.38 6.67 6.67 0 0 1-3.23.39 3.73 3.73 0 0 0-1.76.96c-.14.16-.22.35-.25.56-.05.37.1.62.46.72.36.1.84.13 1.44.1l2.78-.15c1.63-.08 2.77.16 3.42.74.65.56.9 1.34.76 2.36Zm-1.85.2c.07-.5-.07-.9-.44-1.18-.37-.27-1.05-.38-2.06-.33l-4.38.23c-.9.38-1.4.97-1.5 1.76-.09.55.07 1.01.45 1.38.39.38 1.1.54 2.12.49l1.9-.1a6.21 6.21 0 0 0 2.74-.68c.69-.37 1.08-.9 1.17-1.57Zm-3.6-6.96a3.5 3.5 0 0 0 2.24-.8 2.9 2.9 0 0 0 .96-1.82l.1-.7c.1-.75-.05-1.33-.46-1.74-.4-.43-1.08-.61-2.06-.56a3.5 3.5 0 0 0-2.24.79 2.87 2.87 0 0 0-.94 1.8l-.1.7c-.1.75.05 1.33.44 1.76.4.43 1.08.62 2.05.57Zm17.2 2.7-.1.01c-.18.32-.38.62-.62.92a4.26 4.26 0 0 1-1.9 1.33c-.42.15-.88.24-1.4.27-1.32.07-2.32-.29-3-1.07-.69-.8-.92-1.96-.7-3.48l1.12-8.02 1.95-.1-1.07 7.68c-.17 1.15-.03 1.99.4 2.53.42.52 1.12.76 2.1.7a4.97 4.97 0 0 0 2.23-.69c.32-.2.6-.46.81-.76.23-.32.37-.69.43-1.1l1.22-8.68 1.95-.1-1.76 12.5-1.95.1.28-2.03Zm16.15 1.18c-.77.04-1.29-.12-1.56-.5-.27-.36-.4-.84-.4-1.42l-.13.01c-.38.74-.9 1.34-1.58 1.8a5 5 0 0 1-2.53.72c-1.32.07-2.32-.21-3.01-.85s-.95-1.54-.78-2.72a3.94 3.94 0 0 1 1.65-2.76c.95-.68 2.38-1.06 4.28-1.16l2.7-.14.17-1.24c.13-.92-.04-1.6-.5-2.02-.45-.44-1.16-.64-2.12-.59a4.4 4.4 0 0 0-2.15.62c-.58.35-1.08.82-1.48 1.4l-1.19-.9a5.68 5.68 0 0 1 3.4-2.46 6.98 6.98 0 0 1 1.77-.31c1.49-.08 2.6.23 3.37.93.77.7 1.06 1.7.88 3.03l-.97 6.89 1.76-.1-.24 1.7-1.34.07Zm-5.63-1.03a5.54 5.54 0 0 0 2.56-.78c.34-.23.6-.48.81-.77.22-.3.35-.6.4-.93l.29-2.06-2.7.14a5.8 5.8 0 0 0-2.63.62c-.58.35-.91.83-1 1.45l-.07.5c-.1.65.07 1.13.48 1.45.42.3 1.04.43 1.86.38Zm21.7 1.6a3.77 3.77 0 0 1-1.98 2.88c-1.15.67-2.78 1.06-4.9 1.17-2.04.1-3.47-.08-4.29-.57-.8-.49-1.13-1.23-1-2.23.1-.68.36-1.22.77-1.6.4-.4.95-.7 1.63-.91l.04-.3a1.65 1.65 0 0 1-.74-.63c-.15-.26-.2-.6-.14-1.02.09-.65.37-1.15.84-1.49a5.72 5.72 0 0 1 1.74-.81v-.1a3.1 3.1 0 0 1-1.61-1.4 3.76 3.76 0 0 1-.31-2.3 5.03 5.03 0 0 1 1.75-3.17c.5-.41 1.06-.74 1.7-.98a6.72 6.72 0 0 1 2.04-.42 5.2 5.2 0 0 1 2.43.38l.03-.22c.06-.49.24-.9.5-1.23.28-.33.7-.52 1.25-.55l2.32-.12-.24 1.7-2.83.15-.12.84c.4.37.69.81.86 1.33a4.8 4.8 0 0 1-.5 3.54 5.2 5.2 0 0 1-2.86 2.39 6.72 6.72 0 0 1-3.23.38 3.72 3.72 0 0 0-1.76.96c-.14.17-.22.36-.25.57-.06.37.1.61.45.72.36.1.84.13 1.45.1l2.78-.15c1.63-.09 2.77.16 3.42.73.65.56.9 1.35.76 2.37Zm-1.85.2c.07-.5-.08-.9-.44-1.18-.37-.27-1.06-.38-2.07-.32l-4.37.23c-.9.38-1.4.97-1.51 1.76-.08.55.08 1 .46 1.37.38.38 1.09.54 2.12.5l1.9-.1a6.22 6.22 0 0 0 2.74-.68c.69-.37 1.07-.9 1.17-1.58Zm-3.6-6.95a3.5 3.5 0 0 0 2.24-.8c.53-.47.86-1.08.96-1.83l.1-.7c.1-.74-.05-1.32-.46-1.73-.4-.43-1.08-.62-2.06-.57a3.5 3.5 0 0 0-2.24.8 2.86 2.86 0 0 0-.94 1.8l-.1.7c-.1.75.04 1.33.44 1.76.39.43 1.07.62 2.05.57Zm14.1 5.17a5.75 5.75 0 0 1-2.4-.33 4.09 4.09 0 0 1-1.68-1.2 4.96 4.96 0 0 1-.88-2 9.4 9.4 0 0 1 .76-5.4c.4-.83.9-1.54 1.49-2.13a6.62 6.62 0 0 1 4.43-2.02c.85-.04 1.6.07 2.23.34.66.27 1.2.67 1.6 1.2.42.5.7 1.12.86 1.85.16.73.17 1.54.05 2.43l-.13.92-9.34.49-.08.58c-.08.55-.06 1.05.06 1.51.1.46.3.85.58 1.17.3.33.67.57 1.11.74.47.15 1 .21 1.58.18a4.71 4.71 0 0 0 3.92-2.37l1.3.9a6.24 6.24 0 0 1-2.17 2.18c-.94.58-2.03.9-3.29.96Zm1.5-11.48c-.54.03-1.05.15-1.54.37a4.88 4.88 0 0 0-2.26 2.12c-.24.46-.4.96-.48 1.51l-.02.17 7.23-.38.04-.26c.08-.55.06-1.05-.06-1.5a2.55 2.55 0 0 0-1.53-1.84c-.4-.15-.86-.22-1.38-.19Zm13.09 10.72a7.45 7.45 0 0 1-3.33-.47 5.8 5.8 0 0 1-2.17-1.67l1.48-1.21a5.1 5.1 0 0 0 1.77 1.35c.67.3 1.51.43 2.52.37.98-.05 1.8-.26 2.47-.63a2.23 2.23 0 0 0 1.19-1.7c.04-.32.01-.59-.09-.79a.98.98 0 0 0-.41-.5c-.2-.13-.42-.2-.67-.26a5.57 5.57 0 0 0-.8-.15l-1.94-.19c-.43-.04-.9-.1-1.4-.19a4.1 4.1 0 0 1-1.33-.46c-.38-.24-.7-.56-.93-.96-.22-.4-.28-.95-.18-1.63a3.91 3.91 0 0 1 1.83-2.86c.5-.35 1.07-.6 1.71-.79.64-.2 1.33-.3 2.07-.35 1.14-.06 2.1.07 2.88.38.8.31 1.45.77 1.97 1.37l-1.44 1.25a2.65 2.65 0 0 0-.49-.5 3.82 3.82 0 0 0-1.78-.8c-.4-.07-.9-.1-1.45-.07-.99.05-1.78.26-2.36.63-.57.37-.9.87-1 1.52-.04.32-.02.6.06.82.1.2.25.36.44.48.2.12.42.2.67.28.26.05.53.09.8.12l1.94.19c.45.04.92.1 1.4.19.5.09.94.25 1.32.49.4.22.7.53.91.93.24.4.3.95.21 1.63a4.15 4.15 0 0 1-1.87 2.96 7.63 7.63 0 0 1-4 1.22Z"/></g></g></g><rect width="481.97" height="63.23" x=".88" y=".96" stroke="#F3F4F6" stroke-width="2.04" rx="15.3" transform="matrix(.99863 -.05234 -.13917 .99027 300.43 196.18)"/><path fill="#fff" d="m42.36 287.84 746.51-39.13-12.49 88.88-746.51 39.12z"/><path fill="#000" d="m81.83 325.1-9.05 5.25-7.7-4.37c.2-.3.48-.56.8-.75l7.19-4.16a2.1 2.1 0 0 1 2.04-.1l6.11 3.45c.27.16.48.4.61.69Z" opacity=".25"/><path fill="#000" d="m72.78 330.35-1.35 9.6a1.9 1.9 0 0 1-.9-.17l-6.17-3.5c-.28-.15-.5-.4-.64-.7a1.8 1.8 0 0 1-.13-.99l1.06-7.57c.05-.36.2-.72.42-1.04l7.7 4.37Z" opacity=".5"/><path fill="#000" d="m81.97 326.11-1.07 7.57c-.05.36-.2.71-.41 1.03-.23.31-.52.58-.85.78l-7.29 4.2c-.3.15-.61.24-.92.25l1.35-9.59 9.05-5.25c.14.3.18.65.14 1.01ZM101.4 318.5l2.27-.12-1.22 8.71h.11a5.99 5.99 0 0 1 4.92-2.95c1.8-.1 3.12.5 3.94 1.78.84 1.29 1.09 3.13.75 5.55-.34 2.41-1.12 4.31-2.33 5.7a6.14 6.14 0 0 1-4.5 2.23c-2.08.11-3.46-.71-4.16-2.47h-.11l-.34 2.38-2.28.12 2.94-20.93Zm3.33 18.94a4.78 4.78 0 0 0 3.25-1.35 5.52 5.52 0 0 0 1.56-3.25l.35-2.49c.19-1.32-.04-2.35-.67-3.1-.6-.78-1.58-1.13-2.9-1.06-.52.03-1.01.12-1.49.27a4.46 4.46 0 0 0-2.24 1.64c-.24.36-.4.8-.46 1.28l-.74 5.26c-.07.5-.03.92.1 1.29.16.35.4.64.7.89.3.23.68.4 1.12.5.43.11.9.15 1.42.12Zm22.23.5c-.9.04-1.5-.15-1.82-.58a2.73 2.73 0 0 1-.47-1.66h-.14a5.44 5.44 0 0 1-1.86 2.1c-.77.5-1.75.79-2.95.85-1.54.08-2.7-.25-3.5-1-.8-.74-1.11-1.8-.92-3.17a4.6 4.6 0 0 1 1.92-3.22c1.11-.79 2.78-1.24 5-1.36l3.14-.16.2-1.44c.16-1.08-.03-1.86-.57-2.36-.53-.51-1.36-.74-2.48-.68-.99.05-1.82.29-2.5.72-.69.4-1.26.95-1.73 1.63l-1.39-1.05a6.64 6.64 0 0 1 3.97-2.87c.64-.2 1.32-.33 2.06-.37 1.73-.08 3.04.28 3.93 1.1.9.8 1.25 1.98 1.03 3.53l-1.13 8.03 2.05-.1-.27 1.97-1.57.08Zm-6.57-1.2a6.48 6.48 0 0 0 1.62-.29 6.6 6.6 0 0 0 1.37-.63c.4-.26.7-.56.94-.9.26-.34.41-.7.47-1.08l.33-2.4-3.13.16c-1.37.07-2.4.31-3.07.72-.69.41-1.08.97-1.18 1.7l-.08.58c-.1.76.08 1.32.56 1.69.5.35 1.22.5 2.17.44Zm18.23.92a8.69 8.69 0 0 1-3.89-.55 6.75 6.75 0 0 1-2.52-1.95l1.72-1.4c.6.69 1.3 1.22 2.07 1.57.78.35 1.76.5 2.94.43 1.14-.06 2.1-.3 2.88-.74a2.6 2.6 0 0 0 1.38-1.98c.06-.38.02-.68-.1-.92-.1-.26-.25-.45-.48-.6a2.38 2.38 0 0 0-.78-.29 6.4 6.4 0 0 0-.94-.17l-2.26-.22c-.5-.05-1.05-.13-1.63-.22a4.8 4.8 0 0 1-1.54-.54 3.1 3.1 0 0 1-1.1-1.12 3.08 3.08 0 0 1-.2-1.9 4.6 4.6 0 0 1 2.13-3.34c.59-.4 1.25-.71 2-.92.75-.23 1.55-.36 2.4-.4a7.97 7.97 0 0 1 3.37.44c.93.36 1.7.89 2.3 1.59l-1.68 1.46c-.14-.2-.33-.4-.57-.59a4.5 4.5 0 0 0-2.08-.93 7.43 7.43 0 0 0-1.68-.08c-1.16.06-2.09.3-2.77.74a2.43 2.43 0 0 0-1.15 1.77c-.06.38-.03.7.06.95.12.24.3.43.52.56.22.14.48.25.77.33.31.06.63.1.94.14l2.27.22c.52.05 1.06.12 1.63.23.58.1 1.09.28 1.54.56.45.26.8.62 1.06 1.1.28.47.36 1.1.25 1.9a4.84 4.84 0 0 1-2.19 3.45 8.88 8.88 0 0 1-4.67 1.42Zm17.18-.9c-1.06.06-2-.07-2.8-.39a4.77 4.77 0 0 1-1.96-1.41 5.78 5.78 0 0 1-1.03-2.33 10.94 10.94 0 0 1 .89-6.3 9.44 9.44 0 0 1 1.74-2.48 7.7 7.7 0 0 1 5.17-2.35c.98-.05 1.85.08 2.6.4.77.3 1.4.77 1.87 1.38.48.6.82 1.32 1 2.17.18.85.2 1.8.06 2.83l-.16 1.08-10.89.57-.1.68c-.09.64-.06 1.22.07 1.76s.36 1 .68 1.37c.35.37.78.66 1.3.86.54.17 1.15.24 1.84.2a5.47 5.47 0 0 0 2.66-.8 5.81 5.81 0 0 0 1.91-1.96l1.53 1.04a7.27 7.27 0 0 1-2.54 2.55 8 8 0 0 1-3.84 1.13Zm1.74-13.4c-.62.04-1.22.18-1.78.43-.57.26-1.08.6-1.53 1.01a5.39 5.39 0 0 0-1.67 3.23l-.03.2 8.44-.44.04-.31c.1-.65.07-1.22-.06-1.74a2.97 2.97 0 0 0-.64-1.31 2.5 2.5 0 0 0-1.16-.84c-.46-.18-1-.26-1.6-.23Zm7.64 17.31.3-2.09 13.68-.71-.3 2.09-13.68.72Zm17.6-5.66 2.05-14.6 2.1-.1-.23 1.7.11-.01c.31-.58.7-1.08 1.17-1.5a3.08 3.08 0 0 1 1.94-.69c.86-.04 1.46.14 1.82.55.36.4.54.93.54 1.6h.09c.35-.67.81-1.24 1.37-1.7a3.55 3.55 0 0 1 2.14-.76c1.2-.06 1.94.31 2.22 1.12.3.8.35 1.99.13 3.53l-1.42 10.12-2.11.12 1.37-9.76c.17-1.25.16-2.1-.04-2.55-.18-.48-.61-.7-1.3-.66-.6.03-1.13.25-1.56.67-.43.4-.7.99-.82 1.78l-1.5 10.72-2.11.1 1.37-9.75c.17-1.24.16-2.1-.04-2.55-.18-.48-.6-.7-1.27-.66a2.5 2.5 0 0 0-1.6.67c-.42.4-.7.99-.8 1.78l-1.51 10.72-2.11.1Zm24.06-.93a6.37 6.37 0 0 1-2.72-.39 4.59 4.59 0 0 1-1.9-1.41 5.72 5.72 0 0 1-.97-2.34 11.42 11.42 0 0 1 .89-6.3c.44-.96.99-1.79 1.65-2.47a7.7 7.7 0 0 1 5.2-2.36 6.18 6.18 0 0 1 2.69.4c.78.31 1.41.8 1.89 1.44.5.63.83 1.4 1 2.34a11.5 11.5 0 0 1-.89 6.3 8.9 8.9 0 0 1-1.67 2.47 7.67 7.67 0 0 1-5.17 2.32Zm.28-1.95a5.1 5.1 0 0 0 3.23-1.29 5.67 5.67 0 0 0 1.67-3.57l.3-2.09c.21-1.58-.01-2.73-.69-3.44-.67-.72-1.64-1.04-2.92-.97a5.1 5.1 0 0 0-3.24 1.29 5.66 5.66 0 0 0-1.66 3.57l-.3 2.09c-.21 1.58.01 2.73.69 3.44.67.72 1.64 1.04 2.92.97Zm20.77-1.84h-.12a5.99 5.99 0 0 1-4.91 2.95c-1.8.1-3.13-.5-3.97-1.78-.82-1.28-1.06-3.13-.72-5.55.34-2.41 1.1-4.31 2.3-5.7a6.23 6.23 0 0 1 4.53-2.23c2.07-.11 3.46.71 4.16 2.47h.1l1.23-8.71 2.28-.12-2.94 20.92-2.28.12.34-2.37Zm-3.87.9a5.64 5.64 0 0 0 2.76-.9c.38-.28.7-.6.93-.98.26-.38.43-.82.5-1.31l.74-5.26c.07-.5.02-.91-.14-1.26a1.91 1.91 0 0 0-.66-.89c-.31-.25-.68-.42-1.12-.53-.44-.1-.91-.15-1.43-.12a4.84 4.84 0 0 0-3.28 1.38 5.48 5.48 0 0 0-1.52 3.22l-.35 2.49c-.19 1.32.02 2.36.63 3.14.63.75 1.61 1.1 2.94 1.02Zm17.27 1.09c-1.06.06-2-.07-2.8-.39a4.78 4.78 0 0 1-1.95-1.41 5.76 5.76 0 0 1-1.03-2.33 10.98 10.98 0 0 1 .89-6.3 9.45 9.45 0 0 1 1.73-2.48 7.7 7.7 0 0 1 5.17-2.35c.99-.06 1.86.08 2.6.4.77.3 1.4.77 1.88 1.38.48.6.81 1.32 1 2.17.18.85.2 1.8.05 2.83l-.15 1.07-10.9.58-.1.68c-.08.64-.06 1.22.07 1.76s.36 1 .69 1.37c.34.37.77.66 1.3.86.53.17 1.14.24 1.83.2a5.49 5.49 0 0 0 2.66-.8 5.82 5.82 0 0 0 1.92-1.96l1.52 1.05a7.28 7.28 0 0 1-2.54 2.54 8 8 0 0 1-3.84 1.13Zm1.75-13.4c-.63.04-1.23.18-1.8.43-.56.26-1.06.6-1.52 1.01a5.36 5.36 0 0 0-1.67 3.23l-.03.2 8.44-.44.05-.31c.09-.64.06-1.22-.07-1.74a2.97 2.97 0 0 0-1.8-2.15c-.46-.18-1-.26-1.6-.23Zm9.14 10.58 5.13-.27 2.4-17.07-5.13.26.27-1.92 7.42-.39-2.67 19 5.13-.26-.27 1.92-12.55.66.27-1.93Z"/><g clip-path="url(#j)"><rect width="449.75" height="65.27" fill="#F3F4F6" rx="16.32" transform="matrix(.99863 -.05234 -.13917 .99027 321.74 285.22)"/><g clip-path="url(#k)"><g clip-path="url(#l)"><path fill="#99A1AF" d="m342.98 323.23.7-5.06-4.88.25.23-1.64 4.89-.26.71-5.07 1.86-.1-.71 5.07 4.89-.25-.24 1.64-4.88.26-.72 5.07-1.85.1Zm34.45-.31-.76-4.75-6 .32-2.11 4.9-2.13.1 7.6-17.19 2.72-.14 2.86 16.65-2.18.11Zm-2.25-14.53h-.22l-3.55 8.3 5.01-.26-1.24-8.04Zm15.82 11.8h-.1a5.13 5.13 0 0 1-4.2 2.53c-1.56.08-2.69-.43-3.4-1.53s-.92-2.68-.63-4.75c.3-2.07.95-3.7 1.98-4.9a5.34 5.34 0 0 1 3.88-1.9c1.78-.1 2.96.6 3.56 2.12h.1l1.05-7.47 1.95-.1-2.52 17.93-1.95.1.28-2.03Zm-3.3.77a4.9 4.9 0 0 0 2.36-.77c.32-.24.59-.52.8-.84.22-.33.36-.7.42-1.13l.63-4.5c.06-.42.02-.78-.11-1.08-.12-.31-.31-.57-.57-.76a2.43 2.43 0 0 0-.96-.46 4.2 4.2 0 0 0-1.22-.1 4.15 4.15 0 0 0-2.81 1.18 4.7 4.7 0 0 0-1.31 2.76l-.3 2.13c-.16 1.13.02 2.03.54 2.7.54.64 1.38.93 2.52.87Zm17.96-1.54h-.1a5.13 5.13 0 0 1-4.21 2.53c-1.55.09-2.68-.42-3.4-1.52-.7-1.1-.91-2.7-.62-4.76.3-2.07.95-3.7 1.97-4.9a5.34 5.34 0 0 1 3.89-1.9c1.77-.1 2.96.61 3.56 2.12h.1l1.04-7.47 1.96-.1-2.52 17.93-1.96.1.29-2.03Zm-3.31.77a4.9 4.9 0 0 0 2.36-.77c.33-.24.6-.52.8-.84.22-.33.37-.7.43-1.12l.63-4.51c.06-.42.02-.78-.12-1.08-.12-.31-.3-.57-.57-.76a2.44 2.44 0 0 0-.95-.46 4.2 4.2 0 0 0-1.23-.1 4.15 4.15 0 0 0-2.8 1.18 4.7 4.7 0 0 0-1.32 2.76l-.3 2.14c-.16 1.13.02 2.02.55 2.69.54.64 1.38.93 2.52.88Zm26.47-16.76 5.8-.3c1.46-.08 2.56.26 3.28 1 .72.75.98 1.8.8 3.12a4.27 4.27 0 0 1-1.1 2.44 5.11 5.11 0 0 1-2.08 1.33v.07c.92.18 1.65.57 2.18 1.17.54.58.72 1.46.55 2.64a6.06 6.06 0 0 1-3.42 4.65c-.58.27-1.2.43-1.86.46l-6.52.34 2.38-16.92Zm3.8 14.84c.94-.05 1.7-.3 2.3-.75.6-.44.96-1.1 1.08-1.98l.14-.99c.12-.86-.06-1.48-.53-1.87-.48-.41-1.2-.59-2.14-.54l-3.86.2-.86 6.13 3.86-.2Zm.75-7.78a3.82 3.82 0 0 0 2.1-.67c.55-.41.87-1 .98-1.78l.13-.95c.11-.77-.05-1.34-.48-1.7-.44-.37-1.09-.52-1.95-.48l-3.52.19-.78 5.57 3.52-.19Zm17.68 8.57c-.76.04-1.28-.12-1.56-.5-.27-.37-.4-.84-.4-1.42l-.12.01c-.38.74-.91 1.34-1.59 1.8a5 5 0 0 1-2.53.73c-1.32.06-2.32-.22-3-.86-.7-.63-.96-1.54-.8-2.72a3.94 3.94 0 0 1 1.66-2.76c.95-.68 2.38-1.06 4.29-1.16l2.69-.14.17-1.24c.13-.92-.04-1.6-.5-2.02-.45-.44-1.16-.64-2.12-.59a4.4 4.4 0 0 0-2.15.62c-.58.35-1.08.82-1.48 1.4l-1.19-.9a5.7 5.7 0 0 1 3.4-2.46 7.01 7.01 0 0 1 1.78-.31c1.48-.08 2.6.23 3.36.93.77.7 1.07 1.7.88 3.03l-.97 6.89 1.76-.1-.23 1.7-1.35.07Zm-5.63-1.03a5.55 5.55 0 0 0 2.56-.78c.34-.23.61-.48.81-.76.22-.3.36-.62.4-.94l.3-2.06-2.7.14a5.81 5.81 0 0 0-2.63.62c-.59.35-.92.83-1 1.45l-.08.5c-.09.65.07 1.13.48 1.45.43.3 1.05.43 1.86.38Zm15.63.8a7.44 7.44 0 0 1-3.33-.48 5.8 5.8 0 0 1-2.17-1.67l1.48-1.2c.51.6 1.1 1.04 1.77 1.35.67.3 1.51.42 2.52.37.98-.05 1.8-.26 2.47-.63a2.23 2.23 0 0 0 1.19-1.7c.04-.33.01-.59-.09-.8a.97.97 0 0 0-.41-.5c-.2-.12-.42-.2-.67-.25a5.57 5.57 0 0 0-.8-.15l-1.94-.2c-.43-.03-.9-.1-1.4-.18a4.12 4.12 0 0 1-1.32-.46c-.4-.24-.7-.56-.94-.96-.22-.41-.28-.95-.18-1.63a3.91 3.91 0 0 1 1.83-2.86c.5-.35 1.07-.61 1.71-.8a8.66 8.66 0 0 1 4.95.04c.8.31 1.45.76 1.97 1.36l-1.44 1.26a2.65 2.65 0 0 0-.49-.5 3.86 3.86 0 0 0-1.78-.8 6.3 6.3 0 0 0-1.44-.07c-1 .05-1.79.26-2.37.63-.57.36-.9.87-1 1.52-.04.32-.02.6.06.81.1.2.25.37.44.49.2.11.42.2.67.27.27.05.54.1.8.13l1.94.19c.45.04.92.1 1.4.19.5.08.94.25 1.32.48.4.22.7.53.91.94.24.4.3.95.21 1.63a4.15 4.15 0 0 1-1.87 2.96 7.62 7.62 0 0 1-4 1.22Zm14.73-.77a5.76 5.76 0 0 1-2.4-.34 4.09 4.09 0 0 1-1.68-1.2 4.94 4.94 0 0 1-.88-2 9.42 9.42 0 0 1 .76-5.4c.4-.83.9-1.54 1.48-2.13a6.63 6.63 0 0 1 4.43-2.02 5 5 0 0 1 2.24.34c.65.27 1.19.67 1.6 1.2.41.5.7 1.12.86 1.85.15.73.17 1.54.04 2.43l-.13.92-9.33.49-.09.58c-.07.55-.06 1.05.06 1.51.11.46.3.85.58 1.17.3.33.67.57 1.12.74.46.15.98.21 1.57.18a4.7 4.7 0 0 0 2.28-.7 4.97 4.97 0 0 0 1.64-1.67l1.31.9a6.23 6.23 0 0 1-2.17 2.18c-.94.58-2.04.9-3.3.97Zm1.49-11.49c-.54.03-1.05.15-1.53.37-.49.22-.92.5-1.31.86a4.6 4.6 0 0 0-1.43 2.77l-.03.17 7.23-.38.04-.26c.08-.55.06-1.05-.06-1.5-.1-.44-.28-.81-.54-1.12a2.15 2.15 0 0 0-1-.72c-.39-.15-.85-.21-1.37-.19Zm32.62.99.75-5.36-.2.01-4.8 8.9-2.38-8.52h-.2l-.75 5.36-1.19 8.49-1.88.1 2.38-16.92 2.63-.14 1.96 7.3h.15l4.06-7.62 2.54-.14-2.38 16.92-1.88.1 1.19-8.48Zm9.63 8.2a5.47 5.47 0 0 1-2.33-.33 3.94 3.94 0 0 1-1.62-1.22 4.91 4.91 0 0 1-.84-2c-.14-.8-.15-1.7 0-2.7.13-.98.39-1.88.76-2.7.38-.82.85-1.53 1.42-2.12a6.62 6.62 0 0 1 4.45-2.02c.88-.04 1.65.07 2.3.34.68.27 1.22.68 1.63 1.24.43.54.71 1.2.86 2a9.9 9.9 0 0 1-.76 5.4c-.37.8-.85 1.51-1.44 2.12a6.41 6.41 0 0 1-4.43 2Zm.24-1.67a4.37 4.37 0 0 0 2.77-1.1 4.86 4.86 0 0 0 1.43-3.07l.25-1.79c.2-1.36 0-2.34-.58-2.95-.58-.61-1.41-.9-2.5-.83-1.1.05-2.02.42-2.78 1.1a4.86 4.86 0 0 0-1.42 3.06l-.25 1.8c-.2 1.35 0 2.34.58 2.95.57.61 1.4.89 2.5.83Zm17.8-1.58h-.1a5.13 5.13 0 0 1-4.2 2.53c-1.56.08-2.7-.43-3.4-1.53-.71-1.1-.92-2.69-.63-4.75.3-2.07.95-3.7 1.98-4.9a5.34 5.34 0 0 1 3.88-1.9c1.78-.1 2.96.6 3.56 2.12h.1l1.05-7.47 1.95-.1-2.52 17.93-1.95.1.28-2.03Zm-3.31.77a4.9 4.9 0 0 0 2.37-.77c.32-.24.59-.52.8-.84.22-.33.36-.7.42-1.13l.63-4.5c.06-.43.02-.78-.11-1.08-.12-.32-.31-.57-.58-.76a2.42 2.42 0 0 0-.95-.46c-.38-.1-.78-.13-1.22-.1a4.15 4.15 0 0 0-2.82 1.18 4.7 4.7 0 0 0-1.3 2.76l-.3 2.13c-.16 1.13.02 2.03.54 2.7.54.64 1.38.93 2.52.87Zm14.8.93a5.75 5.75 0 0 1-2.4-.33 4.08 4.08 0 0 1-1.67-1.2 4.95 4.95 0 0 1-.89-2 9.34 9.34 0 0 1 .76-5.4c.41-.84.9-1.54 1.5-2.13a6.62 6.62 0 0 1 4.42-2.02c.85-.04 1.6.07 2.24.34.65.27 1.19.67 1.6 1.2.41.5.7 1.12.85 1.85.16.73.18 1.54.05 2.43l-.13.92-9.34.49-.08.58c-.07.55-.06 1.05.06 1.51.11.46.3.85.59 1.17.29.32.66.57 1.1.74.47.15 1 .21 1.58.18a4.71 4.71 0 0 0 3.92-2.37l1.31.9a6.24 6.24 0 0 1-2.17 2.18c-.94.58-2.04.9-3.3.96Zm1.5-11.48c-.54.03-1.05.15-1.53.37-.49.22-.92.5-1.31.86a4.6 4.6 0 0 0-1.43 2.77l-.03.17 7.23-.38.04-.26c.08-.55.06-1.05-.06-1.5-.1-.44-.28-.81-.54-1.12a2.16 2.16 0 0 0-1-.72c-.4-.15-.85-.22-1.37-.19Zm7.84 9.07 4.4-.23 2.05-14.64-4.4.23.23-1.65 6.36-.33-2.29 16.29 4.4-.23-.23 1.64-10.75.57.23-1.65Z"/></g></g></g><rect width="447.71" height="63.23" x=".88" y=".96" stroke="#F3F4F6" stroke-width="2.04" rx="15.3" transform="matrix(.99863 -.05234 -.13917 .99027 321.88 285.28)"/><path fill="#fff" d="M29.59 378.73 776.1 339.6l-12.49 88.87-746.52 39.13z"/><path fill="#000" d="M62.38 427.86a5.94 5.94 0 0 1-3.64-.94 5.18 5.18 0 0 1-2.1-2.92 6.6 6.6 0 0 1 .16-3.9 8.67 8.67 0 0 1 2.37-3.58c1.09-1 2.4-1.71 3.76-2.05a6.6 6.6 0 0 1 3.91.18 5.17 5.17 0 0 1 2.72 2.34c.6 1.08.82 2.37.63 3.72a8.38 8.38 0 0 1-2.69 4.9 8.38 8.38 0 0 1-5.12 2.25Z" opacity=".5"/><path fill="#000" d="M55.72 428.21a5.93 5.93 0 0 1-3.65-.94 5.18 5.18 0 0 1-2.1-2.92 6.6 6.6 0 0 1 .17-3.9 8.66 8.66 0 0 1 2.36-3.58c1.1-1 2.4-1.72 3.77-2.05a6.6 6.6 0 0 1 3.9.18 5.17 5.17 0 0 1 2.73 2.34c.6 1.08.81 2.38.62 3.72a8.38 8.38 0 0 1-2.68 4.9 8.38 8.38 0 0 1-5.12 2.25ZM87.73 415.73l2.28-.12-.33 2.38.11-.01a6 6 0 0 1 4.92-2.95c1.8-.1 3.11.5 3.93 1.78.84 1.29 1.1 3.14.75 5.55-.34 2.41-1.11 4.31-2.33 5.7a6.14 6.14 0 0 1-4.5 2.24c-2.07.1-3.46-.72-4.15-2.48h-.12l-1.13 8.04-2.28.12 2.85-20.25Zm4.23 12.6A4.78 4.78 0 0 0 95.2 427a5.53 5.53 0 0 0 1.57-3.26l.35-2.49c.18-1.32-.04-2.35-.67-3.1-.61-.78-1.58-1.13-2.91-1.06-.51.03-1 .12-1.48.28a4.44 4.44 0 0 0-2.24 1.63c-.24.37-.4.8-.47 1.28l-.73 5.27c-.07.48-.04.91.1 1.28.16.35.39.64.7.89.3.23.67.4 1.11.5.44.11.91.15 1.43.13Zm20.08-17.07c-.67.03-1.11-.08-1.34-.33a1.25 1.25 0 0 1-.26-1.02l.07-.46c.06-.41.24-.76.54-1.03.3-.3.8-.47 1.46-.5.66-.04 1.1.08 1.34.35.23.25.31.58.25 1l-.06.45a1.8 1.8 0 0 1-.55 1.07c-.3.27-.79.43-1.45.46Zm-8.68 16.23 5.3-.28 1.52-10.75-5.3.28.26-1.92 7.59-.4-1.78 12.67 4.96-.26-.27 1.92-12.55.66.27-1.93Zm18.57-13.55 2.28-.12-.34 2.37h.12a5.99 5.99 0 0 1 4.91-2.96c1.8-.09 3.12.5 3.94 1.8.84 1.28 1.09 3.12.75 5.54-.34 2.41-1.12 4.31-2.33 5.7a6.14 6.14 0 0 1-4.5 2.23c-2.08.11-3.46-.71-4.16-2.47h-.1l-1.14 8.03-2.28.12 2.85-20.24Zm4.22 12.6a4.78 4.78 0 0 0 3.25-1.35 5.53 5.53 0 0 0 1.56-3.25l.35-2.49c.19-1.32-.03-2.35-.66-3.1-.61-.78-1.58-1.13-2.91-1.06-.52.02-1.01.12-1.48.27a4.46 4.46 0 0 0-2.24 1.63c-.24.37-.4.8-.47 1.3l-.74 5.25c-.07.5-.03.92.1 1.29.16.35.4.64.7.89.3.22.68.4 1.12.5.44.1.91.15 1.42.12Zm16.88 1.11c-1.07.06-2-.07-2.8-.38a4.78 4.78 0 0 1-1.96-1.42 5.79 5.79 0 0 1-1.03-2.33 10.92 10.92 0 0 1 .89-6.3 9.43 9.43 0 0 1 1.73-2.48 7.7 7.7 0 0 1 5.17-2.35c1-.05 1.86.08 2.6.4.77.31 1.4.77 1.88 1.38.48.6.81 1.32 1 2.17.18.85.2 1.8.05 2.83l-.15 1.08-10.9.57-.09.68c-.09.64-.07 1.23.07 1.76.13.54.35 1 .68 1.37.34.37.78.66 1.3.86.54.18 1.15.25 1.83.21a5.49 5.49 0 0 0 2.66-.81 5.8 5.8 0 0 0 1.92-1.96l1.52 1.05a7.27 7.27 0 0 1-2.53 2.54 7.98 7.98 0 0 1-3.84 1.13Zm1.74-13.4c-.63.04-1.22.18-1.79.44-.56.25-1.07.58-1.53 1a5.38 5.38 0 0 0-1.67 3.23l-.03.2 8.45-.44.04-.31c.09-.64.07-1.22-.07-1.74a2.97 2.97 0 0 0-.63-1.31 2.5 2.5 0 0 0-1.16-.84c-.47-.18-1-.26-1.61-.23Zm9.14 10.58 5.14-.26 2.4-17.08-5.13.27.27-1.93 7.41-.39-2.67 19 5.13-.26-.27 1.92-12.54.66.26-1.93Zm26.52-17.16c-.66.03-1.11-.07-1.34-.32a1.25 1.25 0 0 1-.25-1.03l.06-.45c.06-.42.24-.76.54-1.04.31-.3.8-.46 1.46-.5.67-.03 1.11.09 1.34.36.23.25.31.58.26 1l-.07.44a1.8 1.8 0 0 1-.54 1.07c-.3.28-.8.44-1.46.47Zm-8.68 16.23 5.3-.28 1.52-10.74-5.3.27.26-1.92 7.6-.4-1.79 12.67 4.96-.26-.27 1.93-12.54.65.26-1.92Zm16.6 1.04 2.06-14.6 2.28-.11-.34 2.37h.12a6.93 6.93 0 0 1 1.66-1.97 5.57 5.57 0 0 1 2.91-.97c1.54-.08 2.7.35 3.5 1.28.8.91 1.07 2.25.82 4.03l-1.31 9.36-2.29.12 1.27-8.97c.18-1.34.03-2.31-.47-2.92-.5-.63-1.32-.91-2.46-.86-.45.03-.9.1-1.36.25-.46.13-.87.32-1.24.57-.38.24-.7.55-.95.92-.26.37-.43.79-.5 1.26l-1.41 10.12-2.28.12Zm23.07-.87c-1.06.05-2-.08-2.8-.39a4.77 4.77 0 0 1-1.95-1.41 5.77 5.77 0 0 1-1.03-2.33 10.94 10.94 0 0 1 .89-6.3 9.45 9.45 0 0 1 1.73-2.49 7.7 7.7 0 0 1 5.17-2.34c.98-.06 1.85.07 2.6.4.77.3 1.4.77 1.87 1.38.48.6.82 1.31 1 2.17.18.85.2 1.8.06 2.83l-.16 1.07-10.89.57-.1.68c-.09.64-.06 1.23.07 1.77.13.53.36.99.68 1.37.35.37.78.66 1.3.85a5.49 5.49 0 0 0 4.5-.6 5.82 5.82 0 0 0 1.92-1.95l1.52 1.04a7.25 7.25 0 0 1-2.54 2.55 7.99 7.99 0 0 1-3.84 1.13Zm1.74-13.4c-.62.03-1.22.18-1.78.43-.57.25-1.08.6-1.53 1a5.39 5.39 0 0 0-1.67 3.23l-.03.2 8.44-.43.04-.32c.1-.64.07-1.22-.06-1.73a2.96 2.96 0 0 0-.64-1.32 2.52 2.52 0 0 0-1.16-.84c-.46-.18-1-.25-1.6-.22Zm7.64 17.31.3-2.09 13.68-.72-.3 2.1-13.68.71Zm25.32-6.07c-1.12.06-1.9-.2-2.35-.8-.42-.6-.57-1.38-.43-2.37l1.31-9.33-4.9.26.27-1.92 3.65-.2c.5-.02.85-.13 1.07-.33.23-.22.39-.57.46-1.06l.53-3.82 2.2-.11-.72 5.14 6.7-.35-.27 1.92-6.7.35-1.51 10.75 6.7-.35-.27 1.92-5.74.3Zm21.95-1.15c-.9.05-1.5-.14-1.81-.58a2.73 2.73 0 0 1-.48-1.66l-.14.01a5.44 5.44 0 0 1-1.85 2.1c-.77.5-1.76.78-2.95.85-1.54.08-2.71-.25-3.51-1-.8-.74-1.11-1.8-.92-3.18a4.6 4.6 0 0 1 1.93-3.21c1.1-.8 2.78-1.24 5-1.36l3.14-.17.2-1.44c.15-1.07-.04-1.86-.58-2.35-.53-.52-1.35-.75-2.48-.69-.98.05-1.82.3-2.5.72-.68.41-1.26.96-1.73 1.64l-1.38-1.05a6.64 6.64 0 0 1 3.97-2.88c.63-.2 1.32-.32 2.06-.36 1.73-.09 3.03.27 3.92 1.09.9.81 1.25 2 1.03 3.54l-1.13 8.03 2.06-.11-.28 1.98-1.57.08Zm-6.57-1.2a6.48 6.48 0 0 0 1.63-.28c.51-.18.97-.39 1.36-.63.4-.27.71-.56.95-.9.25-.35.4-.7.46-1.08l.34-2.4-3.14.16c-1.37.07-2.4.3-3.07.72-.68.4-1.07.97-1.17 1.69l-.09.6c-.1.75.08 1.3.56 1.67.5.35 1.22.5 2.17.45Zm25.32 1.88a4.4 4.4 0 0 1-2.31 3.34c-1.34.79-3.25 1.24-5.72 1.37-2.37.12-4.04-.1-5-.66-.94-.57-1.32-1.44-1.16-2.61.11-.8.4-1.42.89-1.87.48-.46 1.1-.8 1.9-1.06l.05-.33a1.93 1.93 0 0 1-.86-.75c-.19-.3-.24-.7-.17-1.2.1-.75.43-1.33.98-1.73.56-.4 1.24-.72 2.03-.95l.01-.11a3.62 3.62 0 0 1-1.89-1.64 4.4 4.4 0 0 1-.36-2.68 5.89 5.89 0 0 1 2.05-3.7 6.91 6.91 0 0 1 1.97-1.14 7.77 7.77 0 0 1 2.4-.49c1.1-.06 2.04.09 2.82.44l.03-.25c.08-.57.28-1.05.6-1.44.32-.39.8-.6 1.45-.63l2.7-.15-.27 1.98-3.3.18-.15.99c.47.42.8.94 1 1.54a5.56 5.56 0 0 1-.58 4.13 6.07 6.07 0 0 1-3.33 2.79 7.77 7.77 0 0 1-3.78.45 4.34 4.34 0 0 0-2.05 1.12c-.16.2-.26.41-.29.66-.06.43.12.71.53.84.42.1.98.14 1.69.1l3.25-.16c1.9-.1 3.23.18 3.98.85.76.66 1.05 1.58.89 2.76Zm-2.16.22c.08-.58-.09-1.04-.51-1.38-.43-.31-1.23-.44-2.41-.38l-5.1.27c-1.05.45-1.64 1.14-1.77 2.06-.09.64.1 1.17.54 1.6.45.44 1.27.63 2.47.57l2.22-.11a7.27 7.27 0 0 0 3.2-.79 2.43 2.43 0 0 0 1.36-1.84Zm-4.2-8.12a4.08 4.08 0 0 0 2.61-.92 3.4 3.4 0 0 0 1.12-2.13l.12-.82c.12-.87-.06-1.55-.54-2.03-.46-.5-1.25-.72-2.4-.66a4.08 4.08 0 0 0-2.62.93c-.6.53-.96 1.24-1.08 2.1l-.12.82c-.12.87.05 1.55.5 2.05.46.5 1.26.72 2.4.66Z"/><rect width="413.44" height="63.23" x=".88" y=".96" fill="#F3F4F6" rx="15.3" transform="matrix(.99863 -.05234 -.13917 .99027 343.32 374.38)"/><rect width="413.44" height="63.23" x=".88" y=".96" stroke="#E5E7EB" stroke-width="2.04" rx="15.3" transform="matrix(.99863 -.05234 -.13917 .99027 343.32 374.38)"/><path stroke="#000" stroke-linecap="round" stroke-linejoin="round" stroke-width="2.75" d="m710.07 383.56 6.31 6.9 8.36-7.66"/><g clip-path="url(#m)"><path fill="#99A1AF" d="m367.53 413.66-.77-4.75-5.99.32-2.12 4.9-2.12.1 7.6-17.18 2.72-.15 2.85 16.65-2.17.11Zm-2.25-14.53h-.22l-3.55 8.3 5.01-.26-1.24-8.04Zm15.75 11.8h-.1c-.17.32-.38.63-.62.93a4.3 4.3 0 0 1-3.3 1.6c-1.32.06-2.32-.3-3-1.08-.69-.8-.92-1.95-.7-3.47l1.12-8.03 1.96-.1-1.08 7.69c-.16 1.14-.03 1.99.4 2.52.42.53 1.13.76 2.1.71a4.97 4.97 0 0 0 2.24-.7c.32-.2.59-.46.8-.76.23-.31.37-.68.43-1.1l1.22-8.68 1.95-.1-1.75 12.5-1.96.1.29-2.03Zm12 1.4c-.96.05-1.64-.18-2.02-.7-.36-.5-.49-1.18-.37-2.02l1.13-8-4.2.22.22-1.64 3.13-.17c.43-.02.73-.12.92-.29.2-.19.33-.49.4-.9l.45-3.28 1.88-.1-.62 4.41 5.75-.3-.24 1.65-5.74.3-1.3 9.21 5.75-.3-.23 1.65-4.91.25Zm14-.45a5.46 5.46 0 0 1-2.33-.33 3.94 3.94 0 0 1-1.63-1.22 4.9 4.9 0 0 1-.83-2 9.8 9.8 0 0 1 .76-5.4c.37-.83.85-1.53 1.41-2.13a6.62 6.62 0 0 1 4.46-2c.88-.06 1.65.06 2.3.33.68.27 1.22.68 1.63 1.24.42.53.7 1.2.86 2 .14.79.15 1.68 0 2.67-.13 1-.39 1.9-.76 2.73-.38.8-.85 1.51-1.44 2.12a6.41 6.41 0 0 1-4.43 1.99Zm.24-1.67a4.36 4.36 0 0 0 2.77-1.11 4.86 4.86 0 0 0 1.43-3.06l.25-1.8c.19-1.35 0-2.33-.58-2.94-.58-.62-1.41-.9-2.5-.84-1.1.06-2.02.43-2.78 1.11a4.86 4.86 0 0 0-1.43 3.06l-.25 1.8c-.19 1.35 0 2.33.58 2.95.58.6 1.41.88 2.5.83Zm11.8-5.55.3-2.04 7.08-.37-.29 2.04-7.09.37Zm20.65 3.2h-.1a5.14 5.14 0 0 1-4.2 2.53c-1.56.08-2.69-.43-3.4-1.53-.7-1.1-.91-2.69-.62-4.75.29-2.07.94-3.7 1.97-4.9a5.34 5.34 0 0 1 3.88-1.9c1.78-.1 2.96.6 3.56 2.12h.1l1.05-7.47 1.95-.1-2.52 17.93-1.95.1.28-2.03Zm-3.3.77a4.9 4.9 0 0 0 2.36-.77c.32-.24.59-.52.8-.84.22-.33.36-.7.42-1.13l.63-4.5c.06-.43.02-.78-.11-1.08-.12-.32-.31-.57-.57-.77a2.44 2.44 0 0 0-.96-.45 4.2 4.2 0 0 0-1.22-.1 4.15 4.15 0 0 0-2.81 1.18 4.7 4.7 0 0 0-1.31 2.76l-.3 2.13c-.16 1.13.02 2.03.54 2.7.54.64 1.38.93 2.52.87Zm14.8.93a5.76 5.76 0 0 1-2.4-.33 4.1 4.1 0 0 1-1.68-1.2 4.95 4.95 0 0 1-.88-2 9.4 9.4 0 0 1 .76-5.4c.4-.84.9-1.54 1.48-2.13a6.6 6.6 0 0 1 4.44-2.02 5 5 0 0 1 2.23.34c.65.27 1.19.67 1.6 1.2.42.5.7 1.12.86 1.85.15.73.17 1.54.04 2.43l-.13.92-9.33.49-.08.58c-.08.55-.06 1.05.05 1.51.11.46.3.85.59 1.17.3.32.66.57 1.1.74.47.15 1 .21 1.58.18.85-.04 1.61-.27 2.28-.7a4.97 4.97 0 0 0 1.65-1.67l1.3.9a6.23 6.23 0 0 1-2.17 2.18c-.94.58-2.04.9-3.3.96Zm1.49-11.48c-.54.03-1.05.15-1.53.37-.49.22-.92.5-1.31.86a4.6 4.6 0 0 0-1.43 2.77l-.03.17 7.24-.38.03-.26c.08-.55.06-1.05-.05-1.5-.1-.44-.28-.81-.55-1.12a2.15 2.15 0 0 0-.99-.72c-.4-.15-.86-.22-1.38-.19Zm13.6 10.4c-.97.06-1.64-.18-2.02-.68-.36-.51-.49-1.19-.37-2.03l1.13-8-4.2.22.22-1.65 3.13-.16c.43-.02.73-.12.92-.29.2-.19.33-.49.39-.9l.46-3.28 1.88-.1-.62 4.41 5.75-.3-.24 1.65-5.74.3-1.3 9.21 5.75-.3-.23 1.65-4.91.25Zm14.22-.45a5.76 5.76 0 0 1-2.4-.33 4.1 4.1 0 0 1-1.68-1.21 4.95 4.95 0 0 1-.88-2 9.39 9.39 0 0 1 .76-5.4c.4-.83.9-1.54 1.49-2.13a6.6 6.6 0 0 1 4.43-2.01 5 5 0 0 1 2.23.34c.66.27 1.2.66 1.6 1.19.42.5.7 1.12.86 1.85.16.73.17 1.54.05 2.43l-.13.92-9.34.5-.08.57c-.08.55-.06 1.06.05 1.51.12.46.31.86.59 1.18.3.32.66.56 1.1.73a4.69 4.69 0 0 0 3.86-.51 4.98 4.98 0 0 0 1.65-1.68l1.3.9a6.23 6.23 0 0 1-2.17 2.18c-.94.58-2.04.9-3.29.97Zm1.5-11.48c-.55.02-1.06.15-1.54.36-.48.22-.92.51-1.31.87a4.6 4.6 0 0 0-1.43 2.77l-.03.17 7.24-.38.04-.27c.07-.55.05-1.05-.06-1.49-.1-.44-.28-.82-.55-1.12a2.15 2.15 0 0 0-.99-.72 3.3 3.3 0 0 0-1.38-.2Zm13.38 10.7a5.6 5.6 0 0 1-2.38-.33 3.95 3.95 0 0 1-1.6-1.24c-.41-.54-.69-1.21-.84-2-.13-.8-.12-1.7.02-2.68.13-.98.4-1.89.76-2.7a7.5 7.5 0 0 1 1.42-2.13 6.32 6.32 0 0 1 4.43-2 4.45 4.45 0 0 1 2.87.63c.7.5 1.16 1.16 1.4 2l-1.69.9a2.22 2.22 0 0 0-.93-1.44 2.95 2.95 0 0 0-1.88-.43 4.36 4.36 0 0 0-2.82 1.2 4.48 4.48 0 0 0-1.31 2.8l-.3 2.13a4.85 4.85 0 0 0 0 1.52 2.48 2.48 0 0 0 1.57 1.91c.44.15.95.22 1.54.18a4.18 4.18 0 0 0 2.18-.69c.6-.41 1.12-.97 1.54-1.67l1.26.88a6.54 6.54 0 0 1-2.05 2.17 6.1 6.1 0 0 1-3.2.99Zm14.86-1.07c-.96.05-1.63-.18-2.01-.69-.37-.5-.49-1.18-.37-2.02l1.12-8-4.2.22.23-1.65 3.13-.16c.42-.03.73-.12.91-.3.2-.18.34-.48.4-.9l.46-3.28 1.88-.1-.62 4.42 5.74-.3-.23 1.64-5.74.3-1.3 9.22 5.75-.3-.23 1.64-4.92.26Zm14.23-.46a5.75 5.75 0 0 1-2.4-.33 4.08 4.08 0 0 1-1.68-1.2 4.94 4.94 0 0 1-.88-2 9.36 9.36 0 0 1 .76-5.4c.4-.84.9-1.54 1.48-2.14a6.62 6.62 0 0 1 4.44-2 5 5 0 0 1 2.23.33c.65.27 1.19.67 1.6 1.2.42.5.7 1.12.86 1.85.15.73.17 1.54.04 2.43l-.13.92-9.33.49-.09.58c-.07.55-.05 1.05.06 1.51.11.46.3.85.59 1.17.3.32.66.57 1.1.74.47.15 1 .21 1.58.18a4.7 4.7 0 0 0 3.93-2.37l1.3.9a6.23 6.23 0 0 1-2.17 2.18c-.94.58-2.04.9-3.3.96Zm1.49-11.48c-.54.03-1.05.15-1.53.37-.49.22-.92.5-1.31.86a4.6 4.6 0 0 0-1.43 2.77l-.03.17 7.24-.38.03-.26c.08-.55.06-1.05-.05-1.5a2.55 2.55 0 0 0-1.54-1.84c-.4-.15-.86-.22-1.38-.19Zm16.33 8.24h-.1a5.14 5.14 0 0 1-4.22 2.54c-1.54.08-2.68-.43-3.4-1.53-.7-1.1-.9-2.7-.61-4.76.29-2.07.94-3.7 1.97-4.9a5.34 5.34 0 0 1 3.88-1.9c1.78-.1 2.97.61 3.56 2.12h.1l1.05-7.47 1.96-.1-2.52 17.93-1.96.1.29-2.03Zm-3.32.77a4.85 4.85 0 0 0 2.37-.77c.32-.24.59-.52.8-.83.22-.34.36-.71.42-1.13l.63-4.51a1.9 1.9 0 0 0-.11-1.08c-.12-.31-.3-.57-.57-.76a2.4 2.4 0 0 0-.96-.46c-.37-.09-.78-.13-1.22-.1a4.15 4.15 0 0 0-2.81 1.18 4.7 4.7 0 0 0-1.31 2.76l-.3 2.14c-.16 1.13.02 2.02.54 2.69.54.64 1.38.94 2.52.88Z"/></g><path fill="#fff" d="m778.13 339.5 746.52-39.12-12.5 88.87-746.5 39.13zM16.81 469.62l746.52-39.12-12.5 88.87L4.33 558.5z"/><path fill="#000" d="M42.8 522.79c-1.12.06-1.9-.21-2.35-.8-.43-.6-.57-1.39-.43-2.37l1.31-9.33-4.9.26.27-1.93 3.65-.19c.49-.02.85-.13 1.06-.33.24-.22.4-.58.46-1.06l.54-3.82 2.2-.12-.73 5.15 6.7-.35-.27 1.92-6.7.35-1.5 10.75 6.7-.35-.28 1.92-5.73.3Zm21.95-1.15c-.9.05-1.5-.15-1.82-.58a2.73 2.73 0 0 1-.47-1.66h-.15a5.45 5.45 0 0 1-1.85 2.1c-.77.5-1.75.8-2.95.86-1.54.08-2.7-.26-3.5-1-.81-.74-1.11-1.8-.92-3.18a4.6 4.6 0 0 1 1.92-3.22c1.11-.79 2.78-1.24 5-1.35l3.14-.17.2-1.44c.16-1.07-.03-1.86-.57-2.36-.53-.51-1.36-.74-2.48-.68-.99.05-1.82.3-2.5.72-.69.41-1.26.96-1.74 1.64l-1.38-1.06a6.63 6.63 0 0 1 3.97-2.87 8.2 8.2 0 0 1 2.06-.36c1.73-.1 3.04.27 3.93 1.09.9.8 1.25 1.99 1.03 3.53l-1.13 8.03 2.05-.1-.27 1.98-1.57.08Zm-6.57-1.2a6.43 6.43 0 0 0 1.62-.28c.52-.18.97-.39 1.37-.63.4-.27.7-.57.94-.9.26-.35.41-.71.47-1.09l.33-2.4-3.13.16c-1.37.08-2.4.32-3.08.73-.68.4-1.07.97-1.17 1.69l-.08.59c-.1.75.08 1.31.56 1.68.5.35 1.22.5 2.17.45Zm25.31 1.87a4.4 4.4 0 0 1-2.3 3.35c-1.34.78-3.25 1.24-5.72 1.37-2.38.12-4.04-.1-5-.67-.94-.57-1.33-1.43-1.16-2.6.1-.8.4-1.42.88-1.87.48-.46 1.12-.81 1.9-1.06l.05-.34a1.93 1.93 0 0 1-.86-.74c-.18-.3-.24-.7-.17-1.2.1-.75.44-1.33.98-1.73.57-.4 1.25-.72 2.03-.95l.02-.11a3.61 3.61 0 0 1-1.9-1.64 4.39 4.39 0 0 1-.35-2.68 5.88 5.88 0 0 1 2.05-3.7 6.91 6.91 0 0 1 1.97-1.14 7.8 7.8 0 0 1 2.39-.5c1.1-.05 2.04.1 2.82.45l.04-.25c.08-.57.28-1.05.6-1.44.32-.4.8-.6 1.44-.64l2.71-.14-.27 1.98-3.31.17-.14 1c.47.42.8.93 1 1.54.2.6.24 1.3.13 2.07a6.07 6.07 0 0 1-4.05 4.84 7.8 7.8 0 0 1-3.77.46 4.28 4.28 0 0 0-2.05 1.11c-.16.2-.26.42-.3.66-.05.44.12.72.54.85.42.1.98.14 1.68.1l3.25-.17c1.9-.1 3.23.2 3.99.86.75.66 1.05 1.58.88 2.76Zm-2.15.23c.08-.59-.1-1.04-.52-1.38-.42-.31-1.23-.44-2.4-.38l-5.11.27c-1.04.45-1.63 1.13-1.76 2.06-.1.64.09 1.17.54 1.6.45.44 1.27.63 2.47.57l2.22-.12a7.27 7.27 0 0 0 3.2-.78 2.43 2.43 0 0 0 1.36-1.84Zm-4.21-8.12a4.08 4.08 0 0 0 2.62-.92 3.4 3.4 0 0 0 1.12-2.14l.12-.82c.12-.86-.06-1.54-.54-2.02-.46-.5-1.26-.72-2.4-.66a4.07 4.07 0 0 0-2.62.93c-.6.53-.97 1.23-1.09 2.1l-.11.82c-.13.87.04 1.55.5 2.05.46.5 1.26.72 2.4.66Zm16.38 6.05a8.69 8.69 0 0 1-3.89-.56 6.77 6.77 0 0 1-2.53-1.94l1.73-1.41c.6.7 1.29 1.22 2.07 1.58.78.35 1.76.5 2.94.43 1.14-.06 2.1-.3 2.88-.74a2.6 2.6 0 0 0 1.38-1.98c.05-.38.02-.69-.1-.92-.1-.26-.25-.46-.48-.6a2.4 2.4 0 0 0-.78-.29c-.29-.08-.6-.14-.94-.17l-2.26-.22c-.5-.05-1.05-.13-1.64-.23a4.8 4.8 0 0 1-1.54-.53 3.13 3.13 0 0 1-1.08-1.13 3.09 3.09 0 0 1-.22-1.9 4.58 4.58 0 0 1 2.14-3.33c.59-.4 1.25-.71 2-.92a10.1 10.1 0 0 1 2.4-.4 7.95 7.95 0 0 1 3.37.43c.93.37 1.7.9 2.3 1.6l-1.68 1.46a3.1 3.1 0 0 0-.57-.59c-.22-.21-.5-.4-.86-.54-.33-.17-.74-.3-1.22-.39a7.37 7.37 0 0 0-1.69-.08c-1.16.06-2.08.3-2.76.73a2.43 2.43 0 0 0-1.16 1.78c-.05.38-.03.7.07.95.12.24.29.42.51.56.23.14.49.25.78.33l.94.14 2.26.22c.53.05 1.07.12 1.64.22.57.1 1.08.3 1.54.57.45.26.8.62 1.06 1.1.27.47.35 1.1.24 1.89a4.84 4.84 0 0 1-2.18 3.45 8.9 8.9 0 0 1-4.67 1.43Z"/><g clip-path="url(#n)"><rect width="589.26" height="65.27" fill="#F3F4F6" rx="16.32" transform="matrix(.99863 -.05234 -.13917 .99027 156.87 474.3)"/><g clip-path="url(#o)"><g clip-path="url(#p)"><path fill="#99A1AF" d="m178.1 512.32.72-5.07-4.9.26.24-1.65 4.89-.25.71-5.07 1.86-.1-.71 5.07 4.89-.26-.24 1.65-4.88.26-.72 5.06-1.85.1Zm34.46-.32-.77-4.74-5.98.31-2.12 4.9-2.13.11 7.6-17.2 2.72-.13 2.86 16.64-2.18.12Zm-2.25-14.53-.22.01-3.55 8.3 5.02-.27-1.25-8.04Zm15.82 11.8h-.1a5.13 5.13 0 0 1-4.2 2.54c-1.56.08-2.69-.43-3.4-1.53s-.92-2.69-.63-4.76c.3-2.07.95-3.7 1.98-4.89a5.34 5.34 0 0 1 3.88-1.91c1.78-.1 2.96.61 3.56 2.12h.1l1.05-7.47 1.95-.1-2.52 17.94-1.95.1.28-2.04Zm-3.3.78a4.86 4.86 0 0 0 2.36-.78c.32-.24.59-.52.8-.83.22-.33.36-.71.42-1.13l.63-4.5c.06-.43.02-.79-.11-1.09-.12-.31-.31-.57-.58-.76a2.43 2.43 0 0 0-.95-.45c-.38-.1-.78-.13-1.22-.1a4.14 4.14 0 0 0-2.81 1.17 4.7 4.7 0 0 0-1.31 2.77l-.3 2.13c-.16 1.13.02 2.03.54 2.69.54.64 1.38.94 2.52.88Zm17.96-1.55h-.1a5.13 5.13 0 0 1-4.21 2.54c-1.55.08-2.68-.43-3.4-1.53-.7-1.1-.91-2.69-.62-4.76.3-2.06.95-3.7 1.97-4.89a5.35 5.35 0 0 1 3.89-1.9c1.77-.1 2.96.6 3.56 2.12l.1-.01 1.04-7.47 1.96-.1-2.52 17.94-1.96.1.29-2.04Zm-3.31.78a4.85 4.85 0 0 0 2.36-.77c.33-.25.6-.52.8-.84.22-.33.37-.7.43-1.13l.63-4.5c.06-.43.02-.79-.12-1.08-.12-.32-.3-.57-.57-.77a2.43 2.43 0 0 0-.95-.45c-.38-.1-.79-.13-1.23-.1a4.14 4.14 0 0 0-2.8 1.18 4.7 4.7 0 0 0-1.32 2.76l-.3 2.13c-.16 1.13.02 2.03.55 2.7.54.64 1.38.93 2.52.87Zm32.44-15.32-2.13 15.15-2.06.1 2.13-15.14-5.7.3.25-1.77 13.45-.7-.25 1.76-5.7.3Zm16.26 14.19c-.76.04-1.28-.13-1.56-.5-.27-.37-.4-.84-.4-1.42h-.12c-.38.75-.91 1.34-1.59 1.8a5 5 0 0 1-2.53.73c-1.32.07-2.32-.21-3-.85-.7-.64-.96-1.55-.8-2.73a3.94 3.94 0 0 1 1.66-2.76c.95-.67 2.38-1.06 4.29-1.16l2.69-.14.17-1.24c.13-.92-.04-1.59-.5-2.01-.45-.45-1.16-.64-2.12-.6a4.4 4.4 0 0 0-2.15.63c-.58.35-1.08.81-1.48 1.4l-1.19-.9a5.77 5.77 0 0 1 3.4-2.47 7.03 7.03 0 0 1 1.78-.3c1.48-.08 2.6.23 3.36.93.77.7 1.07 1.7.88 3.03l-.97 6.88 1.76-.1-.24 1.7-1.34.08Zm-5.63-1.03c.5-.03.97-.1 1.4-.24.44-.15.82-.34 1.16-.55.34-.22.61-.48.81-.76.22-.3.36-.61.4-.94l.3-2.06-2.7.15a5.82 5.82 0 0 0-2.63.61c-.59.36-.92.84-1 1.45l-.08.51c-.09.65.07 1.13.48 1.44.43.3 1.05.43 1.86.39Zm21.7 1.6a3.77 3.77 0 0 1-1.98 2.87c-1.15.67-2.78 1.06-4.9 1.18-2.03.1-3.46-.09-4.28-.57-.8-.5-1.14-1.24-1-2.24.1-.68.35-1.21.76-1.6.4-.4.95-.7 1.63-.9l.04-.3a1.63 1.63 0 0 1-.73-.63c-.16-.26-.21-.6-.15-1.03.09-.64.37-1.14.84-1.49a5.73 5.73 0 0 1 1.74-.8l.01-.1a3.09 3.09 0 0 1-1.62-1.41 3.76 3.76 0 0 1-.3-2.3 5.05 5.05 0 0 1 1.75-3.17c.5-.4 1.06-.73 1.69-.98a6.73 6.73 0 0 1 2.05-.42 5.2 5.2 0 0 1 2.42.38l.03-.21c.07-.49.24-.9.51-1.24.27-.33.69-.51 1.24-.54l2.32-.12-.23 1.7-2.84.14-.12.85c.4.36.69.8.86 1.33.17.52.2 1.1.11 1.77a5.2 5.2 0 0 1-3.47 4.15 6.7 6.7 0 0 1-3.23.39 3.75 3.75 0 0 0-1.26.52c-.2.13-.36.27-.5.44-.14.17-.22.35-.25.56-.05.38.1.62.46.73.35.09.84.12 1.44.09l2.78-.15c1.63-.08 2.77.16 3.42.74.65.56.9 1.35.76 2.36Zm-1.85.2c.07-.5-.07-.9-.44-1.18-.36-.27-1.05-.38-2.06-.33l-4.38.23c-.9.38-1.4.97-1.5 1.76-.08.55.07 1.01.45 1.38.39.38 1.1.54 2.12.49l1.9-.1a6.24 6.24 0 0 0 2.75-.68c.68-.37 1.07-.9 1.16-1.57Zm-3.6-6.96a3.5 3.5 0 0 0 2.24-.8c.54-.47.86-1.08.96-1.82l.1-.7c.1-.75-.05-1.32-.46-1.74-.4-.43-1.08-.61-2.06-.56a3.5 3.5 0 0 0-2.24.79 2.87 2.87 0 0 0-.94 1.8l-.1.7c-.1.75.05 1.34.44 1.76.4.43 1.08.62 2.05.57Zm14.03 5.18a7.45 7.45 0 0 1-3.33-.47c-.88-.4-1.6-.96-2.17-1.67l1.49-1.2c.5.6 1.1 1.04 1.77 1.34.67.3 1.5.43 2.52.38.98-.06 1.8-.27 2.47-.64a2.23 2.23 0 0 0 1.18-1.7c.05-.32.02-.58-.08-.79a.97.97 0 0 0-.42-.5c-.19-.12-.41-.2-.66-.26a5.52 5.52 0 0 0-.8-.15l-1.95-.18c-.43-.05-.9-.11-1.4-.2a4.1 4.1 0 0 1-1.32-.46c-.39-.23-.7-.55-.93-.96-.22-.4-.28-.94-.19-1.62a3.93 3.93 0 0 1 1.84-2.87c.5-.34 1.07-.6 1.71-.78.64-.2 1.33-.31 2.06-.35 1.14-.06 2.1.06 2.89.38.8.3 1.45.76 1.96 1.36l-1.44 1.25a2.62 2.62 0 0 0-.48-.5 3.8 3.8 0 0 0-1.78-.8 6.3 6.3 0 0 0-1.45-.06c-1 .05-1.78.26-2.37.62-.57.37-.9.88-.99 1.52-.04.33-.02.6.06.82.1.2.25.36.44.48.2.12.42.21.66.28.27.05.54.1.81.13l1.94.18c.45.04.92.1 1.4.2.5.08.93.24 1.32.48.39.22.7.53.91.94.24.4.3.94.2 1.62a4.15 4.15 0 0 1-1.86 2.96 7.61 7.61 0 0 1-4 1.22Z"/></g></g></g><rect width="587.22" height="63.23" x=".88" y=".96" stroke="#F3F4F6" stroke-width="2.04" rx="15.3" transform="matrix(.99863 -.05234 -.13917 .99027 157 474.36)"/><path fill="#fff" d="m765.36 430.39 746.51-39.12-12.49 88.87-746.51 39.13z"/></g><rect width="1499.15" height="574.02" x=".88" y=".96" stroke="#E5E7EB" stroke-width="2.04" rx="23.46" transform="matrix(.99863 -.05234 -.13917 .99027 74.52 45.62)"/></g><defs><clipPath id="a"><path fill="#fff" d="M0 0h775v515H0z"/></clipPath><clipPath id="b"><rect width="1501.19" height="576.06" fill="#fff" rx="24.48" transform="matrix(.99863 -.05234 -.13917 .99027 74.39 45.57)"/></clipPath><clipPath id="d"><rect width="501.14" height="65.27" fill="#fff" rx="16.32" transform="matrix(.99863 -.05234 -.13917 .99027 295.96 106.13)"/></clipPath><clipPath id="e"><path fill="#fff" d="m299.47 109.96 492.31-25.8-7.95 56.55-492.31 25.8z"/></clipPath><clipPath id="f"><path fill="#fff" d="m314.06 121.22 476.02-24.94-4.55 32.3-476.01 24.96z"/></clipPath><clipPath id="g"><rect width="484.01" height="65.27" fill="#fff" rx="16.32" transform="matrix(.99863 -.05234 -.13917 .99027 300.3 196.13)"/></clipPath><clipPath id="h"><path fill="#fff" d="m303.8 199.95 475.2-24.9-7.95 56.55-475.2 24.9z"/></clipPath><clipPath id="i"><path fill="#fff" d="m318.4 211.22 458.9-24.05-4.54 32.31-458.9 24.05z"/></clipPath><clipPath id="j"><rect width="449.75" height="65.27" fill="#fff" rx="16.32" transform="matrix(.99863 -.05234 -.13917 .99027 321.74 285.22)"/></clipPath><clipPath id="k"><path fill="#fff" d="m325.25 289.05 440.98-23.11-7.94 56.55-440.99 23.12z"/></clipPath><clipPath id="l"><path fill="#fff" d="m339.84 300.32 424.69-22.26-4.54 32.31-424.7 22.26z"/></clipPath><clipPath id="m"><path fill="#fff" d="m359.25 389.52 378.24-19.82-4.54 32.31-378.24 19.82z"/></clipPath><clipPath id="n"><rect width="589.26" height="65.27" fill="#fff" rx="16.32" transform="matrix(.99863 -.05234 -.13917 .99027 156.87 474.3)"/></clipPath><clipPath id="o"><path fill="#fff" d="m160.38 478.13 580.3-30.4-7.95 56.55-580.3 30.4z"/></clipPath><clipPath id="p"><path fill="#fff" d="m174.97 489.4 564-29.56-4.53 32.31-564.01 29.56z"/></clipPath><linearGradient id="c" x1="0" x2="1497.11" y1="28.56" y2="28.56" gradientUnits="userSpaceOnUse"><stop stop-color="#F9FAFB"/><stop offset="1" stop-color="#fff" stop-opacity="0"/></linearGradient></defs></svg>